<svg width="109" height="109" viewBox="0 0 109 109" fill="none" xmlns="http://www.w3.org/2000/svg">
<path d="M52.8125 52.5619C53.2078 52.5621 53.5906 52.4236 53.8942 52.1704L61.1808 46.0954C65.4331 42.5608 68.8538 38.132 71.1992 33.1245C73.5445 28.117 74.7569 22.654 74.75 17.1244C74.75 16.6769 74.5722 16.2476 74.2557 15.9312C73.9392 15.6147 73.51 15.4369 73.0625 15.4369H72.05C65.4419 15.4275 59.0322 13.1783 53.8672 9.05647C53.5679 8.81684 53.1959 8.68628 52.8125 8.68628C52.4291 8.68628 52.0571 8.81684 51.7578 9.05647C46.5928 13.1783 40.183 15.4275 33.575 15.4369H32.5625C32.1149 15.4369 31.6857 15.6147 31.3692 15.9312C31.0528 16.2476 30.875 16.6769 30.875 17.1244C30.8677 22.654 32.0799 28.1172 34.4253 33.1248C36.7707 38.1323 40.1915 42.561 44.4442 46.0954L51.7308 52.1704C52.0344 52.4236 52.4172 52.5621 52.8125 52.5619ZM34.2905 18.8119C40.9649 18.6533 47.4299 16.4504 52.8125 12.5007C58.1953 16.4499 64.6602 18.6528 71.3345 18.8119C71.1082 23.5586 69.896 28.2061 67.7751 32.4586C65.6542 36.7111 62.6711 40.4754 59.0157 43.5118L52.8125 48.6807L46.6042 43.5085C42.95 40.472 39.9681 36.7081 37.8481 32.4562C35.7281 28.2043 34.5165 23.5576 34.2905 18.8119Z" fill="white"/>
<path d="M53.9094 43.7178L59.1895 39.1936C63.7016 35.3137 66.7897 30.039 67.9645 24.2053C68.0134 23.9607 68.0075 23.7083 67.9471 23.4663C67.8868 23.2243 67.7736 22.9986 67.6156 22.8056C67.4576 22.6126 67.2588 22.457 67.0335 22.3501C66.8081 22.2431 66.5619 22.1874 66.3125 22.187C62.2975 22.1787 58.392 20.8768 55.175 18.4745L53.825 17.462C53.5329 17.2429 53.1776 17.1245 52.8125 17.1245C52.4474 17.1245 52.0921 17.2429 51.8 17.462L50.45 18.4745C47.2327 20.8763 43.3274 22.1781 39.3125 22.187C39.0622 22.187 38.8151 22.2426 38.589 22.3498C38.3628 22.4571 38.1634 22.6133 38.0051 22.8071C37.8468 23.0009 37.7336 23.2276 37.6737 23.4706C37.6138 23.7135 37.6087 23.9668 37.6587 24.212C38.8335 30.0457 41.9217 35.3205 46.4337 39.2004L51.7139 43.7246C52.0196 43.986 52.4086 44.1297 52.8108 44.1297C53.213 44.1297 53.602 43.986 53.9077 43.7246L53.9094 43.7178ZM48.6292 36.6303C45.2005 33.681 42.702 29.7996 41.437 25.4574C45.4372 25.0594 49.2533 23.5787 52.475 21.1745L52.8125 20.9214L53.15 21.1745C56.3714 23.5792 60.1876 25.0599 64.1879 25.4574C62.923 29.7996 60.4245 33.681 56.9958 36.6303L52.8125 40.2146L48.6292 36.6303Z" fill="white"/>
<path d="M105.125 59.312H89.9375V3.62451C89.9375 3.17696 89.7597 2.74774 89.4432 2.43127C89.1268 2.1148 88.6976 1.93701 88.25 1.93701H17.375C16.9274 1.93701 16.4982 2.1148 16.1818 2.43127C15.8653 2.74774 15.6875 3.17696 15.6875 3.62451V45.812H3.875C3.42745 45.812 2.99822 45.9898 2.68176 46.3063C2.36529 46.6227 2.1875 47.052 2.1875 47.4995V98.1245C2.19018 100.361 3.07999 102.506 4.66175 104.088C6.2435 105.67 8.38806 106.559 10.625 106.562H81.5C83.7369 106.559 85.8815 105.67 87.4632 104.088C89.045 102.506 89.9348 100.361 89.9375 98.1245V93.062H105.125C105.573 93.062 106.002 92.8842 106.318 92.5678C106.635 92.2513 106.812 91.8221 106.812 91.3745V60.9995C106.812 60.552 106.635 60.1227 106.318 59.8063C106.002 59.4898 105.573 59.312 105.125 59.312ZM5.5625 98.1245V49.187H15.6875V98.1245C15.6875 99.4672 15.1541 100.755 14.2047 101.704C13.2553 102.654 11.9677 103.187 10.625 103.187C9.28234 103.187 7.99468 102.654 7.04527 101.704C6.09587 100.755 5.5625 99.4672 5.5625 98.1245ZM86.5625 98.1245C86.5625 99.4672 86.0291 100.755 85.0797 101.704C84.1303 102.654 82.8427 103.187 81.5 103.187H17.3311C18.4479 101.735 19.0563 99.9562 19.0625 98.1245V5.31201H86.5625V59.312H84.875C84.4274 59.312 83.9982 59.4898 83.6818 59.8063C83.3653 60.1227 83.1875 60.552 83.1875 60.9995V62.687H78.8236L73.0625 56.9259V47.4995C73.0625 47.052 72.8847 46.6227 72.5682 46.3063C72.2518 45.9898 71.8226 45.812 71.375 45.812H69.6875C67.8973 45.812 66.1804 46.5232 64.9145 47.789C63.6487 49.0549 62.9375 50.7718 62.9375 52.562V62.687H51.125C49.7823 62.687 48.4947 63.2204 47.5453 64.1698C46.5959 65.1192 46.0625 66.4069 46.0625 67.7495V87.9995C46.0625 89.3422 46.5959 90.6298 47.5453 91.5792C48.4947 92.5286 49.7823 93.062 51.125 93.062H71.375C71.6361 93.0649 71.8943 93.0071 72.1293 92.8933L78.5232 89.687H83.1875V91.3745C83.1875 91.8221 83.3653 92.2513 83.6818 92.5678C83.9982 92.8842 84.4274 93.062 84.875 93.062H86.5625V98.1245ZM83.1875 86.312H78.125C77.8639 86.3091 77.6057 86.3669 77.3707 86.4808L70.9768 89.687H51.125C50.6774 89.687 50.2482 89.5092 49.9318 89.1928C49.6153 88.8763 49.4375 88.4471 49.4375 87.9995V86.312H62.9375V82.937H49.4375V79.562H62.9375V76.187H49.4375V72.812H62.9375V69.437H49.4375V67.7495C49.4375 67.302 49.6153 66.8727 49.9318 66.5563C50.2482 66.2398 50.6774 66.062 51.125 66.062H64.625C65.0726 66.062 65.5018 65.8842 65.8182 65.5678C66.1347 65.2513 66.3125 64.8221 66.3125 64.3745V52.562C66.3125 51.6669 66.6681 50.8085 67.301 50.1755C67.9339 49.5426 68.7924 49.187 69.6875 49.187V57.6245C69.6876 58.072 69.8654 58.5012 70.1819 58.8176L76.9319 65.5676C77.2483 65.8841 77.6775 66.0619 78.125 66.062H83.1875V86.312ZM103.438 89.687H86.5625V62.687H103.438V89.687Z" fill="white"/>
<path d="M38.4012 52.7746C38.1641 52.6405 37.8974 52.5674 37.625 52.562H24.125C23.6774 52.562 23.2482 52.7397 22.9318 53.0562C22.6153 53.3727 22.4375 53.8019 22.4375 54.2495V67.7495C22.4375 68.197 22.6153 68.6262 22.9318 68.9427C23.2482 69.2592 23.6774 69.437 24.125 69.437H37.625C38.0726 69.437 38.5018 69.2592 38.8182 68.9427C39.1347 68.6262 39.3125 68.197 39.3125 67.7495V56.6356L43.8806 52.0675L41.4944 49.6814L38.4012 52.7746ZM35.9375 66.062H25.8125V55.937H35.2389L30.875 60.3008L28.6931 58.1189L26.3069 60.505L29.6819 63.88C29.9984 64.1964 30.4275 64.3741 30.875 64.3741C31.3225 64.3741 31.7516 64.1964 32.0681 63.88L35.9375 60.0106V66.062ZM41.4944 69.9314L38.4012 73.0246C38.1642 72.8903 37.8974 72.8172 37.625 72.812H24.125C23.6774 72.812 23.2482 72.9897 22.9318 73.3062C22.6153 73.6227 22.4375 74.0519 22.4375 74.4995V87.9995C22.4375 88.447 22.6153 88.8762 22.9318 89.1927C23.2482 89.5092 23.6774 89.687 24.125 89.687H37.625C38.0726 89.687 38.5018 89.5092 38.8182 89.1927C39.1347 88.8762 39.3125 88.447 39.3125 87.9995V76.8856L43.8806 72.3175L41.4944 69.9314ZM35.9375 86.312H25.8125V76.187H35.2389L30.875 80.5508L28.6931 78.3689L26.3069 80.755L29.6819 84.13C29.9984 84.4464 30.4275 84.6241 30.875 84.6241C31.3225 84.6241 31.7516 84.4464 32.0681 84.13L35.9375 80.2606V86.312Z" fill="white"/>
</svg>
