<svg width="50" height="16" viewBox="0 0 50 16" fill="none" xmlns="http://www.w3.org/2000/svg">
<g clip-path="url(#clip0_148_1673)">
<path fill-rule="evenodd" clip-rule="evenodd" d="M17.0792 19.9787C17.1394 19.9787 17.189 19.9811 17.228 19.986C17.2671 19.9909 17.2984 19.9979 17.3219 20.0068C17.3455 20.0158 17.3622 20.0264 17.372 20.0387C17.3817 20.0509 17.3866 20.0652 17.3866 20.0815V22.2598C17.3866 22.2761 17.3817 22.2904 17.372 22.3027C17.3622 22.3149 17.3455 22.3251 17.3219 22.3332C17.2984 22.3414 17.2671 22.3475 17.228 22.3516C17.2046 22.354 17.1774 22.3558 17.1463 22.3567L17.0792 22.3577L17.0121 22.3567L16.9551 22.3538L16.9304 22.3516C16.8914 22.3475 16.86 22.3414 16.8365 22.3332C16.8129 22.3251 16.7962 22.3149 16.7864 22.3027C16.7767 22.2904 16.7718 22.2761 16.7718 22.2598V20.0815C16.7718 20.0652 16.7767 20.0509 16.7864 20.0387C16.7962 20.0264 16.8129 20.0158 16.8365 20.0068C16.86 19.9979 16.8914 19.9909 16.9304 19.986C16.9694 19.9811 17.019 19.9787 17.0792 19.9787ZM15.4525 19.3426L15.5199 19.3436C15.5511 19.3446 15.5787 19.3463 15.6026 19.3488C15.6424 19.3528 15.6737 19.3594 15.6965 19.3683C15.7193 19.3773 15.7355 19.3883 15.7453 19.4014C15.755 19.4144 15.7599 19.4291 15.7599 19.4454V19.9325H16.2332C16.2495 19.9325 16.2637 19.9366 16.2759 19.9447C16.2881 19.9529 16.2983 19.9664 16.3064 19.9851C16.3145 20.0039 16.3206 20.0296 16.3247 20.0622C16.3288 20.0949 16.3308 20.1348 16.3308 20.1822C16.3308 20.2719 16.3227 20.3359 16.3064 20.3743C16.2901 20.4126 16.2665 20.4318 16.2356 20.4318H15.7599V21.4573C15.7599 21.5765 15.7786 21.6658 15.816 21.7253C15.8534 21.7849 15.9201 21.8147 16.0161 21.8147C16.0486 21.8147 16.0779 21.8118 16.1039 21.8061C16.1299 21.8004 16.1531 21.7939 16.1734 21.7865L16.2247 21.767C16.2385 21.7612 16.2511 21.7584 16.2625 21.7584C16.2722 21.7584 16.2816 21.7612 16.2905 21.767C16.2995 21.7727 16.3064 21.7841 16.3113 21.8012C16.3162 21.8184 16.3206 21.8416 16.3247 21.871C16.3288 21.9003 16.3308 21.9379 16.3308 21.9836C16.3308 22.0554 16.3263 22.1104 16.3174 22.1488C16.3084 22.1871 16.2966 22.214 16.282 22.2295C16.2674 22.245 16.2458 22.2589 16.2173 22.2712C16.1889 22.2834 16.1555 22.294 16.1173 22.303C16.0791 22.3119 16.0376 22.3189 15.9929 22.3238C15.9482 22.3287 15.903 22.3311 15.8575 22.3311C15.7355 22.3311 15.6298 22.3156 15.5404 22.2846C15.4509 22.2536 15.3769 22.2059 15.3183 22.1414C15.2598 22.077 15.2167 21.9958 15.189 21.8979C15.1614 21.8 15.1476 21.6841 15.1476 21.5503V20.4318H14.8865C14.8556 20.4318 14.8321 20.4126 14.8158 20.3743C14.7995 20.3359 14.7914 20.2719 14.7914 20.1822C14.7914 20.1348 14.7934 20.0949 14.7975 20.0622C14.8016 20.0296 14.8077 20.0039 14.8158 19.9851C14.8239 19.9664 14.8341 19.9529 14.8463 19.9447C14.8585 19.9366 14.8727 19.9325 14.889 19.9325H15.1476V19.4454C15.1476 19.4291 15.152 19.4144 15.161 19.4014C15.1699 19.3883 15.1862 19.3773 15.2098 19.3683C15.2334 19.3594 15.2651 19.3528 15.3049 19.3488C15.3448 19.3447 15.394 19.3426 15.4525 19.3426ZM32.3089 19.0298C32.3837 19.0298 32.4585 19.0355 32.5333 19.0469C32.6081 19.0583 32.6781 19.0738 32.7431 19.0934C32.8082 19.113 32.8659 19.135 32.9164 19.1595C32.9668 19.184 33.0001 19.2043 33.0164 19.2207C33.0326 19.237 33.0436 19.2509 33.0493 19.2623C33.055 19.2737 33.0599 19.2888 33.0639 19.3076C33.068 19.3263 33.0709 19.35 33.0725 19.3785L33.0743 19.4266L33.0749 19.485L33.074 19.5505L33.0713 19.6049C33.0688 19.6376 33.0648 19.6645 33.0591 19.6857C33.0534 19.7069 33.0452 19.7224 33.0347 19.7322C33.0241 19.742 33.0099 19.7469 32.992 19.7469C32.9771 19.7469 32.9548 19.739 32.9252 19.7231L32.9066 19.7126C32.8676 19.6898 32.8196 19.6649 32.7627 19.638C32.7057 19.611 32.6399 19.5866 32.565 19.5645C32.4902 19.5425 32.4081 19.5315 32.3186 19.5315C32.2487 19.5315 32.1877 19.5401 32.1357 19.5572C32.0836 19.5743 32.0401 19.598 32.0052 19.6282C31.9702 19.6584 31.9442 19.6947 31.9271 19.7371C31.91 19.7795 31.9015 19.8244 31.9015 19.8717C31.9015 19.9419 31.9206 20.0027 31.9588 20.0541C31.997 20.1055 32.0482 20.1511 32.1125 20.1911C32.1767 20.2311 32.2495 20.2686 32.3308 20.3037C32.4122 20.3388 32.4951 20.3759 32.5797 20.4151C32.6643 20.4542 32.7472 20.4987 32.8285 20.5485C32.9098 20.5982 32.9822 20.6578 33.0457 20.7271C33.1091 20.7965 33.1603 20.8781 33.1993 20.9719C33.2384 21.0657 33.2579 21.1763 33.2579 21.3035C33.2579 21.47 33.227 21.616 33.1652 21.7416C33.1034 21.8673 33.0196 21.9721 32.9139 22.0562C32.8082 22.1402 32.6846 22.2034 32.5431 22.2458C32.4016 22.2883 32.2503 22.3095 32.0893 22.3095C31.9803 22.3095 31.8791 22.3005 31.7856 22.2826C31.6921 22.2646 31.6095 22.243 31.538 22.2177C31.4664 22.1924 31.4066 22.1659 31.3587 22.1382C31.3107 22.1104 31.2761 22.0859 31.255 22.0647C31.2338 22.0435 31.2188 22.0129 31.2098 21.9729C31.2009 21.933 31.1964 21.8754 31.1964 21.8004C31.1964 21.7498 31.198 21.7074 31.2013 21.6731C31.2046 21.6389 31.2098 21.6111 31.2172 21.5899C31.2245 21.5687 31.2342 21.5536 31.2464 21.5446C31.2586 21.5356 31.2729 21.5312 31.2891 21.5312C31.3081 21.5312 31.3336 21.5405 31.3655 21.5592L31.3855 21.5715C31.427 21.5985 31.4802 21.6282 31.5453 21.6609C31.6103 21.6935 31.688 21.7233 31.7783 21.7502C31.8685 21.7771 31.973 21.7906 32.0918 21.7906C32.1698 21.7906 32.2398 21.7812 32.3016 21.7625C32.3634 21.7437 32.4158 21.7172 32.4589 21.6829C32.502 21.6486 32.535 21.6062 32.5577 21.5556C32.5805 21.5051 32.5919 21.4488 32.5919 21.3868C32.5919 21.315 32.5724 21.2534 32.5333 21.202C32.4943 21.1506 32.4435 21.1049 32.3809 21.0649C32.3182 21.0249 32.2471 20.9874 32.1674 20.9523C32.0877 20.9172 32.0056 20.8801 31.921 20.8409C31.8364 20.8018 31.7543 20.7573 31.6746 20.7076C31.5949 20.6578 31.5237 20.5982 31.4611 20.5289C31.3985 20.4595 31.3477 20.3775 31.3086 20.2829C31.2696 20.1883 31.2501 20.0749 31.2501 19.9427C31.2501 19.7909 31.2781 19.6576 31.3343 19.5425C31.3904 19.4275 31.466 19.332 31.5611 19.2562C31.6563 19.1803 31.7685 19.1236 31.8978 19.086C32.0271 19.0485 32.1641 19.0298 32.3089 19.0298ZM28.0525 18.8538L28.0874 18.8535C28.1476 18.8535 28.1972 18.856 28.2362 18.8609C28.2752 18.8658 28.3061 18.8727 28.3289 18.8817C28.3517 18.8907 28.3679 18.9017 28.3777 18.9147C28.3875 18.9278 28.3923 18.9425 28.3923 18.9588V22.17C28.3923 22.1879 28.3883 22.203 28.3801 22.2153C28.372 22.2275 28.3582 22.2377 28.3387 22.2458C28.3191 22.254 28.2927 22.2597 28.2594 22.263C28.226 22.2662 28.185 22.2679 28.1362 22.2679C28.0841 22.2679 28.0418 22.2662 28.0093 22.263C27.9768 22.2597 27.9504 22.254 27.93 22.2458C27.9097 22.2377 27.8951 22.2275 27.8861 22.2153C27.8772 22.203 27.8727 22.1879 27.8727 22.17V21.9277C27.7605 22.0484 27.643 22.1422 27.5202 22.2091C27.3974 22.276 27.2612 22.3095 27.1115 22.3095C26.9456 22.3095 26.8054 22.2773 26.6907 22.2128C26.576 22.1483 26.4825 22.0615 26.4101 21.9521C26.3378 21.8428 26.2853 21.7151 26.2528 21.5691C26.2203 21.4231 26.204 21.2693 26.204 21.1077C26.204 20.9136 26.2247 20.739 26.2662 20.584C26.3077 20.4289 26.3683 20.2968 26.448 20.1874C26.5277 20.0781 26.6269 19.9941 26.7456 19.9354C26.8643 19.8766 27.0009 19.8472 27.1555 19.8472C27.2774 19.8472 27.388 19.8721 27.4872 19.9219C27.5865 19.9717 27.6848 20.0447 27.7824 20.1409V18.9588C27.7824 18.9425 27.7869 18.9278 27.7959 18.9147C27.8048 18.9017 27.8211 18.8907 27.8446 18.8817C27.8682 18.8727 27.8995 18.8658 27.9386 18.8609C27.9698 18.857 28.0078 18.8546 28.0525 18.8538ZM21.3627 19.8472C21.431 19.8472 21.4973 19.8521 21.5615 19.8619C21.6258 19.8717 21.6839 19.884 21.7359 19.8986C21.788 19.9133 21.8319 19.9292 21.8677 19.9464L21.9057 19.9657C21.9223 19.9749 21.9353 19.9831 21.9445 19.9904C21.96 20.0027 21.971 20.0149 21.9775 20.0271C21.984 20.0394 21.9889 20.0541 21.9921 20.0712C21.9954 20.0883 21.9982 20.1095 22.0006 20.1348C22.0025 20.1538 22.0036 20.1762 22.0041 20.2021L22.0043 20.2291C22.0043 20.2731 22.0031 20.309 22.0006 20.3368C21.9982 20.3645 21.9941 20.3865 21.9884 20.4028C21.9828 20.4192 21.975 20.4302 21.9653 20.4359C21.9555 20.4416 21.9441 20.4444 21.9311 20.4444C21.9194 20.4444 21.9025 20.439 21.8804 20.428L21.8628 20.4187C21.8319 20.4016 21.7933 20.3833 21.7469 20.3637C21.7006 20.3441 21.6469 20.3257 21.5859 20.3086C21.5249 20.2915 21.4554 20.2829 21.3773 20.2829C21.322 20.2829 21.274 20.2886 21.2334 20.3C21.1927 20.3115 21.1594 20.3278 21.1334 20.349C21.1073 20.3702 21.0878 20.3951 21.0748 20.4236C21.0618 20.4522 21.0553 20.4828 21.0553 20.5154C21.0553 20.566 21.0707 20.6084 21.1016 20.6427C21.1325 20.677 21.1732 20.7071 21.2236 20.7333C21.2614 20.7528 21.3031 20.7715 21.3487 20.7892L21.3956 20.8067C21.4599 20.8295 21.5249 20.8544 21.5908 20.8813C21.6567 20.9083 21.7217 20.9397 21.786 20.9756C21.8502 21.0115 21.9075 21.0555 21.9579 21.1077C22.0084 21.1599 22.049 21.2224 22.0799 21.295C22.1108 21.3676 22.1263 21.4537 22.1263 21.5532C22.1263 21.6772 22.1031 21.7865 22.0568 21.8812C22.0104 21.9758 21.9449 22.0549 21.8604 22.1186C21.7758 22.1822 21.6758 22.2299 21.5603 22.2618C21.4448 22.2936 21.3196 22.3095 21.1846 22.3095C21.1033 22.3095 21.0256 22.3034 20.9516 22.2911C20.8776 22.2789 20.8113 22.2634 20.7528 22.2446C20.6942 22.2259 20.6454 22.2067 20.6064 22.1871C20.5674 22.1675 20.5389 22.1492 20.521 22.132C20.5031 22.1149 20.4893 22.088 20.4795 22.0513C20.4698 22.0146 20.4649 21.9603 20.4649 21.8885C20.4649 21.8412 20.4665 21.8032 20.4698 21.7747C20.473 21.7461 20.4779 21.7233 20.4844 21.7062C20.4909 21.689 20.4991 21.6776 20.5088 21.6719C20.5186 21.6662 20.5308 21.6633 20.5454 21.6633C20.5597 21.6633 20.5795 21.6699 20.6047 21.6829L20.6247 21.6939C20.6597 21.7143 20.7032 21.7368 20.7552 21.7612C20.8073 21.7857 20.8678 21.8085 20.937 21.8298C21.0061 21.851 21.0846 21.8616 21.1724 21.8616C21.2277 21.8616 21.2769 21.8559 21.32 21.8444C21.3631 21.833 21.4005 21.8167 21.4322 21.7955C21.4639 21.7743 21.4879 21.7474 21.5042 21.7147C21.5204 21.6821 21.5286 21.6446 21.5286 21.6021C21.5286 21.5532 21.5135 21.5112 21.4834 21.4761C21.4534 21.441 21.4135 21.4104 21.3639 21.3843C21.3267 21.3647 21.2858 21.3461 21.2413 21.3283L21.1956 21.3109C21.133 21.288 21.0687 21.2627 21.0028 21.235C20.937 21.2073 20.8727 21.1754 20.8101 21.1395C20.7475 21.1037 20.6914 21.0596 20.6418 21.0074C20.5922 20.9552 20.5523 20.8923 20.5222 20.8189C20.4921 20.7455 20.4771 20.6574 20.4771 20.5546C20.4771 20.4502 20.4974 20.3543 20.5381 20.267C20.5788 20.1797 20.6373 20.105 20.7137 20.043C20.7902 19.981 20.8833 19.9329 20.9931 19.8986C21.1029 19.8644 21.2261 19.8472 21.3627 19.8472ZM35.804 19.8472C35.8723 19.8472 35.9386 19.8521 36.0028 19.8619C36.067 19.8717 36.1252 19.884 36.1772 19.8986C36.2293 19.9133 36.2732 19.9292 36.309 19.9464C36.3448 19.9635 36.3704 19.9782 36.3858 19.9904C36.4013 20.0027 36.4123 20.0149 36.4188 20.0271C36.4253 20.0394 36.4301 20.0541 36.4334 20.0712C36.4366 20.0883 36.4395 20.1095 36.4419 20.1348C36.4438 20.1538 36.4449 20.1762 36.4454 20.2021L36.4456 20.2291C36.4456 20.2731 36.4444 20.309 36.4419 20.3368C36.4395 20.3645 36.4354 20.3865 36.4297 20.4028C36.424 20.4192 36.4163 20.4302 36.4066 20.4359C36.3968 20.4416 36.3854 20.4444 36.3724 20.4444C36.3607 20.4444 36.3438 20.439 36.3217 20.428L36.3041 20.4187C36.2732 20.4016 36.2346 20.3833 36.1882 20.3637C36.1419 20.3441 36.0882 20.3257 36.0272 20.3086C35.9662 20.2915 35.8967 20.2829 35.8186 20.2829C35.7633 20.2829 35.7153 20.2886 35.6747 20.3C35.634 20.3115 35.6007 20.3278 35.5746 20.349C35.5486 20.3702 35.5291 20.3951 35.5161 20.4236C35.5031 20.4522 35.4966 20.4828 35.4966 20.5154C35.4966 20.566 35.512 20.6084 35.5429 20.6427C35.5738 20.677 35.6145 20.7071 35.6649 20.7333C35.7153 20.7594 35.7727 20.7838 35.8369 20.8067C35.9012 20.8295 35.9662 20.8544 36.0321 20.8813C36.0979 20.9083 36.163 20.9397 36.2272 20.9756C36.2915 21.0115 36.3488 21.0555 36.3992 21.1077C36.4497 21.1599 36.4903 21.2224 36.5212 21.295C36.5521 21.3676 36.5676 21.4537 36.5676 21.5532C36.5676 21.6772 36.5444 21.7865 36.498 21.8812C36.4517 21.9758 36.3862 22.0549 36.3017 22.1186C36.2171 22.1822 36.1171 22.2299 36.0016 22.2618C35.8861 22.2936 35.7609 22.3095 35.6259 22.3095C35.5446 22.3095 35.4669 22.3034 35.3929 22.2911C35.3189 22.2789 35.2526 22.2634 35.1941 22.2446C35.1355 22.2259 35.0867 22.2067 35.0477 22.1871C35.0087 22.1675 34.9802 22.1492 34.9623 22.132C34.9444 22.1149 34.9306 22.088 34.9208 22.0513C34.9111 22.0146 34.9062 21.9603 34.9062 21.8885C34.9062 21.8412 34.9078 21.8032 34.9111 21.7747C34.9143 21.7461 34.9192 21.7233 34.9257 21.7062C34.9322 21.689 34.9403 21.6776 34.9501 21.6719C34.9599 21.6662 34.9721 21.6633 34.9867 21.6633C35.001 21.6633 35.0208 21.6699 35.046 21.6829L35.066 21.6939C35.101 21.7143 35.1445 21.7368 35.1965 21.7612C35.2486 21.7857 35.3091 21.8085 35.3783 21.8298C35.4474 21.851 35.5259 21.8616 35.6137 21.8616C35.669 21.8616 35.7182 21.8559 35.7613 21.8444C35.8044 21.833 35.8418 21.8167 35.8735 21.7955C35.9052 21.7743 35.9292 21.7474 35.9455 21.7147C35.9617 21.6821 35.9699 21.6446 35.9699 21.6021C35.9699 21.5532 35.9548 21.5112 35.9247 21.4761C35.8946 21.441 35.8548 21.4104 35.8052 21.3843C35.768 21.3647 35.7271 21.3461 35.6826 21.3283L35.6369 21.3109C35.5742 21.288 35.51 21.2627 35.4441 21.235C35.3783 21.2073 35.314 21.1754 35.2514 21.1395C35.1888 21.1037 35.1327 21.0596 35.0831 21.0074C35.0335 20.9552 34.9936 20.8923 34.9635 20.8189C34.9334 20.7455 34.9184 20.6574 34.9184 20.5546C34.9184 20.4502 34.9387 20.3543 34.9794 20.267C35.02 20.1797 35.0786 20.105 35.155 20.043C35.2315 19.981 35.3246 19.9329 35.4344 19.8986C35.5442 19.8644 35.6674 19.8472 35.804 19.8472ZM47.0599 18.8538L47.0948 18.8535C47.1549 18.8535 47.2045 18.856 47.2436 18.8609C47.2826 18.8658 47.3135 18.8727 47.3363 18.8817C47.3591 18.8907 47.3753 18.9017 47.3851 18.9147C47.3948 18.9278 47.3997 18.9425 47.3997 18.9588V22.17C47.3997 22.1879 47.3956 22.203 47.3875 22.2153C47.3794 22.2275 47.3656 22.2377 47.346 22.2458C47.3265 22.254 47.3001 22.2597 47.2668 22.263C47.2334 22.2662 47.1923 22.2679 47.1436 22.2679C47.0915 22.2679 47.0492 22.2662 47.0167 22.263C46.9842 22.2597 46.9577 22.254 46.9374 22.2458C46.9171 22.2377 46.9024 22.2275 46.8935 22.2153C46.8845 22.203 46.8801 22.1879 46.8801 22.17V21.9277C46.7678 22.0484 46.6503 22.1422 46.5275 22.2091C46.4048 22.276 46.2685 22.3095 46.1189 22.3095C45.953 22.3095 45.8127 22.2773 45.6981 22.2128C45.5834 22.1483 45.4899 22.0615 45.4175 21.9521C45.3451 21.8428 45.2927 21.7151 45.2602 21.5691C45.2276 21.4231 45.2114 21.2693 45.2114 21.1077C45.2114 20.9136 45.2321 20.739 45.2736 20.584C45.3151 20.4289 45.3756 20.2968 45.4553 20.1874C45.535 20.0781 45.6342 19.9941 45.753 19.9354C45.8717 19.8766 46.0083 19.8472 46.1628 19.8472C46.2848 19.8472 46.3954 19.8721 46.4946 19.9219C46.5938 19.9717 46.6922 20.0447 46.7898 20.1409V18.9588C46.7898 18.9425 46.7943 18.9278 46.8032 18.9147C46.8122 18.9017 46.8284 18.8907 46.852 18.8817C46.8756 18.8727 46.9069 18.8658 46.9459 18.8609C46.9772 18.857 47.0152 18.8546 47.0599 18.8538ZM3.16378 19.0298C3.2386 19.0298 3.31341 19.0355 3.38823 19.0469C3.46304 19.0583 3.53298 19.0738 3.59803 19.0934C3.66309 19.113 3.72083 19.135 3.77125 19.1595C3.82167 19.184 3.85501 19.2043 3.87127 19.2207C3.88754 19.237 3.89851 19.2509 3.90421 19.2623C3.9099 19.2737 3.91478 19.2888 3.91884 19.3076C3.92291 19.3263 3.92576 19.35 3.92738 19.3785L3.92921 19.4266L3.92982 19.485C3.92982 19.5323 3.9286 19.5723 3.92616 19.6049C3.92372 19.6376 3.91966 19.6645 3.91396 19.6857C3.90827 19.7069 3.90014 19.7224 3.88957 19.7322C3.879 19.742 3.86477 19.7469 3.84687 19.7469C3.83197 19.7469 3.80972 19.739 3.78012 19.7231L3.76149 19.7126C3.72245 19.6898 3.67448 19.6649 3.61755 19.638C3.56063 19.611 3.49476 19.5866 3.41994 19.5645C3.34513 19.5425 3.26299 19.5315 3.17354 19.5315C3.1036 19.5315 3.04261 19.5401 2.99057 19.5572C2.93852 19.5743 2.89502 19.598 2.86005 19.6282C2.82508 19.6584 2.79906 19.6947 2.78198 19.7371C2.7649 19.7795 2.75637 19.8244 2.75637 19.8717C2.75637 19.9419 2.77548 20.0027 2.8137 20.0541C2.85192 20.1055 2.90315 20.1511 2.96739 20.1911C3.03164 20.2311 3.10442 20.2686 3.18574 20.3037C3.26706 20.3388 3.35001 20.3759 3.43458 20.4151C3.51915 20.4542 3.6021 20.4987 3.68342 20.5485C3.76474 20.5982 3.83712 20.6578 3.90055 20.7271C3.96398 20.7965 4.01521 20.8781 4.05424 20.9719C4.09328 21.0657 4.11279 21.1763 4.11279 21.3035C4.11279 21.47 4.08189 21.616 4.02009 21.7416C3.95828 21.8673 3.87452 21.9721 3.76881 22.0562C3.66309 22.1402 3.53948 22.2034 3.39799 22.2458C3.25649 22.2883 3.10523 22.3095 2.94422 22.3095C2.83525 22.3095 2.734 22.3005 2.64048 22.2826C2.54697 22.2646 2.46443 22.243 2.39286 22.2177C2.3213 22.1924 2.26153 22.1659 2.21355 22.1382C2.16557 22.1104 2.13101 22.0859 2.10987 22.0647C2.08872 22.0435 2.07368 22.0129 2.06473 21.9729C2.05579 21.933 2.05132 21.8754 2.05132 21.8004C2.05132 21.7498 2.05294 21.7074 2.0562 21.6731C2.05945 21.6389 2.06473 21.6111 2.07205 21.5899C2.07937 21.5687 2.08913 21.5536 2.10133 21.5446C2.11353 21.5356 2.12776 21.5312 2.14402 21.5312C2.163 21.5312 2.18847 21.5405 2.22043 21.5592L2.24039 21.5715C2.28186 21.5985 2.33512 21.6282 2.40018 21.6609C2.46524 21.6935 2.5429 21.7233 2.63317 21.7502C2.72343 21.7771 2.82793 21.7906 2.94666 21.7906C3.02472 21.7906 3.09466 21.7812 3.15646 21.7625C3.21827 21.7437 3.27072 21.7172 3.31382 21.6829C3.35692 21.6486 3.38985 21.6062 3.41262 21.5556C3.43539 21.5051 3.44678 21.4488 3.44678 21.3868C3.44678 21.315 3.42726 21.2534 3.38823 21.202C3.34919 21.1506 3.29837 21.1049 3.23575 21.0649C3.17313 21.0249 3.10198 20.9874 3.02228 20.9523C2.94259 20.9172 2.86046 20.8801 2.77588 20.8409C2.69131 20.8018 2.60918 20.7573 2.52948 20.7076C2.44979 20.6578 2.37863 20.5982 2.31602 20.5289C2.2534 20.4595 2.20257 20.3775 2.16354 20.2829C2.1245 20.1883 2.10499 20.0749 2.10499 19.9427C2.10499 19.7909 2.13304 19.6576 2.18915 19.5425C2.24527 19.4275 2.32089 19.332 2.41604 19.2562C2.51118 19.1803 2.62341 19.1236 2.75271 19.086C2.88201 19.0485 3.01903 19.0298 3.16378 19.0298ZM23.5286 19.8472C23.6994 19.8472 23.8454 19.864 23.9665 19.8974C24.0877 19.9309 24.1873 19.9823 24.2654 20.0516C24.3435 20.121 24.4004 20.2103 24.4362 20.3196C24.4719 20.4289 24.4898 20.5587 24.4898 20.7088V22.1773C24.4898 22.2002 24.4817 22.2181 24.4654 22.2312C24.4492 22.2442 24.4236 22.2536 24.3886 22.2593C24.3594 22.2641 24.3187 22.2668 24.2664 22.2676L24.2337 22.2679C24.1605 22.2679 24.1072 22.265 24.0739 22.2593C24.0405 22.2536 24.017 22.2442 24.0031 22.2312C23.9893 22.2181 23.9824 22.2002 23.9824 22.1773V22.0035C23.8929 22.0998 23.7909 22.1749 23.6762 22.2287C23.5616 22.2826 23.4343 22.3095 23.2944 22.3095C23.1789 22.3095 23.0728 22.2944 22.976 22.2642C22.8793 22.234 22.7955 22.1891 22.7248 22.1296C22.654 22.07 22.5991 21.9962 22.5601 21.9081C22.5211 21.82 22.5015 21.7172 22.5015 21.5997C22.5015 21.4724 22.5263 21.3619 22.576 21.268C22.6256 21.1742 22.6996 21.0967 22.798 21.0355C22.8964 20.9743 23.0187 20.9291 23.1651 20.8997C23.3115 20.8703 23.4815 20.8556 23.675 20.8556H23.8872V20.7235C23.8872 20.6549 23.8803 20.595 23.8665 20.5436C23.8527 20.4922 23.8299 20.4493 23.7982 20.4151C23.7665 20.3808 23.7242 20.3555 23.6713 20.3392C23.6185 20.3229 23.553 20.3147 23.475 20.3147C23.3725 20.3147 23.281 20.3261 23.2005 20.349C23.12 20.3718 23.0488 20.3971 22.987 20.4249C22.9252 20.4526 22.8736 20.4779 22.8321 20.5007C22.7906 20.5236 22.7569 20.535 22.7309 20.535C22.713 20.535 22.6971 20.5293 22.6833 20.5179C22.6695 20.5064 22.6581 20.4901 22.6491 20.4689C22.6402 20.4477 22.6333 20.4216 22.6284 20.3906C22.6235 20.3596 22.6211 20.3253 22.6211 20.2878C22.6211 20.2372 22.6252 20.1972 22.6333 20.1679C22.6414 20.1385 22.6569 20.112 22.6796 20.0883C22.7024 20.0647 22.7423 20.0386 22.7992 20.01C22.8561 19.9814 22.9228 19.9549 22.9992 19.9305C23.0757 19.906 23.159 19.886 23.2493 19.8705C23.3396 19.855 23.4327 19.8472 23.5286 19.8472ZM10.8009 19.8472C10.9717 19.8472 11.1176 19.864 11.2388 19.8974C11.36 19.9309 11.4596 19.9823 11.5377 20.0516C11.6157 20.121 11.6727 20.2103 11.7084 20.3196C11.7442 20.4289 11.7621 20.5587 11.7621 20.7088V22.1773C11.7621 22.2002 11.754 22.2181 11.7377 22.2312C11.7215 22.2442 11.6958 22.2536 11.6609 22.2593C11.6317 22.2641 11.591 22.2668 11.5387 22.2676L11.506 22.2679C11.4328 22.2679 11.3795 22.265 11.3462 22.2593C11.3128 22.2536 11.2892 22.2442 11.2754 22.2312C11.2616 22.2181 11.2547 22.2002 11.2547 22.1773V22.0035C11.1652 22.0998 11.0632 22.1749 10.9485 22.2287C10.8338 22.2826 10.7066 22.3095 10.5667 22.3095C10.4512 22.3095 10.3451 22.2944 10.2483 22.2642C10.1516 22.234 10.0678 22.1891 9.99705 22.1296C9.9263 22.07 9.87141 21.9962 9.83237 21.9081C9.79334 21.82 9.77382 21.7172 9.77382 21.5997C9.77382 21.4724 9.79863 21.3619 9.84823 21.268C9.89784 21.1742 9.97184 21.0967 10.0702 21.0355C10.1686 20.9743 10.291 20.9291 10.4374 20.8997C10.5838 20.8703 10.7537 20.8556 10.9473 20.8556H11.1595V20.7235C11.1595 20.6549 11.1526 20.595 11.1388 20.5436C11.125 20.4922 11.1022 20.4493 11.0705 20.4151C11.0388 20.3808 10.9965 20.3555 10.9436 20.3392C10.8908 20.3229 10.8253 20.3147 10.7472 20.3147C10.6448 20.3147 10.5533 20.3261 10.4728 20.349C10.3923 20.3718 10.3211 20.3971 10.2593 20.4249C10.1975 20.4526 10.1459 20.4779 10.1044 20.5007C10.0629 20.5236 10.0292 20.535 10.0031 20.535C9.98526 20.535 9.9694 20.5293 9.95557 20.5179C9.94175 20.5064 9.93036 20.4901 9.92142 20.4689C9.91247 20.4477 9.90556 20.4216 9.90068 20.3906C9.8958 20.3596 9.89336 20.3253 9.89336 20.2878C9.89336 20.2372 9.89743 20.1972 9.90556 20.1679C9.91369 20.1385 9.92915 20.112 9.95192 20.0883C9.97469 20.0647 10.0145 20.0386 10.0715 20.01C10.1284 19.9814 10.1951 19.9549 10.2715 19.9305C10.3479 19.906 10.4313 19.886 10.5216 19.8705C10.6118 19.855 10.7049 19.8472 10.8009 19.8472ZM48.9582 19.8472C49.129 19.8472 49.2749 19.864 49.3961 19.8974C49.5173 19.9309 49.6169 19.9823 49.695 20.0516C49.773 20.121 49.8299 20.2103 49.8657 20.3196C49.9015 20.4289 49.9194 20.5587 49.9194 20.7088V22.1773C49.9194 22.2002 49.9113 22.2181 49.895 22.2312C49.8787 22.2442 49.8531 22.2536 49.8181 22.2593C49.789 22.2641 49.7483 22.2668 49.696 22.2676L49.6632 22.2679C49.59 22.2679 49.5368 22.265 49.5034 22.2593C49.4701 22.2536 49.4465 22.2442 49.4327 22.2312C49.4189 22.2181 49.412 22.2002 49.412 22.1773V22.0035C49.3225 22.0998 49.2204 22.1749 49.1058 22.2287C48.9911 22.2826 48.8639 22.3095 48.724 22.3095C48.6085 22.3095 48.5024 22.2944 48.4056 22.2642C48.3088 22.234 48.2251 22.1891 48.1543 22.1296C48.0836 22.07 48.0287 21.9962 47.9897 21.9081C47.9506 21.82 47.9311 21.7172 47.9311 21.5997C47.9311 21.4724 47.9559 21.3619 48.0055 21.268C48.0551 21.1742 48.1291 21.0967 48.2275 21.0355C48.3259 20.9743 48.4483 20.9291 48.5947 20.8997C48.7411 20.8703 48.911 20.8556 49.1046 20.8556H49.3168V20.7235C49.3168 20.6549 49.3099 20.595 49.2961 20.5436C49.2822 20.4922 49.2595 20.4493 49.2278 20.4151C49.196 20.3808 49.1538 20.3555 49.1009 20.3392C49.048 20.3229 48.9826 20.3147 48.9045 20.3147C48.8021 20.3147 48.7106 20.3261 48.6301 20.349C48.5495 20.3718 48.4784 20.3971 48.4166 20.4249C48.3548 20.4526 48.3032 20.4779 48.2617 20.5007C48.2202 20.5236 48.1865 20.535 48.1604 20.535C48.1425 20.535 48.1267 20.5293 48.1129 20.5179C48.099 20.5064 48.0877 20.4901 48.0787 20.4689C48.0698 20.4477 48.0628 20.4216 48.058 20.3906C48.0531 20.3596 48.0506 20.3253 48.0506 20.2878C48.0506 20.2372 48.0547 20.1972 48.0628 20.1679C48.071 20.1385 48.0864 20.112 48.1092 20.0883C48.132 20.0647 48.1718 20.0386 48.2287 20.01C48.2857 19.9814 48.3523 19.9549 48.4288 19.9305C48.5052 19.906 48.5886 19.886 48.6788 19.8705C48.7691 19.855 48.8622 19.8472 48.9582 19.8472ZM18.9723 19.8472C19.1431 19.8472 19.289 19.864 19.4102 19.8974C19.5314 19.9309 19.631 19.9823 19.7091 20.0516C19.7871 20.121 19.8441 20.2103 19.8798 20.3196C19.9156 20.4289 19.9335 20.5587 19.9335 20.7088V22.1773C19.9335 22.2002 19.9254 22.2181 19.9091 22.2312C19.8928 22.2442 19.8672 22.2536 19.8323 22.2593C19.8031 22.2641 19.7624 22.2668 19.7101 22.2676L19.6773 22.2679C19.6042 22.2679 19.5509 22.265 19.5176 22.2593C19.4842 22.2536 19.4606 22.2442 19.4468 22.2312C19.433 22.2181 19.4261 22.2002 19.4261 22.1773V22.0035C19.3366 22.0998 19.2346 22.1749 19.1199 22.2287C19.0052 22.2826 18.878 22.3095 18.7381 22.3095C18.6226 22.3095 18.5165 22.2944 18.4197 22.2642C18.323 22.234 18.2392 22.1891 18.1684 22.1296C18.0977 22.07 18.0428 21.9962 18.0038 21.9081C17.9647 21.82 17.9452 21.7172 17.9452 21.5997C17.9452 21.4724 17.97 21.3619 18.0196 21.268C18.0692 21.1742 18.1432 21.0967 18.2416 21.0355C18.34 20.9743 18.4624 20.9291 18.6088 20.8997C18.7552 20.8703 18.9251 20.8556 19.1187 20.8556H19.3309V20.7235C19.3309 20.6549 19.324 20.595 19.3102 20.5436C19.2964 20.4922 19.2736 20.4493 19.2419 20.4151C19.2102 20.3808 19.1679 20.3555 19.115 20.3392C19.0622 20.3229 18.9967 20.3147 18.9186 20.3147C18.8162 20.3147 18.7247 20.3261 18.6442 20.349C18.5637 20.3718 18.4925 20.3971 18.4307 20.4249C18.3689 20.4526 18.3173 20.4779 18.2758 20.5007C18.2343 20.5236 18.2006 20.535 18.1745 20.535C18.1567 20.535 18.1408 20.5293 18.127 20.5179C18.1131 20.5064 18.1018 20.4901 18.0928 20.4689C18.0839 20.4477 18.077 20.4216 18.0721 20.3906C18.0672 20.3596 18.0648 20.3253 18.0648 20.2878C18.0648 20.2372 18.0688 20.1972 18.077 20.1679C18.0851 20.1385 18.1005 20.112 18.1233 20.0883C18.1461 20.0647 18.1859 20.0386 18.2429 20.01C18.2998 19.9814 18.3665 19.9549 18.4429 19.9305C18.5193 19.906 18.6027 19.886 18.693 19.8705C18.7832 19.855 18.8763 19.8472 18.9723 19.8472ZM5.59808 19.8472C5.78024 19.8472 5.93597 19.8742 6.06527 19.928C6.19457 19.9819 6.30069 20.0565 6.38364 20.152C6.46658 20.2474 6.52757 20.3604 6.56661 20.4909C6.60564 20.6215 6.62516 20.7634 6.62516 20.9168V21.0147C6.62516 21.0898 6.60849 21.1453 6.57515 21.1812C6.5418 21.2171 6.49586 21.235 6.43731 21.235H5.1126C5.1126 21.328 5.12357 21.4125 5.14553 21.4883C5.16749 21.5642 5.20245 21.6287 5.25043 21.6817C5.29841 21.7347 5.36022 21.7751 5.43584 21.8028C5.51147 21.8306 5.60214 21.8444 5.70786 21.8444C5.81521 21.8444 5.90954 21.8367 5.99086 21.8212C6.07218 21.8057 6.14252 21.7886 6.20188 21.7698L6.26824 21.7481L6.32484 21.7279L6.34948 21.7184C6.38852 21.7029 6.42023 21.6951 6.44463 21.6951C6.45926 21.6951 6.47146 21.698 6.48122 21.7037C6.49098 21.7094 6.49911 21.7196 6.50562 21.7343C6.51212 21.749 6.5166 21.7698 6.51904 21.7967C6.52086 21.8169 6.52201 21.841 6.52247 21.869L6.52269 21.8983C6.52269 21.9342 6.52188 21.9648 6.52026 21.9901C6.51863 22.0154 6.51619 22.037 6.51294 22.0549C6.50968 22.0729 6.5048 22.088 6.4983 22.1002C6.49179 22.1125 6.48325 22.1243 6.47268 22.1357C6.46211 22.1471 6.43324 22.1626 6.38608 22.1822C6.33891 22.2018 6.27873 22.221 6.20554 22.2397C6.13236 22.2585 6.0486 22.2748 5.95426 22.2887C5.85993 22.3025 5.75909 22.3095 5.65175 22.3095C5.45821 22.3095 5.28866 22.285 5.14309 22.2361C4.99753 22.1871 4.87595 22.1129 4.77837 22.0133C4.68078 21.9138 4.608 21.7882 4.56002 21.6364C4.51204 21.4847 4.48805 21.3068 4.48805 21.1028C4.48805 20.9087 4.51326 20.7337 4.56368 20.5778C4.6141 20.422 4.68729 20.2898 4.78325 20.1813C4.87921 20.0728 4.9959 19.99 5.13333 19.9329C5.27076 19.8758 5.42568 19.8472 5.59808 19.8472ZM43.8871 19.8472C44.0351 19.8472 44.1599 19.8717 44.2616 19.9207C44.3632 19.9696 44.4454 20.0361 44.508 20.1201C44.5706 20.2042 44.6157 20.3025 44.6434 20.4151C44.671 20.5277 44.6849 20.6631 44.6849 20.8214V22.17C44.6849 22.1863 44.68 22.2006 44.6702 22.2128C44.6605 22.225 44.6442 22.2352 44.6214 22.2434C44.5987 22.2516 44.5674 22.2577 44.5275 22.2618C44.4956 22.265 44.4578 22.267 44.4139 22.2676L44.3799 22.2679C44.3197 22.2679 44.2697 22.2658 44.2299 22.2618C44.19 22.2577 44.1587 22.2516 44.1359 22.2434C44.1132 22.2352 44.0969 22.225 44.0872 22.2128C44.0774 22.2006 44.0725 22.1863 44.0725 22.17V20.9242C44.0725 20.8181 44.0648 20.7349 44.0493 20.6745C44.0339 20.6141 44.0115 20.5623 43.9823 20.5191C43.953 20.4759 43.9152 20.4424 43.8688 20.4187C43.8225 20.3951 43.7684 20.3833 43.7066 20.3833C43.6285 20.3833 43.5496 20.4118 43.4699 20.4689C43.3902 20.526 43.3073 20.6092 43.2211 20.7186V22.17C43.2211 22.1863 43.2162 22.2006 43.2064 22.2128C43.1967 22.225 43.18 22.2352 43.1564 22.2434C43.1329 22.2516 43.1015 22.2577 43.0625 22.2618C43.0313 22.265 42.9933 22.267 42.9485 22.2676L42.9137 22.2679C42.8535 22.2679 42.8039 22.2658 42.7649 22.2618C42.7258 22.2577 42.6945 22.2516 42.671 22.2434C42.6474 22.2352 42.6307 22.225 42.6209 22.2128C42.6112 22.2006 42.6063 22.1863 42.6063 22.17V19.9867C42.6063 19.9704 42.6104 19.9562 42.6185 19.9439C42.6266 19.9317 42.6413 19.9215 42.6624 19.9133C42.6836 19.9052 42.7108 19.899 42.7441 19.895C42.7775 19.8909 42.8194 19.8888 42.8698 19.8888L42.9279 19.8898C42.9549 19.8908 42.9786 19.8925 42.9991 19.895C43.0332 19.899 43.0597 19.9052 43.0784 19.9133C43.0971 19.9215 43.1105 19.9317 43.1186 19.9439C43.1268 19.9562 43.1308 19.9704 43.1308 19.9867V20.2388C43.2512 20.1083 43.3736 20.0104 43.498 19.9451C43.6224 19.8799 43.7521 19.8472 43.8871 19.8472ZM40.671 19.0715L40.8238 19.072L40.9405 19.075C40.9974 19.0775 41.0417 19.0832 41.0734 19.0922C41.1052 19.1011 41.1279 19.1146 41.1418 19.1326C41.1521 19.146 41.1613 19.1631 41.1694 19.184L42.153 22.0133C42.1725 22.0721 42.1847 22.1186 42.1896 22.1528C42.1945 22.1871 42.1879 22.2128 42.1701 22.2299C42.1522 22.2471 42.1204 22.2577 42.0749 22.2618C42.0445 22.2645 42.0066 22.2663 41.9611 22.2672L41.8871 22.2679C41.8041 22.2679 41.7395 22.2666 41.6931 22.2642C41.6468 22.2618 41.6114 22.2569 41.587 22.2495C41.5626 22.2422 41.5455 22.232 41.5358 22.2189C41.526 22.2059 41.5179 22.1887 41.5114 22.1675L41.2991 21.5312H40.1135L39.9134 22.1504C39.9069 22.1732 39.8984 22.1924 39.8878 22.2079C39.8772 22.2234 39.8601 22.2356 39.8366 22.2446C39.813 22.2536 39.7796 22.2597 39.7365 22.263L39.691 22.2656L39.6373 22.2672L39.567 22.2679C39.4922 22.2679 39.4336 22.2654 39.3913 22.2605C39.349 22.2556 39.3198 22.2438 39.3035 22.225C39.2872 22.2063 39.2815 22.1798 39.2864 22.1455C39.2913 22.1112 39.3035 22.0655 39.323 22.0084L40.2964 19.1986C40.3062 19.1709 40.3176 19.1485 40.3306 19.1313C40.3436 19.1142 40.3643 19.1011 40.3928 19.0922C40.4213 19.0832 40.4607 19.0775 40.5111 19.075L40.5989 19.0723L40.671 19.0715ZM37.3844 19.8888C37.4446 19.8888 37.4942 19.8913 37.5332 19.8962C37.5723 19.9011 37.6036 19.908 37.6271 19.917C37.6507 19.926 37.6674 19.9366 37.6772 19.9488C37.6869 19.9611 37.6918 19.9753 37.6918 19.9916V22.17C37.6918 22.1863 37.6869 22.2006 37.6772 22.2128C37.6674 22.225 37.6507 22.2352 37.6271 22.2434C37.6036 22.2516 37.5723 22.2577 37.5332 22.2618C37.502 22.265 37.464 22.267 37.4192 22.2676L37.3844 22.2679C37.3242 22.2679 37.2746 22.2658 37.2356 22.2618C37.1966 22.2577 37.1652 22.2516 37.1417 22.2434C37.1181 22.2352 37.1014 22.225 37.0917 22.2128C37.0819 22.2006 37.077 22.1863 37.077 22.17V19.9916C37.077 19.9753 37.0819 19.9611 37.0917 19.9488C37.1014 19.9366 37.1181 19.926 37.1417 19.917C37.1652 19.908 37.1966 19.9011 37.2356 19.8962C37.2746 19.8913 37.3242 19.8888 37.3844 19.8888ZM34.0674 19.8888C34.1276 19.8888 34.1772 19.8913 34.2162 19.8962C34.2553 19.9011 34.2866 19.908 34.3102 19.917C34.3337 19.926 34.3504 19.9366 34.3602 19.9488C34.3699 19.9611 34.3748 19.9753 34.3748 19.9916V22.17C34.3748 22.1863 34.3699 22.2006 34.3602 22.2128C34.3504 22.225 34.3337 22.2352 34.3102 22.2434C34.2866 22.2516 34.2553 22.2577 34.2162 22.2618C34.185 22.265 34.147 22.267 34.1022 22.2676L34.0674 22.2679C34.0072 22.2679 33.9576 22.2658 33.9186 22.2618C33.8796 22.2577 33.8482 22.2516 33.8247 22.2434C33.8011 22.2352 33.7844 22.225 33.7747 22.2128C33.7649 22.2006 33.76 22.1863 33.76 22.17V19.9916C33.76 19.9753 33.7649 19.9611 33.7747 19.9488C33.7844 19.9366 33.8011 19.926 33.8247 19.917C33.8482 19.908 33.8796 19.9011 33.9186 19.8962C33.9576 19.8913 34.0072 19.8888 34.0674 19.8888ZM29.3653 19.8888C29.4255 19.8888 29.4751 19.8913 29.5141 19.8962C29.5532 19.9011 29.5845 19.908 29.608 19.917C29.6316 19.926 29.6483 19.9366 29.6581 19.9488C29.6678 19.9611 29.6727 19.9753 29.6727 19.9916V22.17C29.6727 22.1863 29.6678 22.2006 29.6581 22.2128C29.6483 22.225 29.6316 22.2352 29.608 22.2434C29.5845 22.2516 29.5532 22.2577 29.5141 22.2618C29.4829 22.265 29.4449 22.267 29.4001 22.2676L29.3653 22.2679C29.3051 22.2679 29.2555 22.2658 29.2165 22.2618C29.1775 22.2577 29.1461 22.2516 29.1226 22.2434C29.099 22.2352 29.0823 22.225 29.0725 22.2128C29.0628 22.2006 29.0579 22.1863 29.0579 22.17V19.9916C29.0579 19.9753 29.0628 19.9611 29.0725 19.9488C29.0823 19.9366 29.099 19.926 29.1226 19.917C29.1461 19.908 29.1775 19.9011 29.2165 19.8962C29.2555 19.8913 29.3051 19.8888 29.3653 19.8888ZM8.45931 19.8472C8.60731 19.8472 8.73214 19.8717 8.83379 19.9207C8.93544 19.9696 9.01758 20.0361 9.08019 20.1201C9.14281 20.2042 9.18794 20.3025 9.21559 20.4151C9.24324 20.5277 9.25706 20.6631 9.25706 20.8214V22.17C9.25706 22.1863 9.25219 22.2006 9.24243 22.2128C9.23267 22.225 9.2164 22.2352 9.19363 22.2434C9.17087 22.2516 9.13956 22.2577 9.09971 22.2618C9.06783 22.265 9.02997 22.267 8.98612 22.2676L8.95211 22.2679C8.89194 22.2679 8.84192 22.2658 8.80208 22.2618C8.76223 22.2577 8.73092 22.2516 8.70815 22.2434C8.68538 22.2352 8.66912 22.225 8.65936 22.2128C8.6496 22.2006 8.64472 22.1863 8.64472 22.17V20.9242C8.64472 20.8181 8.637 20.7349 8.62154 20.6745C8.60609 20.6141 8.58373 20.5623 8.55445 20.5191C8.52518 20.4759 8.48737 20.4424 8.44101 20.4187C8.39466 20.3951 8.34058 20.3833 8.27878 20.3833C8.20071 20.3833 8.12183 20.4118 8.04214 20.4689C7.96244 20.526 7.8795 20.6092 7.79329 20.7186V22.17C7.79329 22.1863 7.78842 22.2006 7.77866 22.2128C7.7689 22.225 7.75223 22.2352 7.72864 22.2434C7.70506 22.2516 7.67375 22.2577 7.63472 22.2618C7.60349 22.265 7.5655 22.267 7.52074 22.2676L7.4859 22.2679C7.42573 22.2679 7.37612 22.2658 7.33709 22.2618C7.29805 22.2577 7.26674 22.2516 7.24316 22.2434C7.21958 22.2352 7.20291 22.225 7.19315 22.2128C7.18339 22.2006 7.17851 22.1863 7.17851 22.17V19.9867C7.17851 19.9704 7.18258 19.9562 7.19071 19.9439C7.19884 19.9317 7.21348 19.9215 7.23462 19.9133C7.25577 19.9052 7.28301 19.899 7.31635 19.895C7.34969 19.8909 7.39157 19.8888 7.44199 19.8888L7.50015 19.8898C7.52708 19.8908 7.5508 19.8925 7.57129 19.895C7.60544 19.899 7.63187 19.9052 7.65058 19.9133C7.66928 19.9215 7.6827 19.9317 7.69083 19.9439C7.69896 19.9562 7.70303 19.9704 7.70303 19.9867V20.2388C7.82338 20.1083 7.94577 20.0104 8.07019 19.9451C8.19461 19.8799 8.32432 19.8472 8.45931 19.8472ZM13.7036 19.8472C13.8516 19.8472 13.9764 19.8717 14.0781 19.9207C14.1797 19.9696 14.2619 20.0361 14.3245 20.1201C14.3871 20.2042 14.4322 20.3025 14.4599 20.4151C14.4875 20.5277 14.5014 20.6631 14.5014 20.8214V22.17C14.5014 22.1863 14.4965 22.2006 14.4867 22.2128C14.477 22.225 14.4607 22.2352 14.4379 22.2434C14.4152 22.2516 14.3839 22.2577 14.344 22.2618C14.3121 22.265 14.2743 22.267 14.2304 22.2676L14.1964 22.2679C14.1362 22.2679 14.0862 22.2658 14.0464 22.2618C14.0065 22.2577 13.9752 22.2516 13.9524 22.2434C13.9297 22.2352 13.9134 22.225 13.9037 22.2128C13.8939 22.2006 13.889 22.1863 13.889 22.17V20.9242C13.889 20.8181 13.8813 20.7349 13.8658 20.6745C13.8504 20.6141 13.828 20.5623 13.7988 20.5191C13.7695 20.4759 13.7317 20.4424 13.6853 20.4187C13.639 20.3951 13.5849 20.3833 13.5231 20.3833C13.445 20.3833 13.3661 20.4118 13.2864 20.4689C13.2067 20.526 13.1238 20.6092 13.0376 20.7186V22.17C13.0376 22.1863 13.0327 22.2006 13.023 22.2128C13.0132 22.225 12.9965 22.2352 12.9729 22.2434C12.9494 22.2516 12.918 22.2577 12.879 22.2618C12.8478 22.265 12.8098 22.267 12.765 22.2676L12.7302 22.2679C12.67 22.2679 12.6204 22.2658 12.5814 22.2618C12.5423 22.2577 12.511 22.2516 12.4875 22.2434C12.4639 22.2352 12.4472 22.225 12.4374 22.2128C12.4277 22.2006 12.4228 22.1863 12.4228 22.17V19.9867C12.4228 19.9704 12.4269 19.9562 12.435 19.9439C12.4431 19.9317 12.4578 19.9215 12.4789 19.9133C12.5001 19.9052 12.5273 19.899 12.5606 19.895C12.594 19.8909 12.6359 19.8888 12.6863 19.8888L12.7444 19.8898C12.7714 19.8908 12.7951 19.8925 12.8156 19.895C12.8497 19.899 12.8762 19.9052 12.8949 19.9133C12.9136 19.9215 12.927 19.9317 12.9351 19.9439C12.9433 19.9562 12.9473 19.9704 12.9473 19.9867V20.2388C13.0677 20.1083 13.1901 20.0104 13.3145 19.9451C13.4389 19.8799 13.5686 19.8472 13.7036 19.8472ZM23.8872 21.2423H23.653C23.5538 21.2423 23.4693 21.2497 23.3993 21.2644C23.3294 21.2791 23.2725 21.3011 23.2285 21.3305C23.1846 21.3598 23.1525 21.3953 23.1322 21.4369C23.1119 21.4785 23.1017 21.5263 23.1017 21.5801C23.1017 21.6715 23.1306 21.7433 23.1883 21.7955C23.246 21.8477 23.3261 21.8738 23.4286 21.8738C23.5148 21.8738 23.5941 21.8518 23.6665 21.8077C23.7388 21.7637 23.8124 21.6992 23.8872 21.6144V21.2423ZM19.3309 21.2423H19.0967C18.9975 21.2423 18.9129 21.2497 18.843 21.2644C18.7731 21.2791 18.7161 21.3011 18.6722 21.3305C18.6283 21.3598 18.5962 21.3953 18.5759 21.4369C18.5555 21.4785 18.5454 21.5263 18.5454 21.5801C18.5454 21.6715 18.5742 21.7433 18.632 21.7955C18.6897 21.8477 18.7698 21.8738 18.8723 21.8738C18.9585 21.8738 19.0378 21.8518 19.1101 21.8077C19.1825 21.7637 19.2561 21.6992 19.3309 21.6144V21.2423ZM49.3168 21.2423H49.0826C48.9834 21.2423 48.8988 21.2497 48.8289 21.2644C48.759 21.2791 48.702 21.3011 48.6581 21.3305C48.6142 21.3598 48.5821 21.3953 48.5617 21.4369C48.5414 21.4785 48.5313 21.5263 48.5313 21.5801C48.5313 21.6715 48.5601 21.7433 48.6179 21.7955C48.6756 21.8477 48.7557 21.8738 48.8582 21.8738C48.9444 21.8738 49.0237 21.8518 49.096 21.8077C49.1581 21.77 49.221 21.7172 49.2848 21.6495L49.3168 21.6144V21.2423ZM11.1595 21.2423H10.9253C10.8261 21.2423 10.7415 21.2497 10.6716 21.2644C10.6017 21.2791 10.5447 21.3011 10.5008 21.3305C10.4569 21.3598 10.4248 21.3953 10.4045 21.4369C10.3841 21.4785 10.374 21.5263 10.374 21.5801C10.374 21.6715 10.4028 21.7433 10.4606 21.7955C10.5183 21.8477 10.5984 21.8738 10.7009 21.8738C10.7871 21.8738 10.8664 21.8518 10.9387 21.8077C11.0111 21.7637 11.0847 21.6992 11.1595 21.6144V21.2423ZM46.2848 20.3686C46.2051 20.3686 46.1364 20.3886 46.0787 20.4285C46.0209 20.4685 45.9746 20.5219 45.9396 20.5888C45.9046 20.6557 45.8786 20.7304 45.8615 20.8128C45.8445 20.8952 45.8359 20.9796 45.8359 21.0661C45.8359 21.1575 45.8432 21.2464 45.8579 21.3329C45.8725 21.4194 45.8965 21.4965 45.9298 21.5642C45.9632 21.6319 46.0075 21.6862 46.0628 21.727C46.1181 21.7678 46.188 21.7882 46.2726 21.7882C46.3149 21.7882 46.356 21.782 46.3958 21.7698C46.4357 21.7576 46.4763 21.7376 46.5178 21.7098C46.5593 21.6821 46.602 21.6458 46.6459 21.6009C46.6898 21.556 46.7378 21.501 46.7898 21.4357V20.7112C46.702 20.6003 46.6178 20.5154 46.5373 20.4567C46.4568 20.3979 46.3726 20.3686 46.2848 20.3686ZM27.2774 20.3686C27.1977 20.3686 27.129 20.3886 27.0713 20.4285C27.0135 20.4685 26.9672 20.5219 26.9322 20.5888C26.8973 20.6557 26.8712 20.7304 26.8542 20.8128C26.8371 20.8952 26.8285 20.9796 26.8285 21.0661C26.8285 21.1575 26.8359 21.2464 26.8505 21.3329C26.8651 21.4194 26.8891 21.4965 26.9225 21.5642C26.9558 21.6319 27.0001 21.6862 27.0554 21.727C27.1107 21.7678 27.1807 21.7882 27.2652 21.7882C27.3075 21.7882 27.3486 21.782 27.3884 21.7698C27.4283 21.7576 27.4689 21.7376 27.5104 21.7098C27.5519 21.6821 27.5946 21.6458 27.6385 21.6009C27.6824 21.556 27.7304 21.501 27.7824 21.4357V20.7112C27.6946 20.6003 27.6104 20.5154 27.5299 20.4567C27.4494 20.3979 27.3653 20.3686 27.2774 20.3686ZM40.7038 19.6906H40.7014L40.255 21.0368H41.1503L40.7038 19.6906ZM5.58344 20.2829C5.50537 20.2829 5.43747 20.2976 5.37973 20.327C5.322 20.3563 5.27402 20.3959 5.2358 20.4457C5.19758 20.4954 5.1683 20.5542 5.14797 20.6219C5.12764 20.6896 5.11585 20.7618 5.1126 20.8385H6.02989C6.03477 20.6655 6.00021 20.5297 5.92621 20.431C5.85221 20.3323 5.73795 20.2829 5.58344 20.2829ZM17.0816 19.0193C17.2183 19.0193 17.311 19.0425 17.3598 19.089C17.4086 19.1355 17.4329 19.2183 17.4329 19.3374C17.4329 19.4614 17.4077 19.5471 17.3573 19.5944C17.3069 19.6418 17.2134 19.6654 17.0768 19.6654C16.9385 19.6654 16.8454 19.6426 16.7974 19.5969C16.7494 19.5512 16.7255 19.4688 16.7255 19.3497C16.7255 19.2257 16.7503 19.1396 16.7999 19.0915C16.8495 19.0433 16.9434 19.0193 17.0816 19.0193ZM29.3677 18.9294C29.5044 18.9294 29.5971 18.9527 29.6459 18.9992C29.6947 19.0457 29.719 19.1285 29.719 19.2476C29.719 19.3716 29.6938 19.4573 29.6434 19.5046C29.593 19.5519 29.4995 19.5756 29.3629 19.5756C29.2246 19.5756 29.1315 19.5527 29.0835 19.507C29.0355 19.4613 29.0116 19.3789 29.0116 19.2598C29.0116 19.1358 29.0364 19.0497 29.086 19.0016C29.1356 18.9535 29.2295 18.9294 29.3677 18.9294ZM34.0698 18.9294C34.2065 18.9294 34.2992 18.9527 34.348 18.9992C34.3968 19.0457 34.4212 19.1285 34.4212 19.2476C34.4212 19.3716 34.3959 19.4573 34.3455 19.5046C34.2951 19.5519 34.2016 19.5756 34.065 19.5756C33.9267 19.5756 33.8336 19.5527 33.7856 19.507C33.7377 19.4613 33.7137 19.3789 33.7137 19.2598C33.7137 19.1358 33.7385 19.0497 33.7881 19.0016C33.8377 18.9535 33.9316 18.9294 34.0698 18.9294ZM37.3868 18.9294C37.5235 18.9294 37.6162 18.9527 37.665 18.9992C37.7138 19.0457 37.7381 19.1285 37.7381 19.2476C37.7381 19.3716 37.7129 19.4573 37.6625 19.5046C37.6121 19.5519 37.5186 19.5756 37.382 19.5756C37.2437 19.5756 37.1506 19.5527 37.1026 19.507C37.0546 19.4613 37.0307 19.3789 37.0307 19.2598C37.0307 19.1358 37.0555 19.0497 37.1051 19.0016C37.1547 18.9535 37.2486 18.9294 37.3868 18.9294ZM7.78107 0C9.83049 0 12.0194 0.525205 14.1099 1.52151L14.1635 1.54546L14.1884 1.59993C15.1572 3.65047 15.6682 5.85207 15.6682 7.97103C15.6682 10.0356 15.1987 12.0997 14.27 14.1069L14.1819 14.2945L14.1279 14.3195C12.198 15.2359 10.0217 15.721 7.83473 15.721C5.77038 15.721 3.64901 15.2111 1.53044 14.2022L1.47842 14.1766L1.45359 14.1234C0.502849 12.11 0 9.90787 0 7.75332C0 5.60198 0.48218 3.49403 1.43361 1.48327L1.45975 1.42983L1.51269 1.40324C3.47261 0.471771 5.58085 0 7.78107 0ZM7.78107 0.332447C5.65093 0.332447 3.60924 0.785667 1.70867 1.67992C0.796379 3.62878 0.332016 5.67096 0.332016 7.75332C0.332016 9.8395 0.814515 11.9737 1.7265 13.9261C3.7846 14.8974 5.83729 15.388 7.83473 15.388C9.95258 15.388 12.0589 14.9234 13.9338 14.043C14.8654 12.0573 15.3373 10.0135 15.3373 7.97103C15.3373 5.92008 14.8446 3.78691 13.9125 1.79659C11.8838 0.839777 9.76497 0.332447 7.78107 0.332447ZM7.24755 13.28L7.73394 13.3011C7.96384 13.3125 8.02394 13.5007 8.01682 13.6805C8.01005 13.7897 7.97613 13.9118 7.88123 13.978C7.80333 14.0343 7.70322 14.0476 7.61056 14.043L7.45202 14.0343L7.42039 14.5666L7.17135 14.5502L7.24755 13.28ZM38.8113 1.2445L41.4761 2.65549L39.543 6.17572C38.8133 5.58121 37.9223 5.14378 36.7856 5.14378C34.0955 5.14378 33.0026 7.15552 33.0026 8.5727C33.0026 9.62472 33.6892 11.1767 36.0829 11.1767C37.0876 11.1767 38.5159 10.4755 38.927 10.1564L37.0152 14.2404L36.7591 14.293L36.1929 14.4149C35.8139 14.4949 35.5159 14.5448 35.0329 14.5598C30.7487 14.6881 29.0174 12.0476 29.0187 9.34964C29.0216 5.78273 32.1824 1.44506 37.4224 1.44506C37.7435 1.44506 38.1362 1.55647 38.472 1.67992L38.8113 1.2445ZM9.55534 13.259C9.60414 13.3186 9.62288 13.369 9.6339 13.4412L9.63771 13.4693C9.65357 13.5781 9.62217 13.7038 9.50016 13.7663V13.7702C9.63639 13.7702 9.71877 13.8685 9.74267 14.0343L9.74806 14.0912C9.75105 14.1308 9.75267 14.1804 9.74619 14.2245C9.71848 14.3923 9.61865 14.4465 9.45006 14.4701L9.03343 14.5268L8.85976 13.2548L9.27923 13.191C9.3813 13.177 9.5056 13.1948 9.55534 13.259ZM6.05298 13.1468L6.30815 13.176L6.19507 14.0732L6.19206 14.1044C6.18589 14.1889 6.19875 14.281 6.33237 14.2945C6.48057 14.3058 6.51418 14.2073 6.53095 14.0848L6.6392 13.2175L6.89232 13.247L6.7832 14.1353C6.73021 14.417 6.62173 14.54 6.31298 14.5016C5.99876 14.4618 5.92416 14.3182 5.94317 14.0343L6.05298 13.1468ZM4.62754 14.1989L4.90041 12.9354L5.33673 13.0341C5.59214 13.0895 5.66931 13.2036 5.63319 13.4385C5.61357 13.5662 5.55313 13.7032 5.40926 13.7073L5.38863 13.7067L5.4057 13.7132C5.51307 13.7577 5.52801 13.8198 5.51129 13.9194L5.50725 13.9413C5.49688 13.9922 5.42584 14.301 5.47493 14.3508L5.47653 14.3888L5.21171 14.3195C5.20562 14.2719 5.21448 14.2033 5.2261 14.137L5.26278 13.9429C5.27357 13.8768 5.27546 13.8044 5.21556 13.7731C5.15586 13.7411 5.13359 13.7427 5.06611 13.7272L4.99728 13.7132L4.88359 14.2544L4.62754 14.1989ZM10.7278 13.219L10.7367 13.2483C10.7457 13.2797 10.757 13.3108 10.7612 13.3425L10.5313 13.3902L10.5151 13.3404L10.5031 13.3067C10.4771 13.239 10.4382 13.1729 10.3662 13.1811C10.1806 13.2036 10.2419 13.4352 10.261 13.5322L10.3367 13.912C10.3597 14.0159 10.4074 14.1508 10.5526 14.1215C10.6831 14.0952 10.6262 13.8915 10.6146 13.8079L10.8503 13.7618C10.8536 13.7854 10.8574 13.8117 10.8588 13.8354C10.8927 14.0674 10.8503 14.2595 10.5904 14.3124C10.2177 14.3842 10.1372 14.1613 10.0711 13.8419L10.0288 13.6303L10.0154 13.5448L10.0081 13.4901C9.97811 13.2397 10.01 13.0552 10.3278 12.9917C10.529 12.9549 10.6651 13.0296 10.7278 13.219ZM9.28667 13.9082L9.19494 13.9225L9.25308 14.3061L9.35294 14.2924C9.38554 14.2876 9.4167 14.2808 9.44297 14.264C9.5034 14.2245 9.49787 14.1399 9.48947 14.077C9.46848 13.9391 9.43264 13.8866 9.28667 13.9082ZM21.0829 1.35494L24.6637 1.34999L26.0434 1.35275C26.188 1.35336 26.3232 1.35409 26.4467 1.35494C28.4642 1.36627 29.6043 2.46498 29.6043 4.05194C29.6043 5.51512 28.4019 6.81013 27.082 7.47981C28.4409 7.98103 28.5584 9.21128 28.5584 10.0815C28.5584 12.1844 26.4555 14.149 23.7216 14.149H17.7598L20.0854 5.14025L19.1301 5.1347L21.0829 1.35494ZM49.4526 1.35494L50 14.149H45.9261L45.9237 11.9549H43.1458L42.2315 14.149H37.8132L42.4324 5.01289L41.3908 5.00615L43.3698 1.35494H49.4526ZM11.4485 12.7358L12.096 13.8807L11.8528 13.9536L11.6994 13.6627L11.4294 13.744L11.4643 14.0748L11.2192 14.1467L11.1397 12.8303L11.4485 12.7358ZM4.14372 12.714C4.34106 12.7694 4.46344 12.8566 4.45763 13.0866C4.45667 13.1378 4.43985 13.19 4.42888 13.2405L4.19931 13.177L4.20823 13.1378C4.2314 13.0293 4.23194 12.9441 4.09239 12.901C3.91214 12.8513 3.86829 13.0707 3.84339 13.1654L3.74157 13.5413L3.73342 13.5768C3.71386 13.6743 3.71585 13.7908 3.84339 13.826C3.97453 13.8613 4.05398 13.7323 4.10144 13.5438L3.94094 13.501L3.99644 13.3014L4.37398 13.4232L4.19478 14.0884L4.02103 14.0411L4.06011 13.9004H4.05522C3.97513 14.0155 3.87758 14.0275 3.79205 14.011C3.43743 13.9148 3.45067 13.6905 3.52827 13.3894L3.59182 13.1514L3.61813 13.069L3.63604 13.0169C3.72109 12.7794 3.83083 12.628 4.14372 12.714ZM7.48265 13.4732L7.45915 13.8405L7.58798 13.8477C7.69261 13.8516 7.76201 13.8101 7.77106 13.6559C7.77623 13.5078 7.72036 13.4826 7.58474 13.4767L7.48265 13.4732ZM9.25672 13.3692L9.12582 13.3902L9.16915 13.7161L9.21564 13.7113L9.25487 13.7051C9.30241 13.697 9.35334 13.6837 9.3777 13.6426L9.38893 13.6195C9.4018 13.5924 9.4121 13.5619 9.40129 13.5007C9.38526 13.4135 9.35729 13.3574 9.25672 13.3692ZM5.1126 13.176L5.04084 13.5175L5.21332 13.5641C5.31796 13.5794 5.3761 13.525 5.3968 13.398C5.4155 13.2816 5.39128 13.2362 5.29733 13.2137L5.1126 13.176ZM11.3429 12.9421L11.4068 13.5315L11.6019 13.4747L11.3429 12.9421ZM7.6802 1.42957L7.74738 1.42811L7.76412 1.42832C9.0994 1.45019 10.2428 2.34549 10.2378 3.88087C10.2355 5.18822 9.18853 5.88807 8.81126 6.38801C8.24583 7.14125 7.92904 7.99891 7.90866 9.36354L7.90376 9.80107L7.90175 10.199C7.90048 10.6911 7.90357 11.1553 7.90692 11.4996L7.9119 11.9351H7.6122L7.60122 10.5197L7.59757 10.2107C7.5941 9.94785 7.58947 9.67299 7.58317 9.39725C7.5515 8.0329 7.24563 7.14125 6.68048 6.38801C6.30651 5.88807 5.25856 5.18818 5.25429 3.88087C5.25027 2.36493 6.36552 1.47296 7.6802 1.42957ZM11.033 5.30842L11.0674 5.31196C11.857 5.38065 12.5181 5.7037 12.8743 6.63292C13.2034 7.49893 12.9073 8.65075 11.8137 8.92097L11.6373 8.96527L11.459 9.01139C10.5004 9.26332 9.90738 9.48865 9.46368 9.7935C8.85808 10.2105 8.39792 11.0076 8.3837 11.9338L8.12566 11.9329L8.12512 9.9781L8.12912 9.56233C8.13036 9.49767 8.13189 9.45039 8.13375 9.42513C8.12063 6.95783 9.88955 5.21016 11.033 5.30842ZM12.7971 8.65565C13.0955 8.95601 13.1494 9.63115 13.0971 10.0258C13.0351 10.4823 12.5045 11.2349 11.7052 11.2644C11.2976 11.2809 10.7977 11.1965 10.4717 11.1314L10.2994 11.0957C9.7898 10.9848 8.97825 11.3062 8.84879 11.9329L8.61452 11.9338C8.6104 11.1306 9.05702 10.4204 9.63935 10.0388C10.1596 9.70145 10.8559 9.47985 11.9768 9.19441C12.3243 9.10533 12.6866 8.90768 12.7971 8.65565ZM7.35868 9.42513L7.36025 9.45267L7.36349 9.56601C7.36848 9.82271 7.36916 10.3467 7.36877 10.8576L7.3674 11.9329L7.1416 11.9338C7.12847 11.0076 6.63366 10.2105 6.02747 9.7935C5.53276 9.45269 4.84903 9.21128 3.6784 8.92097C2.58354 8.65075 2.28909 7.49893 2.61845 6.63292C2.96644 5.72266 3.60852 5.39409 4.37681 5.31649L4.42499 5.31196C5.56599 5.17492 7.37222 6.93291 7.35868 9.42513ZM2.6937 8.65565C2.80606 8.90768 3.16879 9.10533 3.51558 9.19441L3.79484 9.26651L3.97659 9.31485C4.83511 9.5464 5.40809 9.75026 5.85116 10.0388C6.42119 10.4113 6.86063 11.097 6.87768 11.8766L6.87817 11.9338L6.64208 11.9329C6.51589 11.3193 5.73733 10.9984 5.22469 11.0893L5.07248 11.1207L4.95751 11.1436C4.63267 11.2066 4.17098 11.2799 3.78849 11.2644C2.98755 11.2349 2.45567 10.4823 2.39496 10.0258C2.34267 9.63115 2.39661 8.95601 2.6937 8.65565ZM24.2333 8.80306H22.7917L22.2459 10.9058H23.6417C24.1907 10.9058 24.939 10.6323 25.1223 9.94801C25.3034 9.26182 24.7803 8.80306 24.2333 8.80306ZM45.8973 5.26889L44.3266 8.99031H45.9447L45.8973 5.26889ZM23.7992 4.7174L23.3859 6.54216H24.4674C24.8847 6.54216 25.6216 6.43622 25.8058 5.62593C26.0077 4.74625 25.3161 4.72259 24.9844 4.72259L23.7992 4.7174Z" fill="#0066AE"/>
</g>
<defs>
<clipPath id="clip0_148_1673">
<rect width="50" height="16" fill="white"/>
</clipPath>
</defs>
</svg>
