<svg width="50" height="16" viewBox="0 0 50 16" fill="none" xmlns="http://www.w3.org/2000/svg">
<rect width="50" height="16" rx="8" fill="white"/>
<path fill-rule="evenodd" clip-rule="evenodd" d="M0.741211 6.3877L4.78711 11.4914L0.741211 14.8441V6.3877Z" fill="#F15A23"/>
<path fill-rule="evenodd" clip-rule="evenodd" d="M2.36914 14.8441L5.41348 12.2974L7.51766 14.8441H2.36914Z" fill="#F15A23"/>
<path fill-rule="evenodd" clip-rule="evenodd" d="M0.741211 3.65666L1.79704 4.99224L6.13822 10.4169L7.54492 9.2967C7.54492 9.2967 6.37711 7.92183 5.59297 6.38762C4.05989 3.38805 5.14527 1.52051 5.14527 1.52051H0.741211V3.65666Z" fill="#F15A23"/>
<path fill-rule="evenodd" clip-rule="evenodd" d="M6.75684 11.2541L8.18947 10.0708C8.18947 10.0708 9.55773 11.8719 11.1443 12.297C13.2233 12.8541 14.1438 11.4912 14.1438 11.4912V14.8438H9.57733L10.607 13.9535C10.607 13.9535 10.0698 14.3117 8.75588 13.4016C7.98038 12.8644 6.75684 11.2541 6.75684 11.2541Z" fill="#F15A23"/>
<path fill-rule="evenodd" clip-rule="evenodd" d="M6.88824 1.51074C6.88824 1.51074 6.43121 2.13333 6.75653 3.65667C7.10425 5.2849 8.48716 7.00821 8.48394 6.96962C8.48394 6.96962 8.57285 5.25846 9.57702 4.25429C11.7174 2.11389 14.1435 3.38805 14.1435 3.38805V1.52051L6.88824 1.51074Z" fill="#F15A23"/>
<path fill-rule="evenodd" clip-rule="evenodd" d="M14.1436 5.64428C14.1436 5.64428 12.7901 4.48486 11.6132 4.48486C10.1078 4.48486 9.28613 5.78453 9.28613 6.7273C9.28613 8.10051 9.94526 8.86354 10.6068 9.52512C11.5576 10.4758 12.7142 11.5012 14.1436 10.6759C14.1436 9.11398 14.1436 5.64428 14.1436 5.64428Z" fill="#F15A23"/>
<path fill-rule="evenodd" clip-rule="evenodd" d="M29.5596 1.65039H32.7537C32.7537 1.65039 35.5833 5.93481 36.9739 7.70495C38.3645 9.47509 39.8614 11.4913 39.8614 11.4913C39.8614 11.4913 39.8614 5.64444 39.8614 2.60988C39.8614 2.2263 38.8542 1.65039 38.8542 1.65039H42.5375C42.5375 1.65039 41.329 2.14694 41.329 2.60988C41.329 6.38759 41.329 15.5303 41.329 15.5303C41.329 15.5303 40.1693 14.8872 38.8542 13.3591C37.3767 11.6422 32.1206 4.71053 32.1206 4.71053C32.1206 4.71053 32.1206 11.2543 32.1206 13.6886C32.1206 14.1484 33.1278 14.8439 33.1278 14.8439H29.5596C29.5596 14.8439 30.538 14.1428 30.538 13.6886C30.538 10.4169 30.538 5.64444 30.538 2.60988C30.538 2.20216 29.5596 1.65039 29.5596 1.65039Z" fill="#005E6A"/>
<path fill-rule="evenodd" clip-rule="evenodd" d="M44.6006 1.65039H48.7C48.7 1.65039 47.5993 2.17181 47.5993 2.60988C47.5993 5.64444 47.5993 10.6761 47.5993 13.6886C47.5993 14.1674 48.7 14.8439 48.7 14.8439H44.6006C44.6006 14.8439 45.6254 14.152 45.6254 13.6886C45.6254 10.071 45.6254 5.64444 45.6254 2.60988C45.6254 2.18871 44.6006 1.65039 44.6006 1.65039Z" fill="#005E6A"/>
<path fill-rule="evenodd" clip-rule="evenodd" d="M17.498 1.65039C17.498 1.65039 18.5609 2.18033 18.5609 2.60988C18.5609 5.64444 18.5609 10.071 18.5609 13.6886C18.5609 14.1596 17.498 14.8439 17.498 14.8439C17.498 14.8439 22.8076 14.8439 23.5713 14.8439C23.9509 14.8439 28.2022 14.1488 28.2022 10.8712C28.2022 7.59365 24.8998 7.28675 24.8998 7.28675C24.8998 7.28675 26.9116 6.72747 26.9116 4.48503C26.9116 2.06793 23.9509 1.65039 23.5713 1.65039C22.7825 1.65039 17.498 1.65039 17.498 1.65039ZM20.7245 7.06954V2.94483C20.7245 2.94483 22.4849 2.94483 23.1917 2.94483C23.5713 2.94483 24.8998 3.38802 24.8998 5.0323C24.8998 6.38759 23.5713 7.06954 23.1917 7.06954C22.3312 7.06954 20.7245 7.06954 20.7245 7.06954ZM20.7245 8.15135C20.7245 8.15135 23.1917 8.15135 23.5713 8.15135C23.9509 8.15135 26.1904 8.73306 26.1904 10.6761C26.1904 12.6571 23.9509 13.3591 23.5713 13.3591C23.1917 13.3591 20.7245 13.3591 20.7245 13.3591V8.15135Z" fill="#005E6A"/>
</svg>
