<svg width="22" height="22" viewBox="0 0 22 22" fill="none" xmlns="http://www.w3.org/2000/svg">
<path d="M21.0125 9.50001L14.675 6.34251C14.5713 6.29097 14.4571 6.26415 14.3413 6.26415C14.2254 6.26415 14.1112 6.29097 14.0075 6.34251L13.2575 6.71751V5.75001C13.2575 4.35762 12.7044 3.02226 11.7198 2.03769C10.7352 1.05313 9.39989 0.500005 8.0075 0.500005C7.31743 0.49902 6.63393 0.634087 5.99611 0.897483C5.35828 1.16088 4.77864 1.54744 4.29034 2.03504C3.80204 2.52265 3.41466 3.10174 3.15035 3.73918C2.88604 4.37663 2.75 5.05993 2.75 5.75001V7.25001C2.15326 7.25001 1.58097 7.48706 1.15901 7.90902C0.737053 8.33097 0.5 8.90327 0.5 9.50001V19.25C0.5 19.8467 0.737053 20.419 1.15901 20.841C1.58097 21.263 2.15326 21.5 2.75 21.5H13.25C13.4899 21.4978 13.7279 21.4573 13.955 21.38C14.0693 21.454 14.2015 21.4955 14.3375 21.5C14.5234 21.4995 14.7025 21.43 14.84 21.305L15.8225 20.42C17.4386 18.9515 18.7729 17.2003 19.76 15.2525C19.76 15.2525 19.76 15.215 19.76 15.1925C20.5329 13.6537 21.081 12.012 21.3875 10.3175C21.4218 10.159 21.4037 9.99369 21.3361 9.84631C21.2685 9.69892 21.155 9.57742 21.0125 9.50001ZM4.25 5.75001C4.25 4.75544 4.64509 3.80162 5.34835 3.09836C6.05161 2.39509 7.00544 2.00001 8 2.00001C8.99456 2.00001 9.94839 2.39509 10.6517 3.09836C11.3549 3.80162 11.75 4.75544 11.75 5.75001V7.25001H4.25V5.75001ZM2 19.25V9.50001C2 9.30109 2.07902 9.11033 2.21967 8.96968C2.36032 8.82902 2.55109 8.75001 2.75 8.75001H9.185L7.685 9.50001C7.53145 9.56792 7.40513 9.68539 7.32627 9.8336C7.2474 9.98182 7.22054 10.1522 7.25 10.3175C7.93288 14.0039 9.74378 17.3872 12.4325 20H2.75C2.55109 20 2.36032 19.921 2.21967 19.7803C2.07902 19.6397 2 19.4489 2 19.25ZM18.5 14.4575C18.4858 14.4764 18.4733 14.4965 18.4625 14.5175C17.5562 16.3238 16.3258 17.9483 14.8325 19.31L14.3525 19.7375L13.9625 19.3925C11.3867 17.0636 9.60349 13.9876 8.8625 10.595L14.3525 7.85001L19.85 10.595C19.5596 11.9328 19.1062 13.23 18.5 14.4575Z" fill="#64748B"/>
<path d="M10.5879 11.2102C10.5936 12.4783 10.8917 13.728 11.4588 14.8622C12.0259 15.9965 12.8469 16.9847 13.8579 17.7502L14.8254 16.6027C13.9771 15.9756 13.2876 15.1584 12.8122 14.2168C12.3368 13.2751 12.0887 12.2351 12.0879 11.1802L10.5879 11.2102Z" fill="#64748B"/>
</svg>
