<svg width="56" height="56" viewBox="0 0 56 56" fill="none" xmlns="http://www.w3.org/2000/svg">
<rect x="0.5" y="0.5" width="55" height="55" rx="5.5" stroke="#CBD5E1"/>
<path d="M38.6663 25.3333C38.6663 33.3333 27.9997 41.3333 27.9997 41.3333C27.9997 41.3333 17.333 33.3333 17.333 25.3333C17.333 22.5044 18.4568 19.7913 20.4572 17.7909C22.4576 15.7905 25.1707 14.6667 27.9997 14.6667C30.8287 14.6667 33.5418 15.7905 35.5421 17.7909C37.5425 19.7913 38.6663 22.5044 38.6663 25.3333Z" stroke="#334155" stroke-width="2" stroke-linecap="round" stroke-linejoin="round"/>
<path d="M28 29.3333C30.2091 29.3333 32 27.5425 32 25.3333C32 23.1242 30.2091 21.3333 28 21.3333C25.7909 21.3333 24 23.1242 24 25.3333C24 27.5425 25.7909 29.3333 28 29.3333Z" stroke="#334155" stroke-width="2" stroke-linecap="round" stroke-linejoin="round"/>
</svg>
