<svg width="56" height="56" viewBox="0 0 56 56" fill="none" xmlns="http://www.w3.org/2000/svg">
<path d="M32.1608 15.9824V7.9408C32.1795 7.69296 32.2912 7.46135 32.4734 7.29235C32.6557 7.12335 32.8951 7.02944 33.1436 7.02944C33.3921 7.02944 33.6315 7.12335 33.8138 7.29235C33.996 7.46135 34.1077 7.69296 34.1264 7.9408V9.8448C34.125 9.92442 34.1428 10.0032 34.1781 10.0746C34.2135 10.1459 34.2654 10.2078 34.3295 10.2549C34.3937 10.3021 34.4682 10.3332 34.5469 10.3456C34.6255 10.3581 34.706 10.3515 34.7816 10.3264L39.2616 8.3608C39.3539 8.32767 39.4337 8.26686 39.4901 8.18668C39.5465 8.10649 39.5768 8.01084 39.5768 7.9128C39.5768 7.81476 39.5465 7.71912 39.4901 7.63893C39.4337 7.55874 39.3539 7.49793 39.2616 7.4648L32.7768 4.6648C31.5896 4.1888 32.3624 2.4248 33.5496 2.8784L43.0696 7.0504C43.2476 7.12226 43.4001 7.24568 43.5075 7.40484C43.6149 7.56399 43.6723 7.75161 43.6723 7.9436C43.6723 8.1356 43.6149 8.32322 43.5075 8.48237C43.4001 8.64152 43.2476 8.76495 43.0696 8.8368L34.384 12.5888C34.3047 12.6224 34.2387 12.6813 34.1962 12.7562C34.1537 12.8311 34.137 12.9179 34.1488 13.0032V16.1616C34.1408 16.2255 34.1473 16.2903 34.1676 16.3513C34.188 16.4124 34.2217 16.4681 34.2664 16.5144L40.096 23.0104C40.1576 23.128 40.2136 23.184 40.2752 23.3072L53.1552 51.772C53.2376 51.9269 53.2766 52.1012 53.2681 52.2765C53.2596 52.4517 53.204 52.6214 53.107 52.7677C53.0101 52.914 52.8755 53.0313 52.7174 53.1074C52.5593 53.1835 52.3836 53.2155 52.2088 53.2H3.78C3.52752 53.2 3.28537 53.0997 3.10684 52.9212C2.9283 52.7426 2.828 52.5005 2.828 52.248C2.828 51.9955 2.9283 51.7534 3.10684 51.5748C3.28537 51.3963 3.52752 51.296 3.78 51.296H5.628C5.75566 51.2932 5.87916 51.2501 5.9808 51.1728L14.196 43.4336C14.2682 43.3512 14.3097 43.2463 14.3136 43.1368L15.9936 33.3704C15.9995 33.2563 16.0289 33.1447 16.08 33.0426C16.1311 32.9404 16.2027 32.85 16.2904 32.7768L21.5264 28.1904C21.6316 28.0823 21.7602 27.9997 21.9023 27.9491C22.0444 27.8985 22.1962 27.8811 22.3461 27.8985C22.4959 27.9158 22.6398 27.9673 22.7666 28.0489C22.8935 28.1306 22.9999 28.2403 23.0776 28.3696L30.24 40.88C30.3094 40.9877 30.3553 41.1089 30.3748 41.2355C30.3943 41.3622 30.3869 41.4915 30.3531 41.6152C30.3193 41.7388 30.2598 41.8539 30.1786 41.953C30.0974 42.0521 29.9962 42.133 29.8816 42.1904C29.7734 42.2563 29.6528 42.2994 29.5273 42.317C29.4018 42.3347 29.274 42.3264 29.1518 42.2929C29.0296 42.2593 28.9156 42.2011 28.8167 42.1218C28.7178 42.0426 28.6362 41.944 28.5768 41.832L22.2264 30.8672C22.1896 30.8094 22.141 30.76 22.0837 30.7222C22.0265 30.6844 21.962 30.6592 21.8943 30.6481C21.8266 30.637 21.7574 30.6403 21.6911 30.6578C21.6248 30.6753 21.563 30.7066 21.5096 30.7496L17.92 33.908C17.8452 33.997 17.7848 34.0972 17.7408 34.2048L16.156 43.9712C16.1262 44.187 16.0211 44.3854 15.8592 44.5312C13.8376 46.5584 11.6368 48.524 9.5536 50.4896C9.48359 50.5584 9.43599 50.6468 9.41705 50.7431C9.3981 50.8394 9.40869 50.9392 9.44744 51.0294C9.48618 51.1196 9.55126 51.196 9.63416 51.2485C9.71705 51.3011 9.8139 51.3274 9.912 51.324H32.6368C32.7243 51.3259 32.8107 51.3037 32.8864 51.2597C32.9621 51.2157 33.0242 51.1517 33.0658 51.0747C33.1075 50.9977 33.1272 50.9108 33.1226 50.8233C33.118 50.7359 33.0895 50.6514 33.04 50.5792L30.912 46.0544C30.8229 45.872 30.7923 45.6665 30.8243 45.466C30.8564 45.2656 30.9496 45.0799 31.0912 44.9344L37.7552 38.08C37.8137 38.0304 37.8562 37.9645 37.8771 37.8907C37.898 37.8169 37.8965 37.7385 37.8728 37.6656L32.8776 20.328C32.8511 20.2358 32.7982 20.1533 32.7255 20.0907C32.6527 20.0281 32.5633 19.9881 32.4681 19.9756C32.373 19.9631 32.2763 19.9787 32.1898 20.0204C32.1034 20.0621 32.031 20.1281 31.9816 20.2104L26.6896 29.3776C26.6234 29.4879 26.5361 29.5841 26.4328 29.6607C26.3294 29.7373 26.212 29.7928 26.0872 29.824C25.9624 29.8552 25.8327 29.8615 25.7054 29.8425C25.5782 29.8236 25.4559 29.7798 25.3456 29.7136C25.2353 29.6474 25.1391 29.5602 25.0625 29.4568C24.9859 29.3534 24.9305 29.236 24.8993 29.1112C24.868 28.9864 24.8617 28.8567 24.8807 28.7294C24.8996 28.6022 24.9434 28.4799 25.0096 28.3696L32.0992 16.24C32.1608 16.184 32.1608 16.1224 32.1608 16.0048V15.9824ZM35.84 51.296H49.952C50.0363 51.2937 50.1188 51.2711 50.1926 51.2302C50.2663 51.1893 50.3292 51.1313 50.3758 51.061C50.4225 50.9908 50.4516 50.9103 50.4607 50.8265C50.4697 50.7426 50.4585 50.6578 50.428 50.5792L38.584 24.2592L38.4664 24.1416L36.2656 21.6384C36.1883 21.5616 36.0879 21.5122 35.9799 21.4979C35.8718 21.4836 35.762 21.5051 35.6674 21.5591C35.5727 21.6131 35.4983 21.6966 35.4557 21.7969C35.413 21.8972 35.4044 22.0087 35.4312 22.1144L39.956 37.8952C40.0094 38.0605 40.0151 38.2375 39.9725 38.4058C39.9299 38.5742 39.8408 38.7272 39.7152 38.8472L33.1744 45.5672C33.0942 45.6333 33.0385 45.7244 33.0162 45.8259C32.9938 45.9275 33.0062 46.0335 33.0512 46.1272L35.3752 51.0104C35.4254 51.094 35.4947 51.1645 35.5775 51.2161C35.6602 51.2677 35.754 51.2989 35.8512 51.3072L35.84 51.296Z" fill="#0891B2"/>
</svg>
