<svg width="58" height="58" viewBox="0 0 58 58" fill="none" xmlns="http://www.w3.org/2000/svg">
<path d="M44.5072 30.6C44.1397 34.1615 42.5616 37.4891 40.0364 40.0272C37.5111 42.5652 34.1915 44.1602 30.632 44.5456C30.5603 44.5447 30.4891 44.5582 30.4228 44.5853C30.3564 44.6123 30.2961 44.6523 30.2454 44.703C30.1947 44.7537 30.1546 44.814 30.1276 44.8804C30.1006 44.9468 30.0871 45.0179 30.088 45.0896V56.7312C30.088 57.0198 29.9733 57.2965 29.7693 57.5005C29.5652 57.7046 29.2885 57.8192 29 57.8192C28.7114 57.8192 28.4347 57.7046 28.2306 57.5005C28.0266 57.2965 27.9119 57.0198 27.9119 56.7312V52.5072C27.9016 52.3664 27.8409 52.2339 27.7411 52.1341C27.6412 52.0342 27.5088 51.9736 27.368 51.9632C22.529 51.5716 17.9391 49.6548 14.2588 46.4886C10.5786 43.3224 7.99778 39.0702 6.88795 34.344C6.84664 34.204 6.83393 34.0571 6.85059 33.912C6.86724 33.767 6.91292 33.6268 6.9849 33.4997C7.05687 33.3727 7.15368 33.2615 7.26955 33.1727C7.38541 33.0838 7.51797 33.0192 7.65933 32.9827C7.80068 32.9462 7.94794 32.9385 8.09233 32.9601C8.23672 32.9817 8.3753 33.0321 8.49979 33.1084C8.62429 33.1846 8.73216 33.2852 8.81699 33.404C8.90182 33.5228 8.96186 33.6575 8.99355 33.8C9.98022 38.0423 12.2809 41.865 15.5676 44.723C18.8543 47.5811 22.9593 49.3287 27.2976 49.7168C27.4384 49.7872 27.5728 49.7168 27.7071 49.5824C27.7782 49.5423 27.8357 49.4819 27.8721 49.4089C27.9086 49.3359 27.9225 49.2537 27.9119 49.1728V45.0896C27.9128 45.0179 27.8993 44.9468 27.8723 44.8804C27.8453 44.814 27.8052 44.7537 27.7545 44.703C27.7038 44.6523 27.6435 44.6123 27.5771 44.5853C27.5108 44.5582 27.4396 44.5447 27.368 44.5456C23.8254 44.1509 20.5196 42.5725 17.9856 40.0656C15.452 37.5193 13.8704 34.1798 13.5056 30.6064C13.4848 30.4756 13.4191 30.3562 13.3199 30.2686C13.2206 30.181 13.0939 30.1307 12.9616 30.1264H1.31995C1.02291 30.1264 0.738032 30.0084 0.527992 29.7984C0.317951 29.5883 0.199951 29.3034 0.199951 29.0064C0.199951 28.7094 0.317951 28.4245 0.527992 28.2144C0.738032 28.0044 1.02291 27.8864 1.31995 27.8864H5.74235C5.87432 27.8809 6.00038 27.8302 6.09942 27.7428C6.19846 27.6554 6.26445 27.5367 6.28635 27.4064C6.57676 22.5746 8.37202 17.9549 11.4204 14.1949C14.4688 10.4349 18.6175 7.72323 23.2847 6.44C23.5674 6.38635 23.8598 6.44288 24.1021 6.598C24.3444 6.75311 24.5182 6.99506 24.5878 7.2742C24.6573 7.55335 24.6175 7.84854 24.4763 8.09923C24.3352 8.34992 24.1035 8.53711 23.8287 8.6224C19.6532 9.74837 15.9334 12.1502 13.1889 15.4925C10.4444 18.8348 8.81208 22.9507 8.51995 27.2656C8.5019 27.3451 8.50262 27.4277 8.52205 27.5069C8.54147 27.586 8.57907 27.6596 8.63186 27.7217C8.68465 27.7838 8.75119 27.8327 8.82619 27.8647C8.90119 27.8966 8.98259 27.9106 9.06395 27.9056H12.936C13.0683 27.9013 13.195 27.851 13.2943 27.7634C13.3935 27.6758 13.4592 27.5564 13.48 27.4256C13.8424 23.8576 15.4199 20.5225 17.9482 17.979C20.4766 15.4355 23.8022 13.8381 27.368 13.4544C27.4396 13.4553 27.5108 13.4418 27.5771 13.4147C27.6435 13.3877 27.7038 13.3477 27.7545 13.297C27.8052 13.2463 27.8453 13.186 27.8723 13.1196C27.8993 13.0532 27.9128 12.9821 27.9119 12.9104V1.2688C27.9119 0.980246 28.0266 0.703509 28.2306 0.499469C28.4347 0.29543 28.7114 0.180801 29 0.180801C29.2885 0.180801 29.5652 0.29543 29.7693 0.499469C29.9733 0.703509 30.088 0.980246 30.088 1.2688V14.472C30.0953 14.6261 30.0703 14.7799 30.0147 14.9238C29.959 15.0677 29.874 15.1983 29.7649 15.3074C29.6558 15.4164 29.5252 15.5015 29.3813 15.5571C29.2375 15.6127 29.0836 15.6377 28.9296 15.6304C17.096 15.6304 11.1824 30.12 19.5471 38.4912C27.9119 46.8624 42.1903 40.872 42.3951 29C42.3934 28.8566 42.4204 28.7144 42.4745 28.5816C42.5285 28.4488 42.6086 28.3282 42.71 28.2268C42.8114 28.1255 42.932 28.0454 43.0648 27.9913C43.1975 27.9373 43.3398 27.9103 43.4831 27.912H56.68C56.977 27.912 57.2619 28.03 57.4719 28.24C57.6819 28.4501 57.7999 28.735 57.7999 29.032C57.7999 29.329 57.6819 29.6139 57.4719 29.824C57.2619 30.034 56.977 30.152 56.68 30.152H52.3279C52.1929 30.1466 52.061 30.1934 51.9597 30.2829C51.8583 30.3723 51.7954 30.4973 51.784 30.632C51.4308 35.4939 49.5505 40.1199 46.4116 43.8496C43.2727 47.5792 39.0357 50.2218 34.3055 51.4C32.8783 51.7392 32.3856 49.5632 33.8256 49.224C38.0498 48.1737 41.8382 45.8246 44.6569 42.5076C47.4756 39.1906 49.1827 35.0728 49.5375 30.7344C49.5556 30.6549 49.5549 30.5723 49.5355 30.4931C49.516 30.414 49.4784 30.3404 49.4256 30.2783C49.3728 30.2162 49.3063 30.1673 49.2313 30.1353C49.1563 30.1034 49.0749 30.0894 48.9935 30.0944H45.0512C44.9188 30.0987 44.7921 30.149 44.6928 30.2366C44.5936 30.3242 44.5279 30.4436 44.5072 30.5744V30.6ZM53.32 12.5008L45.4543 20.3216C45.2622 20.5302 44.9953 20.6544 44.712 20.6672H39.4704C39.3273 20.6797 39.1891 20.7258 39.0672 20.8016L29.7487 30.1904C29.5392 30.3862 29.2619 30.493 28.9752 30.4884C28.6885 30.4839 28.4147 30.3682 28.2116 30.1659C28.0084 29.9635 27.8916 29.6903 27.8859 29.4036C27.8801 29.1169 27.9858 28.8391 28.1808 28.6288L37.4991 19.2336C37.5618 19.2022 37.6143 19.1536 37.6506 19.0936C37.6868 19.0336 37.7053 18.9645 37.7039 18.8944V13.64C37.7026 13.4886 37.732 13.3386 37.7903 13.1989C37.8486 13.0592 37.9346 12.9327 38.0431 12.8272L45.8639 5.0128C46.015 4.84954 46.2117 4.73553 46.4284 4.68564C46.6451 4.63575 46.8719 4.65229 47.0791 4.7331C47.2863 4.81391 47.4643 4.95524 47.59 5.13869C47.7158 5.32214 47.7833 5.5392 47.784 5.7616V10.0496C47.793 10.1909 47.8532 10.3241 47.9533 10.4242C48.0535 10.5243 48.1866 10.5846 48.3279 10.5936H52.5456C52.7705 10.5877 52.992 10.6497 53.1812 10.7715C53.3704 10.8934 53.5186 11.0694 53.6063 11.2766C53.694 11.4838 53.7173 11.7127 53.6731 11.9333C53.6288 12.154 53.5192 12.3562 53.3583 12.5136L53.32 12.5008ZM44.36 18.2608L48.9168 13.704C48.9959 13.6309 49.0519 13.5361 49.0777 13.4314C49.1034 13.3268 49.0979 13.2168 49.0618 13.1153C49.0257 13.0137 48.9605 12.925 48.8745 12.8601C48.7884 12.7953 48.6851 12.7571 48.5775 12.7504H46.6575C46.3603 12.7573 46.0723 12.6472 45.8555 12.4436C45.6388 12.2401 45.5108 11.9595 45.4991 11.6624V9.8C45.4986 9.68978 45.4658 9.58214 45.4046 9.49041C45.3435 9.39869 45.2568 9.32692 45.1553 9.28399C45.0538 9.24107 44.9419 9.22888 44.8335 9.24893C44.7251 9.26898 44.625 9.3204 44.5456 9.3968L40.0656 13.9536C39.946 14.0578 39.8723 14.205 39.8608 14.3632V17.9024C39.8599 17.9741 39.8734 18.0452 39.9004 18.1116C39.9274 18.178 39.9675 18.2383 40.0182 18.289C40.0689 18.3397 40.1292 18.3797 40.1956 18.4067C40.262 18.4338 40.3331 18.4473 40.4048 18.4464H44.0079C44.1487 18.4464 44.2832 18.4464 44.3472 18.3056L44.36 18.2608ZM38.2416 29.0128C38.2441 30.8427 37.7037 32.6322 36.6888 34.1549C35.6738 35.6775 34.23 36.8648 32.54 37.5666C30.85 38.2683 28.9898 38.4529 27.1949 38.097C25.3999 37.7411 23.7509 36.8607 22.4565 35.5672C21.1621 34.2737 20.2806 32.6253 19.9234 30.8306C19.5663 29.0359 19.7496 27.1756 20.4501 25.4851C21.1507 23.7946 22.337 22.3499 23.859 21.334C25.3809 20.318 27.1701 19.7763 29 19.7776C29.2749 19.7987 29.5318 19.9228 29.7192 20.1251C29.9066 20.3274 30.0107 20.593 30.0107 20.8688C30.0107 21.1446 29.9066 21.4102 29.7192 21.6125C29.5318 21.8148 29.2749 21.9389 29 21.96C27.1328 21.96 25.3422 22.7017 24.0219 24.022C22.7017 25.3422 21.96 27.1329 21.96 29C21.96 30.8671 22.7017 32.6578 24.0219 33.978C25.3422 35.2983 27.1328 36.04 29 36.04C33.0831 36.04 35.8032 32.9808 36.0015 29C35.9952 28.8456 36.0206 28.6915 36.0763 28.5474C36.132 28.4032 36.2168 28.2721 36.3254 28.1621C36.434 28.0521 36.564 27.9657 36.7074 27.9081C36.8509 27.8505 37.0046 27.8231 37.1591 27.8275C37.3135 27.8319 37.4655 27.8681 37.6054 27.9337C37.7453 27.9993 37.8702 28.093 37.9723 28.209C38.0745 28.325 38.1516 28.4608 38.1991 28.6078C38.2465 28.7549 38.2631 28.9102 38.2479 29.064L38.2416 29.0128Z" fill="#0891B2"/>
</svg>
