<svg width="64" height="64" viewBox="0 0 64 64" fill="none" xmlns="http://www.w3.org/2000/svg">
<path d="M58.8461 4.28C46.9561 2.783 35.3701 7.133 26.5591 15.513C13.9191 13.78 6.06506 23.85 4.91506 32.074C4.79906 32.708 5.38506 33.317 6.02206 33.224L15.5061 32.072C16.1791 32.745 17.0191 33.582 18.0681 34.626L16.4461 37.896C16.1672 38.4587 16.0719 39.0948 16.1739 39.7145C16.2758 40.3342 16.5696 40.9062 17.0141 41.35L22.6491 46.985C23.0928 47.4294 23.665 47.7232 24.2847 47.8249C24.9045 47.9266 25.5405 47.8312 26.1031 47.552L29.3681 45.933L32.2711 48.837C32.5861 49.152 33.0691 49.218 33.4561 49.009C36.5831 47.309 41.7241 44.123 46.6531 39.339C47.1931 49.025 39.6351 55.393 32.9291 56.835L33.3711 53.21C33.5061 51.896 31.5621 51.666 31.3871 52.968L30.7771 57.978C30.7581 58.1319 30.7753 58.2881 30.8272 58.4343C30.8791 58.5804 30.9643 58.7125 31.0761 58.82C31.1878 58.9275 31.3231 59.0075 31.4712 59.0537C31.6192 59.0998 31.776 59.1109 31.9291 59.086C39.6731 58.002 50.2331 50.491 48.4921 37.461C56.0131 29.897 61.4831 17.005 59.7201 5.153C59.6936 4.93026 59.5931 4.72288 59.4345 4.56419C59.276 4.40549 59.0688 4.3047 58.8461 4.278V4.28ZM25.2141 45.76C25.0268 45.8531 24.8151 45.885 24.6088 45.8513C24.4024 45.8175 24.2119 45.7198 24.0641 45.572L18.4281 39.937C18.28 39.7893 18.182 39.5989 18.148 39.3926C18.1139 39.1863 18.1454 38.9745 18.2381 38.787L19.5611 36.118C22.1481 38.71 25.2871 41.852 27.8761 44.442L25.2141 45.761V45.76ZM57.4331 16.155C54.3851 33.137 39.9271 43.091 33.1531 46.892C29.8531 43.593 21.6571 35.379 17.1081 30.846C18.5801 28.181 21.0201 24.573 23.1401 22.06C23.9701 21.05 22.4361 19.78 21.5991 20.784C19.3841 23.397 16.7251 27.356 15.2421 30.089L7.16206 31.071C7.85406 28.261 9.97706 22.394 15.9981 19.234C20.2891 16.981 24.5451 17.217 26.7001 17.554C27.0051 17.592 27.3221 17.523 27.5581 17.308C35.7981 9.346 46.6061 4.999 57.8201 6.18C58.1533 9.50689 58.0231 12.8639 57.4331 16.155ZM17.1171 46.917C10.2131 40.768 4.09706 52.905 4.00206 58.937C3.95206 59.519 4.48206 60.049 5.06306 59.998C11.0801 59.904 23.1881 53.813 17.1171 46.917ZM15.2321 53.694C13.6959 55.0677 11.9236 56.1519 10.0011 56.894C8.7485 57.3764 7.44352 57.7097 6.11306 57.887C6.56495 54.4904 8.02919 51.3086 10.3151 48.756C13.8811 44.586 19.4471 50.068 15.2321 53.694Z" fill="#0891B2"/>
<path d="M35.35 17.286C30.298 22.238 33.958 31.076 41.031 31.004C48.111 31.064 51.755 22.264 46.714 17.286C43.581 14.153 38.482 14.153 35.35 17.286ZM45.3 27.236C39.486 32.707 31.294 24.511 36.764 18.7C42.613 13.253 50.746 21.388 45.3 27.236Z" fill="#0891B2"/>
</svg>
