<svg width="108" height="109" viewBox="0 0 108 109" fill="none" xmlns="http://www.w3.org/2000/svg">
<path d="M71.4892 73.1428C71.0415 73.1429 70.612 72.9657 70.2945 72.6501L62.4307 64.7863C60.129 62.4846 58.995 59.8858 59.0659 57.061C59.1941 51.7892 63.5647 47.7662 63.7504 47.5975C64.0675 47.3084 64.483 47.1513 64.912 47.1582C65.341 47.1651 65.7512 47.3355 66.0589 47.6346L85.5495 66.5413C85.8668 66.8537 86.0478 67.2789 86.053 67.7241C86.0582 68.1694 85.8872 68.5987 85.5773 68.9184C85.2673 69.2381 84.8436 69.4224 84.3984 69.431C83.9532 69.4397 83.5226 69.272 83.2005 68.9646L64.9519 51.2661C63.9158 52.5418 62.4915 54.7288 62.4375 57.1622C62.397 59.0488 63.1732 60.76 64.8169 62.4036L72.6806 70.2673C72.9147 70.5035 73.0738 70.8035 73.138 71.1298C73.2021 71.4561 73.1684 71.7941 73.0412 72.1013C72.9139 72.4085 72.6987 72.6712 72.4226 72.8565C72.1465 73.0418 71.8218 73.1414 71.4892 73.1428Z" fill="white"/>
<path d="M72.9135 87.0241C72.6766 87.0243 72.4423 86.9745 72.226 86.878C72.0096 86.7814 71.8161 86.6403 71.658 86.4639C69.748 84.3486 68.5572 81.6827 68.2564 78.8487C67.9557 76.0146 68.5605 73.1581 69.984 70.6891C70.095 70.4975 70.2427 70.3295 70.4186 70.1949C70.5946 70.0603 70.7953 69.9616 71.0093 69.9046C71.2234 69.8476 71.4466 69.8333 71.6662 69.8625C71.8858 69.8917 72.0974 69.9639 72.2891 70.0749C72.4808 70.1859 72.6488 70.3336 72.7834 70.5095C72.918 70.6855 73.0166 70.8862 73.0737 71.1002C73.1307 71.3143 73.145 71.5375 73.1158 71.7571C73.0866 71.9766 73.0144 72.1883 72.9034 72.38C71.8368 74.2316 71.3844 76.3736 71.6112 78.4983C71.838 80.623 72.7323 82.6213 74.1656 84.206C74.3843 84.4483 74.528 84.7488 74.5794 85.071C74.6307 85.3933 74.5875 85.7236 74.455 86.0218C74.3225 86.3201 74.1064 86.5735 73.8328 86.7514C73.5592 86.9293 73.2399 87.024 72.9135 87.0241ZM64.125 84.6245H35.4375C33.2006 84.6218 31.056 83.732 29.4742 82.1503C27.8925 80.5685 27.0027 78.424 27 76.187V72.812C27 72.3645 27.1778 71.9352 27.4943 71.6188C27.8107 71.3023 28.2399 71.1245 28.6875 71.1245C29.1351 71.1245 29.5643 71.3023 29.8807 71.6188C30.1972 71.9352 30.375 72.3645 30.375 72.812V76.187C30.375 78.9781 32.6464 81.2495 35.4375 81.2495H64.125C64.5726 81.2495 65.0018 81.4273 65.3182 81.7438C65.6347 82.0602 65.8125 82.4895 65.8125 82.937C65.8125 83.3846 65.6347 83.8138 65.3182 84.1303C65.0018 84.4467 64.5726 84.6245 64.125 84.6245ZM72.5625 50.8745C72.1149 50.8745 71.6857 50.6967 71.3693 50.3803C71.0528 50.0638 70.875 49.6346 70.875 49.187V12.062C70.875 9.27089 68.6036 6.99951 65.8125 6.99951H35.4375C32.6464 6.99951 30.375 9.27089 30.375 12.062V15.437C30.375 15.8846 30.1972 16.3138 29.8807 16.6303C29.5643 16.9467 29.1351 17.1245 28.6875 17.1245C28.2399 17.1245 27.8107 16.9467 27.4943 16.6303C27.1778 16.3138 27 15.8846 27 15.437V12.062C27 7.41126 30.7867 3.62451 35.4375 3.62451H65.8125C70.4632 3.62451 74.25 7.41126 74.25 12.062V49.187C74.25 49.6346 74.0722 50.0638 73.7557 50.3803C73.4393 50.6967 73.0101 50.8745 72.5625 50.8745ZM65.8125 104.875C65.3649 104.875 64.9357 104.697 64.6193 104.38C64.3028 104.064 64.125 103.635 64.125 103.187V92.4376C62.5512 91.6164 61.1115 90.5603 59.8556 89.3056C59.5466 88.9887 59.3745 88.5631 59.3763 88.1205C59.3782 87.6778 59.5539 87.2537 59.8655 86.9394C60.1772 86.6251 60.5998 86.4458 61.0424 86.4402C61.485 86.4346 61.9121 86.6031 62.2316 86.9094C63.4972 88.1683 64.9316 89.147 66.4875 89.8254C67.1018 90.0954 67.5 90.7029 67.5 91.3711V103.184C67.5004 103.406 67.4571 103.625 67.3725 103.83C67.2879 104.036 67.1637 104.222 67.0069 104.379C66.8502 104.536 66.664 104.661 66.4591 104.746C66.2541 104.831 66.0344 104.875 65.8125 104.875Z" fill="white"/>
<path d="M96.1875 104.875C95.7399 104.875 95.3107 104.697 94.9943 104.38C94.6778 104.064 94.5 103.635 94.5 103.187V65.8528C94.5 64.4218 93.6225 62.2685 92.6201 61.2526L71.7188 40.2534C71.5581 40.0972 71.4301 39.9107 71.3423 39.7046C71.2545 39.4985 71.2086 39.2769 71.2073 39.0529C71.206 38.8288 71.2494 38.6068 71.3348 38.3997C71.4202 38.1926 71.5461 38.0045 71.7049 37.8466C71.8638 37.6886 72.0525 37.5638 72.2601 37.4796C72.4677 37.3953 72.69 37.3532 72.914 37.3558C73.1381 37.3583 73.3593 37.4055 73.5649 37.4945C73.7706 37.5834 73.9564 37.7125 74.1116 37.874L95.0197 58.88C96.6499 60.5371 97.875 63.5308 97.875 65.8528V103.187C97.875 103.635 97.6972 104.064 97.3807 104.38C97.0643 104.697 96.6351 104.875 96.1875 104.875ZM52.3125 77.8745H48.9375C48.4899 77.8745 48.0607 77.6967 47.7443 77.3803C47.4278 77.0638 47.25 76.6346 47.25 76.187C47.25 75.7395 47.4278 75.3102 47.7443 74.9938C48.0607 74.6773 48.4899 74.4995 48.9375 74.4995H52.3125C52.7601 74.4995 53.1893 74.6773 53.5057 74.9938C53.8222 75.3102 54 75.7395 54 76.187C54 76.6346 53.8222 77.0638 53.5057 77.3803C53.1893 77.6967 52.7601 77.8745 52.3125 77.8745ZM55.6875 13.7495H45.5625C45.1149 13.7495 44.6857 13.5717 44.3693 13.2553C44.0528 12.9388 43.875 12.5096 43.875 12.062C43.875 11.6145 44.0528 11.1852 44.3693 10.8688C44.6857 10.5523 45.1149 10.3745 45.5625 10.3745H55.6875C56.1351 10.3745 56.5643 10.5523 56.8807 10.8688C57.1972 11.1852 57.375 11.6145 57.375 12.062C57.375 12.5096 57.1972 12.9388 56.8807 13.2553C56.5643 13.5717 56.1351 13.7495 55.6875 13.7495ZM28.6875 67.7495C28.4506 67.7497 28.2163 67.6999 28 67.6033C27.7836 67.5068 27.5901 67.3657 27.432 67.1893C26.7941 66.4839 11.8125 49.6865 11.8125 36.794C11.8125 27.8098 19.3826 20.4995 28.6875 20.4995C37.9924 20.4995 45.5625 27.8098 45.5625 36.794C45.5625 49.6865 30.5809 66.4805 29.943 67.1893C29.7849 67.3657 29.5914 67.5068 29.375 67.6033C29.1587 67.6999 28.9244 67.7497 28.6875 67.7495ZM28.6875 23.8745C21.2422 23.8745 15.1875 29.6694 15.1875 36.794C15.1875 46.3689 25.1201 59.177 28.6875 63.4633C32.2515 59.1736 42.1875 46.3588 42.1875 36.794C42.1875 29.6694 36.1327 23.8745 28.6875 23.8745Z" fill="white"/>
<path d="M28.6875 45.812C24.0367 45.812 20.25 42.0253 20.25 37.3745C20.25 32.7238 24.0367 28.937 28.6875 28.937C33.3383 28.937 37.125 32.7238 37.125 37.3745C37.125 42.0253 33.3383 45.812 28.6875 45.812ZM28.6875 32.312C25.8964 32.312 23.625 34.5834 23.625 37.3745C23.625 40.1656 25.8964 42.437 28.6875 42.437C31.4786 42.437 33.75 40.1656 33.75 37.3745C33.75 34.5834 31.4786 32.312 28.6875 32.312Z" fill="white"/>
</svg>
