<svg width="242" height="191" viewBox="0 0 242 191" fill="none" xmlns="http://www.w3.org/2000/svg">
<rect width="186" height="191" transform="translate(56)" fill="#FAFAFA"/>
<path d="M155 44C154.47 44 153.961 44.2107 153.586 44.5858C153.211 44.9609 153 45.4696 153 46V54C153 54.5304 153.211 55.0391 153.586 55.4142C153.961 55.7893 154.47 56 155 56C155.53 56 156.039 55.7893 156.414 55.4142C156.789 55.0391 157 54.5304 157 54V46C157 45.4696 156.789 44.9609 156.414 44.5858C156.039 44.2107 155.53 44 155 44ZM149 44C148.47 44 147.961 44.2107 147.586 44.5858C147.211 44.9609 147 45.4696 147 46V54C147 54.5304 147.211 55.0391 147.586 55.4142C147.961 55.7893 148.47 56 149 56C149.53 56 150.039 55.7893 150.414 55.4142C150.789 55.0391 151 54.5304 151 54V46C151 45.4696 150.789 44.9609 150.414 44.5858C150.039 44.2107 149.53 44 149 44ZM161 44C160.47 44 159.961 44.2107 159.586 44.5858C159.211 44.9609 159 45.4696 159 46V54C159 54.5304 159.211 55.0391 159.586 55.4142C159.961 55.7893 160.47 56 161 56C161.53 56 162.039 55.7893 162.414 55.4142C162.789 55.0391 163 54.5304 163 54V46C163 45.4696 162.789 44.9609 162.414 44.5858C162.039 44.2107 161.53 44 161 44ZM183 44C182.47 44 181.961 44.2107 181.586 44.5858C181.211 44.9609 181 45.4696 181 46V54C181 54.5304 181.211 55.0391 181.586 55.4142C181.961 55.7893 182.47 56 183 56C183.53 56 184.039 55.7893 184.414 55.4142C184.789 55.0391 185 54.5304 185 54V46C185 45.4696 184.789 44.9609 184.414 44.5858C184.039 44.2107 183.53 44 183 44ZM177 44C176.47 44 175.961 44.2107 175.586 44.5858C175.211 44.9609 175 45.4696 175 46V54C175 54.5304 175.211 55.0391 175.586 55.4142C175.961 55.7893 176.47 56 177 56C177.53 56 178.039 55.7893 178.414 55.4142C178.789 55.0391 179 54.5304 179 54V46C179 45.4696 178.789 44.9609 178.414 44.5858C178.039 44.2107 177.53 44 177 44ZM189 56C189.53 56 190.039 55.7893 190.414 55.4142C190.789 55.0391 191 54.5304 191 54V46C191 45.4696 190.789 44.9609 190.414 44.5858C190.039 44.2107 189.53 44 189 44C188.47 44 187.961 44.2107 187.586 44.5858C187.211 44.9609 187 45.4696 187 46V54C187 54.5304 187.211 55.0391 187.586 55.4142C187.961 55.7893 188.47 56 189 56ZM171 36C171.53 36 172.039 35.7893 172.414 35.4142C172.789 35.0391 173 34.5304 173 34V26C173 25.4696 172.789 24.9609 172.414 24.5858C172.039 24.2107 171.53 24 171 24C170.47 24 169.961 24.2107 169.586 24.5858C169.211 24.9609 169 25.4696 169 26V34C169 34.5304 169.211 35.0391 169.586 35.4142C169.961 35.7893 170.47 36 171 36ZM165 24C164.47 24 163.961 24.2107 163.586 24.5858C163.211 24.9609 163 25.4696 163 26V34C163 34.5304 163.211 35.0391 163.586 35.4142C163.961 35.7893 164.47 36 165 36C165.53 36 166.039 35.7893 166.414 35.4142C166.789 35.0391 167 34.5304 167 34V26C167 25.4696 166.789 24.9609 166.414 24.5858C166.039 24.2107 165.53 24 165 24ZM177 36C177.53 36 178.039 35.7893 178.414 35.4142C178.789 35.0391 179 34.5304 179 34V26C179 25.4696 178.789 24.9609 178.414 24.5858C178.039 24.2107 177.53 24 177 24C176.47 24 175.961 24.2107 175.586 24.5858C175.211 24.9609 175 25.4696 175 26V34C175 34.5304 175.211 35.0391 175.586 35.4142C175.961 35.7893 176.47 36 177 36Z" fill="#334155"/>
<path d="M209 90H196.235L210.79 60.895C210.942 60.5899 211.014 60.251 210.998 59.9105C210.983 59.57 210.88 59.2391 210.701 58.9492C210.522 58.6592 210.271 58.4199 209.974 58.2537C209.676 58.0876 209.341 58.0003 209 58H199V40C199 39.4696 198.789 38.9609 198.414 38.5858C198.039 38.2107 197.53 38 197 38H187V20C187 19.4696 186.789 18.9609 186.414 18.5858C186.039 18.2107 185.53 18 185 18H157C156.47 18 155.961 18.2107 155.586 18.5858C155.211 18.9609 155 19.4696 155 20V38H141C140.47 38 139.961 38.2107 139.586 38.5858C139.211 38.9609 139 39.4696 139 40V58H131V40C131 39.4696 130.789 38.9609 130.414 38.5858C130.039 38.2107 129.53 38 129 38H121V32C121 31.4696 120.789 30.9609 120.414 30.5858C120.039 30.2107 119.53 30 119 30H113V20C113 19.4696 112.789 18.9609 112.414 18.5858C112.039 18.2107 111.53 18 111 18C110.47 18 109.961 18.2107 109.586 18.5858C109.211 18.9609 109 19.4696 109 20V22.765L107.895 22.21C107.66 22.0925 107.404 22.0224 107.142 22.0038C106.88 21.9851 106.616 22.0183 106.367 22.1014C105.864 22.2693 105.447 22.6303 105.21 23.105C105.092 23.3401 105.022 23.596 105.004 23.8581C104.985 24.1203 105.018 24.3835 105.101 24.6329C105.269 25.1364 105.63 25.5526 106.105 25.79L109 27.235V30H107C106.47 30 105.961 30.2107 105.586 30.5858C105.211 30.9609 105 31.4696 105 32V38H101C100.47 38 99.9609 38.2107 99.5858 38.5858C99.2107 38.9609 99 39.4696 99 40V58H89C88.6961 58 88.3962 58.0693 88.1231 58.2026C87.85 58.3359 87.6108 58.5297 87.4238 58.7693C87.2368 59.0088 87.1068 59.2878 87.0438 59.5851C86.9808 59.8824 86.9863 60.1902 87.06 60.485L94.4375 90H89C88.4696 90 87.9609 90.2107 87.5858 90.5858C87.2107 90.9609 87 91.4696 87 92C87 92.5304 87.2107 93.0391 87.5858 93.4142C87.9609 93.7893 88.4696 94 89 94H209C209.53 94 210.039 93.7893 210.414 93.4142C210.789 93.0391 211 92.5304 211 92C211 91.4696 210.789 90.9609 210.414 90.5858C210.039 90.2107 209.53 90 209 90ZM195 42V58H171V42H195ZM159 22H183V38H159V22ZM143 42H167V58H143V42ZM109 34H117V38H109V34ZM103 42H127V44H113C112.47 44 111.961 44.2107 111.586 44.5858C111.211 44.9609 111 45.4696 111 46V54C111 54.5304 111.211 55.0391 111.586 55.4142C111.961 55.7893 112.47 56 113 56H127V58H103V42ZM127 48V52H115V48H127ZM191.765 90H98.5625L91.5625 62H205.765L191.765 90Z" fill="#334155"/>
<path d="M115 66H99C98.4696 66 97.9609 66.2107 97.5858 66.5858C97.2107 66.9609 97 67.4696 97 68C97 68.5304 97.2107 69.0391 97.5858 69.4142C97.9609 69.7893 98.4696 70 99 70H115C115.53 70 116.039 69.7893 116.414 69.4142C116.789 69.0391 117 68.5304 117 68C117 67.4696 116.789 66.9609 116.414 66.5858C116.039 66.2107 115.53 66 115 66ZM123 66H121C120.47 66 119.961 66.2107 119.586 66.5858C119.211 66.9609 119 67.4696 119 68C119 68.5304 119.211 69.0391 119.586 69.4142C119.961 69.7893 120.47 70 121 70H123C123.53 70 124.039 69.7893 124.414 69.4142C124.789 69.0391 125 68.5304 125 68C125 67.4696 124.789 66.9609 124.414 66.5858C124.039 66.2107 123.53 66 123 66ZM209 100C206.22 100 204.959 99.2433 203.361 98.285C201.576 97.2138 199.553 96 195.665 96C191.778 96 189.754 97.2138 187.969 98.285C186.372 99.2433 185.11 100 182.33 100C179.551 100 178.29 99.2433 176.693 98.285C174.908 97.2138 172.885 96 168.997 96C165.11 96 163.087 97.2138 161.302 98.285C159.705 99.2433 158.444 100 155.664 100C152.885 100 151.624 99.2432 150.027 98.2852C148.242 97.2137 146.219 96 142.332 96C138.444 96 136.421 97.2137 134.636 98.2852C133.039 99.2432 131.778 100 129 100C126.222 100 124.959 99.2432 123.362 98.2852C121.577 97.2137 119.554 96 115.667 96C111.779 96 109.757 97.2138 107.972 98.285C106.374 99.2433 105.112 100 102.333 100C99.5542 100 98.2923 99.2433 96.6955 98.285C94.9105 97.2138 92.8872 96 89 96C88.4696 96 87.9609 96.2107 87.5858 96.5858C87.2107 96.9609 87 97.4696 87 98C87 98.5304 87.2107 99.0391 87.5858 99.4142C87.9609 99.7893 88.4696 100 89 100C91.7793 100 93.0405 100.757 94.6375 101.715C96.4225 102.786 98.4458 104 102.333 104C106.221 104 108.243 102.786 110.028 101.715C111.625 100.757 112.887 100 115.666 100C118.445 100 119.707 100.757 121.304 101.715C123.089 102.786 125.112 104 128.999 104C132.886 104 134.91 102.786 136.694 101.715C138.291 100.757 139.553 100 142.332 100C145.111 100 146.372 100.757 147.969 101.715C149.754 102.786 151.777 104 155.664 104C159.551 104 161.575 102.786 163.36 101.715C164.957 100.757 166.218 100 168.997 100C171.777 100 173.038 100.757 174.635 101.715C176.42 102.786 178.443 104 182.33 104C186.218 104 188.241 102.786 190.026 101.715C191.624 100.757 192.886 100 195.665 100C198.445 100 199.706 100.757 201.303 101.715C203.089 102.786 205.112 104 209 104C209.53 104 210.039 103.789 210.414 103.414C210.789 103.039 211 102.53 211 102C211 101.47 210.789 100.961 210.414 100.586C210.039 100.211 209.53 100 209 100ZM209 108C206.22 108 204.959 107.243 203.361 106.285C201.576 105.214 199.553 104 195.665 104C191.778 104 189.754 105.214 187.969 106.285C186.372 107.243 185.11 108 182.33 108C179.551 108 178.29 107.243 176.693 106.285C174.908 105.214 172.885 104 168.997 104C165.11 104 163.087 105.214 161.302 106.285C159.705 107.243 158.444 108 155.664 108C152.885 108 151.624 107.243 150.027 106.285C148.242 105.214 146.219 104 142.332 104C138.444 104 136.421 105.214 134.636 106.285C133.039 107.243 131.778 108 129 108C126.222 108 124.959 107.243 123.362 106.285C121.577 105.214 119.554 104 115.667 104C111.779 104 109.757 105.214 107.972 106.285C106.374 107.243 105.112 108 102.333 108C99.5542 108 98.2923 107.243 96.6955 106.285C94.9105 105.214 92.8872 104 89 104C88.4696 104 87.9609 104.211 87.5858 104.586C87.2107 104.961 87 105.47 87 106C87 106.53 87.2107 107.039 87.5858 107.414C87.9609 107.789 88.4696 108 89 108C91.7793 108 93.0405 108.757 94.6375 109.715C96.4225 110.786 98.4458 112 102.333 112C106.221 112 108.243 110.786 110.028 109.715C111.625 108.757 112.887 108 115.666 108C118.445 108 119.707 108.757 121.304 109.715C123.089 110.786 125.112 112 128.999 112C132.886 112 134.91 110.786 136.694 109.715C138.291 108.757 139.553 108 142.332 108C145.111 108 146.372 108.757 147.969 109.715C149.754 110.786 151.777 112 155.664 112C159.551 112 161.575 110.786 163.36 109.715C164.957 108.757 166.218 108 168.997 108C171.777 108 173.038 108.757 174.635 109.715C176.42 110.786 178.443 112 182.33 112C186.218 112 188.241 110.786 190.026 109.715C191.624 108.757 192.886 108 195.665 108C198.445 108 199.706 108.757 201.303 109.715C203.089 110.786 205.112 112 209 112C209.53 112 210.039 111.789 210.414 111.414C210.789 111.039 211 110.53 211 110C211 109.47 210.789 108.961 210.414 108.586C210.039 108.211 209.53 108 209 108Z" fill="#334155"/>
<path d="M77.7331 152V140.64H82.1331C84.7891 140.64 86.3731 142 86.3731 144.256C86.3731 146.528 84.7891 147.904 82.1331 147.904H79.8131V152H77.7331ZM79.8131 146.096H82.0371C83.4451 146.096 84.2291 145.472 84.2291 144.256C84.2291 143.072 83.4611 142.448 82.0371 142.448H79.8131V146.096ZM91.441 152.192C88.881 152.192 87.249 150.432 87.249 147.728C87.249 145.04 88.881 143.264 91.393 143.264C93.841 143.264 95.441 144.96 95.441 147.84V148.304H89.377C89.441 149.808 90.225 150.56 91.457 150.56C92.369 150.56 92.977 150.128 93.233 149.376L95.329 149.504C94.865 151.168 93.409 152.192 91.441 152.192ZM89.377 146.928H93.329C93.233 145.536 92.481 144.88 91.393 144.88C90.289 144.88 89.537 145.6 89.377 146.928ZM97.0419 152V143.456H98.8979L98.9459 144.912C99.4099 143.744 100.37 143.264 101.506 143.264C103.394 143.264 104.418 144.592 104.418 146.512V152H102.37V147.168C102.37 145.728 101.986 144.928 100.882 144.928C99.7779 144.928 99.0899 145.728 99.0899 147.168V152H97.0419ZM110.096 154.592C107.84 154.592 106.592 153.616 106.208 152.16L108.32 152.016C108.528 152.672 108.992 153.04 110.096 153.04C111.36 153.04 112.064 152.496 112.064 151.296V150.208C111.664 151.04 110.688 151.584 109.584 151.584C107.456 151.584 105.952 149.92 105.952 147.44C105.952 144.992 107.44 143.264 109.552 143.264C110.784 143.264 111.712 143.856 112.128 144.784V143.456H114.128V151.248C114.128 153.44 112.528 154.592 110.096 154.592ZM110.064 149.984C111.28 149.984 112.064 149.024 112.08 147.424C112.096 145.84 111.296 144.864 110.064 144.864C108.816 144.864 108.08 145.856 108.08 147.424C108.08 148.992 108.848 149.984 110.064 149.984ZM116.166 142.32V140.496H118.294V142.32H116.166ZM116.198 152V143.456H118.246V152H116.198ZM120.62 152V143.456H122.54L122.588 145.12C122.924 143.968 123.58 143.456 124.636 143.456H125.42V145.216H124.62C123.308 145.216 122.668 145.76 122.668 147.072V152H120.62ZM126.713 142.32V140.496H128.841V142.32H126.713ZM126.745 152V143.456H128.793V152H126.745ZM131.167 152V143.456H133.023L133.071 144.88C133.503 143.856 134.367 143.264 135.423 143.264C136.671 143.264 137.535 143.92 137.903 145.024C138.287 143.888 139.167 143.264 140.351 143.264C142.111 143.264 143.199 144.4 143.199 146.512V152H141.151V147.04C141.151 145.632 140.687 144.928 139.695 144.928C138.719 144.928 138.127 145.728 138.127 147.104V152H136.223V147.104C136.223 145.712 135.839 144.928 134.799 144.928C133.823 144.928 133.215 145.744 133.215 147.104V152H131.167ZM147.725 152.192C145.933 152.192 144.749 151.344 144.749 149.856C144.749 148.384 145.661 147.6 147.533 147.232L150.365 146.672C150.365 145.472 149.805 144.848 148.717 144.848C147.725 144.848 147.165 145.312 146.973 146.176L144.893 146.08C145.229 144.288 146.605 143.264 148.717 143.264C151.149 143.264 152.413 144.544 152.413 146.816V149.92C152.413 150.384 152.573 150.512 152.893 150.512H153.165V152C153.021 152.032 152.701 152.064 152.413 152.064C151.485 152.064 150.797 151.728 150.637 150.688C150.205 151.6 149.117 152.192 147.725 152.192ZM148.141 150.704C149.501 150.704 150.365 149.84 150.365 148.544V148.064L148.157 148.512C147.245 148.688 146.877 149.072 146.877 149.664C146.877 150.336 147.325 150.704 148.141 150.704ZM154.495 152V143.456H156.351L156.399 144.912C156.863 143.744 157.823 143.264 158.959 143.264C160.847 143.264 161.871 144.592 161.871 146.512V152H159.823V147.168C159.823 145.728 159.439 144.928 158.335 144.928C157.231 144.928 156.543 145.728 156.543 147.168V152H154.495ZM168.046 152V140.64H172.302C175.07 140.64 176.542 141.584 176.542 143.712C176.542 145.056 175.726 145.952 174.302 146.128C176.046 146.304 177.022 147.328 177.022 148.88C177.022 150.96 175.534 152 172.878 152H168.046ZM170.126 145.408H172.238C173.598 145.408 174.414 144.88 174.414 143.904C174.414 142.88 173.646 142.4 172.238 142.4H170.126V145.408ZM170.126 150.24H172.782C174.078 150.24 174.894 149.696 174.894 148.656C174.894 147.6 174.094 147.04 172.782 147.04H170.126V150.24ZM181.35 152.192C179.558 152.192 178.374 151.344 178.374 149.856C178.374 148.384 179.286 147.6 181.158 147.232L183.99 146.672C183.99 145.472 183.43 144.848 182.342 144.848C181.35 144.848 180.79 145.312 180.598 146.176L178.518 146.08C178.854 144.288 180.23 143.264 182.342 143.264C184.774 143.264 186.038 144.544 186.038 146.816V149.92C186.038 150.384 186.198 150.512 186.518 150.512H186.79V152C186.646 152.032 186.326 152.064 186.038 152.064C185.11 152.064 184.422 151.728 184.262 150.688C183.83 151.6 182.742 152.192 181.35 152.192ZM181.766 150.704C183.126 150.704 183.99 149.84 183.99 148.544V148.064L181.782 148.512C180.87 148.688 180.502 149.072 180.502 149.664C180.502 150.336 180.95 150.704 181.766 150.704ZM188.12 152V143.456H190.04L190.088 145.12C190.424 143.968 191.08 143.456 192.136 143.456H192.92V145.216H192.12C190.808 145.216 190.168 145.76 190.168 147.072V152H188.12ZM196.569 152.192C194.777 152.192 193.593 151.344 193.593 149.856C193.593 148.384 194.505 147.6 196.377 147.232L199.209 146.672C199.209 145.472 198.649 144.848 197.561 144.848C196.569 144.848 196.009 145.312 195.817 146.176L193.737 146.08C194.073 144.288 195.449 143.264 197.561 143.264C199.993 143.264 201.257 144.544 201.257 146.816V149.92C201.257 150.384 201.417 150.512 201.737 150.512H202.009V152C201.865 152.032 201.545 152.064 201.257 152.064C200.329 152.064 199.641 151.728 199.481 150.688C199.049 151.6 197.961 152.192 196.569 152.192ZM196.985 150.704C198.345 150.704 199.209 149.84 199.209 148.544V148.064L197.001 148.512C196.089 148.688 195.721 149.072 195.721 149.664C195.721 150.336 196.169 150.704 196.985 150.704ZM203.339 152V143.456H205.195L205.243 144.912C205.707 143.744 206.667 143.264 207.803 143.264C209.691 143.264 210.715 144.592 210.715 146.512V152H208.667V147.168C208.667 145.728 208.283 144.928 207.179 144.928C206.075 144.928 205.387 145.728 205.387 147.168V152H203.339ZM216.393 154.592C214.137 154.592 212.889 153.616 212.505 152.16L214.617 152.016C214.825 152.672 215.289 153.04 216.393 153.04C217.657 153.04 218.361 152.496 218.361 151.296V150.208C217.961 151.04 216.985 151.584 215.881 151.584C213.753 151.584 212.249 149.92 212.249 147.44C212.249 144.992 213.737 143.264 215.849 143.264C217.081 143.264 218.009 143.856 218.425 144.784V143.456H220.425V151.248C220.425 153.44 218.825 154.592 216.393 154.592ZM216.361 149.984C217.577 149.984 218.361 149.024 218.377 147.424C218.393 145.84 217.593 144.864 216.361 144.864C215.113 144.864 214.377 145.856 214.377 147.424C214.377 148.992 215.145 149.984 216.361 149.984ZM68.6605 183V165.96H71.7325V175.968L76.9885 170.184H80.7805L75.7645 175.512L80.9485 183H77.4925L73.7485 177.336L71.7325 179.472V183H68.6605ZM87.7279 183.288C83.8879 183.288 81.4399 180.648 81.4399 176.592C81.4399 172.56 83.8879 169.896 87.6559 169.896C91.3279 169.896 93.7279 172.44 93.7279 176.76V177.456H84.6319C84.7279 179.712 85.9039 180.84 87.7519 180.84C89.1199 180.84 90.0319 180.192 90.4159 179.064L93.5599 179.256C92.8639 181.752 90.6799 183.288 87.7279 183.288ZM84.6319 175.392H90.5599C90.4159 173.304 89.2879 172.32 87.6559 172.32C85.9999 172.32 84.8719 173.4 84.6319 175.392ZM102.275 183V165.96H108.875C112.859 165.96 115.235 168 115.235 171.384C115.235 174.792 112.859 176.856 108.875 176.856H105.395V183H102.275ZM105.395 174.144H108.731C110.843 174.144 112.019 173.208 112.019 171.384C112.019 169.608 110.867 168.672 108.731 168.672H105.395V174.144ZM122.861 183.288C119.045 183.288 116.549 180.648 116.549 176.592C116.549 172.536 119.045 169.896 122.861 169.896C126.653 169.896 129.149 172.536 129.149 176.592C129.149 180.648 126.653 183.288 122.861 183.288ZM122.861 180.792C124.829 180.792 125.957 179.256 125.957 176.592C125.957 173.952 124.829 172.392 122.861 172.392C120.869 172.392 119.741 173.952 119.741 176.592C119.741 179.256 120.869 180.792 122.861 180.792ZM131.52 183V170.184H134.4L134.472 172.68C134.976 170.952 135.96 170.184 137.544 170.184H138.72V172.824H137.52C135.552 172.824 134.592 173.64 134.592 175.608V183H131.52ZM145.562 183C143.018 183 141.842 181.872 141.842 179.328V172.56H139.826V170.184H141.842V167.184H144.914V170.184H148.298V172.56H144.914V179.04C144.914 180.24 145.418 180.624 146.498 180.624H148.298V183H145.562ZM160.108 183V168.672H154.924V165.96H168.388V168.672H163.228V183H160.108ZM173.197 183.288C170.581 183.288 168.973 181.488 168.973 178.44V170.184H172.045V177.672C172.045 179.832 172.741 180.792 174.229 180.792C175.885 180.792 176.845 179.664 176.845 177.552V170.184H179.917V183H177.109L177.061 180.912C176.389 182.472 175.069 183.288 173.197 183.288ZM184.017 168.48V165.744H187.209V168.48H184.017ZM181.377 186.6V184.224H182.649C183.561 184.224 184.065 183.912 184.065 182.808V170.184H187.137V182.904C187.137 185.544 186.057 186.6 183.201 186.6H181.377ZM194.314 183.288C191.698 183.288 190.09 181.488 190.09 178.44V170.184H193.162V177.672C193.162 179.832 193.858 180.792 195.346 180.792C197.002 180.792 197.962 179.664 197.962 177.552V170.184H201.034V183H198.226L198.178 180.912C197.506 182.472 196.186 183.288 194.314 183.288ZM208.13 183.288C205.442 183.288 203.666 182.016 203.666 179.784C203.666 177.576 205.034 176.4 207.842 175.848L212.09 175.008C212.09 173.208 211.25 172.272 209.618 172.272C208.13 172.272 207.29 172.968 207.002 174.264L203.882 174.12C204.386 171.432 206.45 169.896 209.618 169.896C213.266 169.896 215.162 171.816 215.162 175.224V179.88C215.162 180.576 215.402 180.768 215.882 180.768H216.29V183C216.074 183.048 215.594 183.096 215.162 183.096C213.77 183.096 212.738 182.592 212.498 181.032C211.85 182.4 210.218 183.288 208.13 183.288ZM208.754 181.056C210.794 181.056 212.09 179.76 212.09 177.816V177.096L208.778 177.768C207.41 178.032 206.858 178.608 206.858 179.496C206.858 180.504 207.53 181.056 208.754 181.056ZM218.285 183V170.184H221.069L221.141 172.368C221.837 170.616 223.277 169.896 224.981 169.896C227.813 169.896 229.349 171.888 229.349 174.768V183H226.277V175.752C226.277 173.592 225.701 172.392 224.045 172.392C222.389 172.392 221.357 173.592 221.357 175.752V183H218.285Z" fill="#334155"/>
<circle cx="31" cy="31" r="31" fill="#0891B2"/>
<path d="M33.346 48V41.52H16.402V35.712L31.954 13.92H40.642V35.376H44.626V41.52H40.642V48H33.346ZM24.13 35.376H33.346V22.896L24.13 35.376Z" fill="white"/>
</svg>
