<svg width="264" height="216" viewBox="0 0 264 216" fill="none" xmlns="http://www.w3.org/2000/svg">
<g clip-path="url(#clip0_391_2031)">
<path d="M136 143C135.47 143 134.961 142.789 134.586 142.414C134.211 142.039 134 141.53 134 141V84.954C134.003 84.8377 134.017 84.722 134.04 84.608C134.117 84.2181 134.308 83.8601 134.59 83.58C134.66 83.5108 134.735 83.4467 134.814 83.388C134.962 83.2789 135.125 83.1913 135.298 83.128L185.258 63.142C185.646 62.9875 186.072 62.9582 186.478 63.0583C186.883 63.1584 187.247 63.3828 187.518 63.7L199.518 77.7C199.72 77.935 199.864 78.2137 199.939 78.514C200.015 78.8142 200.02 79.128 199.954 79.4305C199.887 79.7329 199.752 80.0159 199.557 80.257C199.363 80.4981 199.115 80.6909 198.834 80.82L188 85.784V117C188 117.377 187.893 117.746 187.693 118.064C187.492 118.383 187.206 118.639 186.866 118.802L136.866 142.802C136.596 142.933 136.3 143 136 143ZM138 90.32V137.82L184 115.74V87.62L150.848 102.82C150.456 102.999 150.017 103.048 149.595 102.958C149.174 102.868 148.792 102.644 148.508 102.32L138 90.32ZM139.366 85.806L150.536 98.56L185.146 82.694L185.186 82.674L194.756 78.288L185.414 67.388L139.366 85.806Z" fill="#334155"/>
<path d="M135.998 143C135.699 143 135.403 142.932 135.134 142.802L85.134 118.802C84.7945 118.639 84.5079 118.383 84.3073 118.064C84.1067 117.746 84.0001 117.377 84 117V84.48C84 83.9495 84.2107 83.4408 84.5858 83.0658C84.9609 82.6907 85.4696 82.48 86 82.48C86.5304 82.48 87.0391 82.6907 87.4142 83.0658C87.7893 83.4408 88 83.9495 88 84.48V115.742L136.866 139.2C137.274 139.397 137.604 139.726 137.8 140.134C137.997 140.542 138.049 141.005 137.948 141.447C137.847 141.889 137.599 142.283 137.245 142.566C136.891 142.848 136.451 143 135.998 143Z" fill="#334155"/>
<path d="M122 103C121.712 103.001 121.428 102.939 121.166 102.82L73.1661 80.792C72.8849 80.6623 72.6376 80.4691 72.4438 80.2276C72.2499 79.9861 72.1147 79.7029 72.0488 79.4003C71.9829 79.0978 71.9881 78.784 72.0639 78.4838C72.1398 78.1835 72.2843 77.905 72.4861 77.67L84.5181 63.696C84.7899 63.3795 85.1539 63.1559 85.5592 63.0565C85.9645 62.9572 86.3906 62.9871 86.7781 63.142L136.744 83.142C137.041 83.261 137.305 83.4494 137.513 83.6913C137.722 83.9333 137.87 84.2217 137.945 84.5326C138.019 84.8434 138.018 85.1676 137.941 85.4779C137.865 85.7882 137.715 86.0756 137.504 86.316L123.504 102.316C123.317 102.531 123.085 102.703 122.826 102.821C122.567 102.939 122.285 103 122 103ZM77.2501 78.266L121.478 98.56L132.634 85.806L86.6201 67.388L77.2501 78.266Z" fill="#334155"/>
<path d="M86.0401 67C85.5814 66.9998 85.1366 66.8419 84.7805 66.5527C84.4243 66.2636 84.1784 65.8608 84.0839 65.4118C83.9894 64.9629 84.0521 64.4952 84.2616 64.087C84.471 63.6788 84.8143 63.3551 85.2341 63.17L97.2141 57.89C97.6965 57.6936 98.2365 57.6931 98.7192 57.8886C99.2019 58.0841 99.5893 58.4603 99.7991 58.937C100.009 59.4137 100.024 59.9535 99.8422 60.4415C99.6601 60.9294 99.2949 61.3271 98.8241 61.55L86.8441 66.83C86.5915 66.9417 86.3163 66.9996 86.0401 67ZM185.998 67C185.721 66.9996 185.446 66.9417 185.192 66.83C182.864 65.7993 180.532 64.7726 178.196 63.75C175.86 62.726 173.525 61.6993 171.192 60.67C170.952 60.5639 170.735 60.4115 170.553 60.2215C170.372 60.0315 170.23 59.8076 170.135 59.5626C169.943 59.0679 169.956 58.5173 170.17 58.032C170.384 57.5466 170.783 57.1663 171.277 56.9746C171.522 56.8797 171.784 56.834 172.046 56.8401C172.309 56.8461 172.568 56.9039 172.808 57.01C175.136 58.0406 177.468 59.0666 179.804 60.088C182.14 61.1133 184.475 62.14 186.808 63.168C187.229 63.3524 187.574 63.6763 187.784 64.0851C187.995 64.494 188.058 64.9628 187.963 65.4126C187.868 65.8625 187.621 66.2659 187.263 66.555C186.906 66.8441 186.458 67.0013 185.998 67Z" fill="#334155"/>
<path d="M130 84.61C129.47 84.61 128.961 84.3993 128.586 84.0242C128.211 83.6491 128 83.1404 128 82.61V59C128 58.5803 128.132 58.1713 128.378 57.831C128.623 57.4907 128.97 57.2363 129.368 57.104L171.368 43.104C171.669 43.0034 171.989 42.9758 172.302 43.0234C172.615 43.0709 172.913 43.1923 173.17 43.3776C173.427 43.5628 173.636 43.8065 173.781 44.0886C173.925 44.3707 174 44.6831 174 45V70.6C174 71.1304 173.789 71.6391 173.414 72.0142C173.039 72.3893 172.53 72.6 172 72.6C171.47 72.6 170.961 72.3893 170.586 72.0142C170.211 71.6391 170 71.1304 170 70.6V47.776L132 60.44V82.608C132 83.1384 131.789 83.6471 131.414 84.0222C131.039 84.3973 130.53 84.61 130 84.61Z" fill="#334155"/>
<path d="M98.028 71.812C97.4979 71.812 96.9895 71.6016 96.6145 71.2269C96.2395 70.8523 96.0285 70.3441 96.028 69.814L96 45.002C95.9998 44.6698 96.0824 44.3429 96.2403 44.0506C96.3981 43.7583 96.6263 43.51 96.9042 43.328C97.182 43.146 97.5008 43.0361 97.8318 43.0081C98.1628 42.9802 98.4956 43.0351 98.8 43.168L130.8 57.168C131.27 57.3906 131.634 57.7873 131.817 58.274C131.999 58.7608 131.985 59.2994 131.777 59.7758C131.569 60.2521 131.183 60.6288 130.702 60.826C130.221 61.0231 129.683 61.0253 129.2 60.832L100.004 48.058L100.028 69.81C100.028 70.0728 99.9767 70.3331 99.8763 70.576C99.7759 70.8189 99.6287 71.0396 99.4429 71.2255C99.2572 71.4114 99.0366 71.5589 98.7938 71.6596C98.551 71.7602 98.2908 71.812 98.028 71.812Z" fill="#334155"/>
<path d="M172 47C171.775 46.9999 171.552 46.9621 171.34 46.888L132.06 33.14L98.76 46.852C98.5171 46.9518 98.2569 47.0028 97.9942 47.002C97.7316 47.0013 97.4716 46.9488 97.2293 46.8476C96.9869 46.7463 96.7669 46.5984 96.5817 46.4121C96.3965 46.2259 96.2498 46.0049 96.15 45.762C95.9485 45.2714 95.9501 44.7207 96.1545 44.2313C96.3589 43.7418 96.7494 43.3536 97.24 43.152L131.24 29.152C131.693 28.9657 132.198 28.9515 132.66 29.112L172.66 43.112C173.106 43.2679 173.482 43.5766 173.722 43.9834C173.963 44.3903 174.051 44.869 173.972 45.3347C173.893 45.8005 173.651 46.2232 173.291 46.528C172.93 46.8328 172.472 47 172 47ZM142 131C141.54 131 141.093 130.841 140.736 130.55C140.379 130.259 140.134 129.853 140.041 129.402C139.949 128.951 140.015 128.482 140.228 128.074C140.441 127.666 140.789 127.344 141.212 127.162L155.212 121.162C155.698 120.962 156.243 120.961 156.73 121.16C157.216 121.358 157.605 121.74 157.812 122.223C158.019 122.706 158.028 123.251 157.836 123.741C157.645 124.23 157.268 124.624 156.788 124.838L142.788 130.838C142.539 130.946 142.271 131.001 142 131ZM142 123C141.54 123 141.093 122.841 140.736 122.55C140.379 122.259 140.134 121.853 140.041 121.402C139.949 120.951 140.015 120.482 140.228 120.074C140.441 119.666 140.789 119.344 141.212 119.162L155.212 113.162C155.698 112.962 156.243 112.961 156.73 113.16C157.216 113.358 157.605 113.74 157.812 114.223C158.019 114.706 158.028 115.251 157.836 115.741C157.645 116.23 157.268 116.624 156.788 116.838L142.788 122.838C142.539 122.946 142.271 123.001 142 123ZM128 127C127.746 127.001 127.494 126.952 127.258 126.858L117.258 122.858C116.887 122.71 116.568 122.453 116.344 122.122C116.12 121.791 116 121.4 116 121V111C116 110.673 116.08 110.351 116.233 110.063C116.386 109.774 116.608 109.527 116.878 109.344C117.149 109.16 117.46 109.046 117.785 109.011C118.11 108.976 118.439 109.021 118.742 109.142L128.742 113.142C129.113 113.29 129.432 113.547 129.656 113.878C129.88 114.209 130 114.6 130 115V125C130 125.53 129.789 126.039 129.414 126.414C129.039 126.789 128.53 127 128 127ZM120 119.646L126 122.046V116.354L120 113.954V119.646Z" fill="#334155"/>
<path d="M148 82.224C147.469 82.224 146.961 82.0133 146.586 81.6382C146.211 81.2631 146 80.7544 146 80.224V54.308L113.546 40.1C113.305 39.9946 113.088 39.8428 112.906 39.6533C112.724 39.4638 112.581 39.2403 112.486 38.9956C112.39 38.7509 112.344 38.4898 112.349 38.2272C112.354 37.9646 112.411 37.7056 112.517 37.465C112.622 37.2244 112.774 37.007 112.964 36.8251C113.153 36.6432 113.377 36.5003 113.621 36.4048C113.866 36.3092 114.127 36.2628 114.39 36.2682C114.652 36.2735 114.911 36.3306 115.152 36.436L148.802 51.168C149.158 51.3239 149.461 51.5802 149.674 51.9056C149.887 52.2309 150 52.6113 150 53V80.224C150 80.7544 149.789 81.2631 149.414 81.6382C149.039 82.0133 148.53 82.224 148 82.224Z" fill="#334155"/>
</g>
<path d="M29.8347 178V166.64H34.2347C36.8907 166.64 38.4747 168 38.4747 170.256C38.4747 172.528 36.8907 173.904 34.2347 173.904H31.9147V178H29.8347ZM31.9147 172.096H34.1387C35.5467 172.096 36.3307 171.472 36.3307 170.256C36.3307 169.072 35.5627 168.448 34.1387 168.448H31.9147V172.096ZM40.1903 178V169.456H42.1103L42.1583 171.12C42.4943 169.968 43.1503 169.456 44.2063 169.456H44.9903V171.216H44.1903C42.8783 171.216 42.2383 171.76 42.2383 173.072V178H40.1903ZM49.8086 178.192C47.2646 178.192 45.6006 176.432 45.6006 173.728C45.6006 171.024 47.2646 169.264 49.8086 169.264C52.3366 169.264 54.0006 171.024 54.0006 173.728C54.0006 176.432 52.3366 178.192 49.8086 178.192ZM49.8086 176.528C51.1206 176.528 51.8726 175.504 51.8726 173.728C51.8726 171.968 51.1206 170.928 49.8086 170.928C48.4806 170.928 47.7286 171.968 47.7286 173.728C47.7286 175.504 48.4806 176.528 49.8086 176.528ZM59.0529 178.192C56.5249 178.192 55.2129 176.992 55.0849 175.312L57.1809 175.216C57.3249 176.112 57.8849 176.624 59.0689 176.624C60.0129 176.624 60.6049 176.336 60.6049 175.664C60.6049 175.088 60.3009 174.832 58.7329 174.56C56.1089 174.112 55.2929 173.408 55.2929 171.952C55.2929 170.368 56.5249 169.264 58.9089 169.264C61.2129 169.264 62.3969 170.496 62.6209 172.144L60.5569 172.24C60.4129 171.376 59.8369 170.832 58.8769 170.832C57.9169 170.832 57.4209 171.264 57.4209 171.888C57.4209 172.576 57.8689 172.848 59.1649 173.056C61.8529 173.472 62.7169 174.208 62.7169 175.632C62.7169 177.28 61.2449 178.192 59.0529 178.192ZM68.0113 178.192C65.4513 178.192 63.8193 176.432 63.8193 173.728C63.8193 171.04 65.4513 169.264 67.9633 169.264C70.4113 169.264 72.0113 170.96 72.0113 173.84V174.304H65.9473C66.0113 175.808 66.7953 176.56 68.0273 176.56C68.9393 176.56 69.5473 176.128 69.8033 175.376L71.8993 175.504C71.4353 177.168 69.9793 178.192 68.0113 178.192ZM65.9473 172.928H69.8993C69.8033 171.536 69.0513 170.88 67.9633 170.88C66.8593 170.88 66.1073 171.6 65.9473 172.928ZM77.0842 178.192C74.5562 178.192 73.2442 176.992 73.1162 175.312L75.2122 175.216C75.3562 176.112 75.9162 176.624 77.1002 176.624C78.0442 176.624 78.6362 176.336 78.6362 175.664C78.6362 175.088 78.3322 174.832 76.7642 174.56C74.1402 174.112 73.3242 173.408 73.3242 171.952C73.3242 170.368 74.5562 169.264 76.9402 169.264C79.2442 169.264 80.4282 170.496 80.6522 172.144L78.5882 172.24C78.4442 171.376 77.8682 170.832 76.9082 170.832C75.9482 170.832 75.4522 171.264 75.4522 171.888C75.4522 172.576 75.9002 172.848 77.1962 173.056C79.8842 173.472 80.7482 174.208 80.7482 175.632C80.7482 177.28 79.2762 178.192 77.0842 178.192ZM86.4441 178V166.64H90.8441C93.5001 166.64 95.0841 168 95.0841 170.256C95.0841 172.528 93.5001 173.904 90.8441 173.904H88.5241V178H86.4441ZM88.5241 172.096H90.7481C92.1561 172.096 92.9401 171.472 92.9401 170.256C92.9401 169.072 92.1721 168.448 90.7481 168.448H88.5241V172.096ZM100.152 178.192C97.5919 178.192 95.9599 176.432 95.9599 173.728C95.9599 171.04 97.5919 169.264 100.104 169.264C102.552 169.264 104.152 170.96 104.152 173.84V174.304H98.0879C98.1519 175.808 98.9359 176.56 100.168 176.56C101.08 176.56 101.688 176.128 101.944 175.376L104.04 175.504C103.576 177.168 102.12 178.192 100.152 178.192ZM98.0879 172.928H102.04C101.944 171.536 101.192 170.88 100.104 170.88C98.9999 170.88 98.2479 171.6 98.0879 172.928ZM105.753 178V169.456H107.609L107.657 170.912C108.121 169.744 109.081 169.264 110.217 169.264C112.105 169.264 113.129 170.592 113.129 172.512V178H111.081V173.168C111.081 171.728 110.697 170.928 109.593 170.928C108.489 170.928 107.801 171.728 107.801 173.168V178H105.753ZM118.807 180.592C116.551 180.592 115.303 179.616 114.919 178.16L117.031 178.016C117.239 178.672 117.703 179.04 118.807 179.04C120.071 179.04 120.775 178.496 120.775 177.296V176.208C120.375 177.04 119.399 177.584 118.295 177.584C116.167 177.584 114.663 175.92 114.663 173.44C114.663 170.992 116.151 169.264 118.263 169.264C119.495 169.264 120.423 169.856 120.839 170.784V169.456H122.839V177.248C122.839 179.44 121.239 180.592 118.807 180.592ZM118.775 175.984C119.991 175.984 120.775 175.024 120.791 173.424C120.807 171.84 120.007 170.864 118.775 170.864C117.527 170.864 116.791 171.856 116.791 173.424C116.791 174.992 117.559 175.984 118.775 175.984ZM127.561 178.192C125.769 178.192 124.585 177.344 124.585 175.856C124.585 174.384 125.497 173.6 127.369 173.232L130.201 172.672C130.201 171.472 129.641 170.848 128.553 170.848C127.561 170.848 127.001 171.312 126.809 172.176L124.729 172.08C125.065 170.288 126.441 169.264 128.553 169.264C130.985 169.264 132.249 170.544 132.249 172.816V175.92C132.249 176.384 132.409 176.512 132.729 176.512H133.001V178C132.857 178.032 132.537 178.064 132.249 178.064C131.321 178.064 130.633 177.728 130.473 176.688C130.041 177.6 128.953 178.192 127.561 178.192ZM127.977 176.704C129.337 176.704 130.201 175.84 130.201 174.544V174.064L127.993 174.512C127.081 174.688 126.713 175.072 126.713 175.664C126.713 176.336 127.161 176.704 127.977 176.704ZM134.331 178V169.456H136.187L136.235 170.88C136.667 169.856 137.531 169.264 138.587 169.264C139.835 169.264 140.699 169.92 141.067 171.024C141.451 169.888 142.331 169.264 143.515 169.264C145.275 169.264 146.363 170.4 146.363 172.512V178H144.315V173.04C144.315 171.632 143.851 170.928 142.859 170.928C141.883 170.928 141.291 171.728 141.291 173.104V178H139.387V173.104C139.387 171.712 139.003 170.928 137.963 170.928C136.987 170.928 136.379 171.744 136.379 173.104V178H134.331ZM153.048 178.192C151.848 178.192 150.936 177.648 150.456 176.736L150.408 178H148.456V166.64H150.504V170.672C150.952 169.904 151.864 169.264 153.048 169.264C155.256 169.264 156.648 171.008 156.648 173.728C156.648 176.448 155.256 178.192 153.048 178.192ZM152.584 176.528C153.752 176.528 154.52 175.472 154.52 173.728C154.52 171.952 153.768 170.928 152.6 170.928C151.272 170.928 150.504 171.952 150.504 173.728C150.504 175.472 151.272 176.528 152.584 176.528ZM158.205 168.32V166.496H160.333V168.32H158.205ZM158.237 178V169.456H160.285V178H158.237ZM164.473 178C163.225 178 162.425 177.408 162.425 175.984V166.64H164.473V175.776C164.473 176.224 164.697 176.416 165.113 176.416H165.737V178H164.473ZM169.623 178.192C167.831 178.192 166.647 177.344 166.647 175.856C166.647 174.384 167.559 173.6 169.431 173.232L172.263 172.672C172.263 171.472 171.703 170.848 170.615 170.848C169.623 170.848 169.063 171.312 168.871 172.176L166.791 172.08C167.127 170.288 168.503 169.264 170.615 169.264C173.047 169.264 174.311 170.544 174.311 172.816V175.92C174.311 176.384 174.471 176.512 174.791 176.512H175.063V178C174.919 178.032 174.599 178.064 174.311 178.064C173.383 178.064 172.695 177.728 172.535 176.688C172.103 177.6 171.015 178.192 169.623 178.192ZM170.039 176.704C171.399 176.704 172.263 175.84 172.263 174.544V174.064L170.055 174.512C169.143 174.688 168.775 175.072 168.775 175.664C168.775 176.336 169.223 176.704 170.039 176.704ZM176.393 178V169.456H178.249L178.297 170.912C178.761 169.744 179.721 169.264 180.857 169.264C182.745 169.264 183.769 170.592 183.769 172.512V178H181.721V173.168C181.721 171.728 181.337 170.928 180.233 170.928C179.129 170.928 178.441 171.728 178.441 173.168V178H176.393ZM189.944 178V166.64H194.2C196.968 166.64 198.44 167.584 198.44 169.712C198.44 171.056 197.624 171.952 196.2 172.128C197.944 172.304 198.92 173.328 198.92 174.88C198.92 176.96 197.432 178 194.776 178H189.944ZM192.024 171.408H194.136C195.496 171.408 196.312 170.88 196.312 169.904C196.312 168.88 195.544 168.4 194.136 168.4H192.024V171.408ZM192.024 176.24H194.68C195.976 176.24 196.792 175.696 196.792 174.656C196.792 173.6 195.992 173.04 194.68 173.04H192.024V176.24ZM203.248 178.192C201.456 178.192 200.272 177.344 200.272 175.856C200.272 174.384 201.184 173.6 203.056 173.232L205.888 172.672C205.888 171.472 205.328 170.848 204.24 170.848C203.248 170.848 202.688 171.312 202.496 172.176L200.416 172.08C200.752 170.288 202.128 169.264 204.24 169.264C206.672 169.264 207.936 170.544 207.936 172.816V175.92C207.936 176.384 208.096 176.512 208.416 176.512H208.688V178C208.544 178.032 208.224 178.064 207.936 178.064C207.008 178.064 206.32 177.728 206.16 176.688C205.728 177.6 204.64 178.192 203.248 178.192ZM203.664 176.704C205.024 176.704 205.888 175.84 205.888 174.544V174.064L203.68 174.512C202.768 174.688 202.4 175.072 202.4 175.664C202.4 176.336 202.848 176.704 203.664 176.704ZM210.018 178V169.456H211.938L211.986 171.12C212.322 169.968 212.978 169.456 214.034 169.456H214.818V171.216H214.018C212.706 171.216 212.066 171.76 212.066 173.072V178H210.018ZM218.467 178.192C216.675 178.192 215.491 177.344 215.491 175.856C215.491 174.384 216.403 173.6 218.275 173.232L221.107 172.672C221.107 171.472 220.547 170.848 219.459 170.848C218.467 170.848 217.907 171.312 217.715 172.176L215.635 172.08C215.971 170.288 217.347 169.264 219.459 169.264C221.891 169.264 223.155 170.544 223.155 172.816V175.92C223.155 176.384 223.315 176.512 223.635 176.512H223.907V178C223.763 178.032 223.443 178.064 223.155 178.064C222.227 178.064 221.539 177.728 221.379 176.688C220.947 177.6 219.859 178.192 218.467 178.192ZM218.883 176.704C220.243 176.704 221.107 175.84 221.107 174.544V174.064L218.899 174.512C217.987 174.688 217.619 175.072 217.619 175.664C217.619 176.336 218.067 176.704 218.883 176.704ZM225.237 178V169.456H227.093L227.141 170.912C227.605 169.744 228.565 169.264 229.701 169.264C231.589 169.264 232.613 170.592 232.613 172.512V178H230.565V173.168C230.565 171.728 230.181 170.928 229.077 170.928C227.973 170.928 227.285 171.728 227.285 173.168V178H225.237ZM238.291 180.592C236.035 180.592 234.787 179.616 234.403 178.16L236.515 178.016C236.723 178.672 237.187 179.04 238.291 179.04C239.555 179.04 240.259 178.496 240.259 177.296V176.208C239.859 177.04 238.883 177.584 237.779 177.584C235.651 177.584 234.147 175.92 234.147 173.44C234.147 170.992 235.635 169.264 237.747 169.264C238.979 169.264 239.907 169.856 240.323 170.784V169.456H242.323V177.248C242.323 179.44 240.723 180.592 238.291 180.592ZM238.259 175.984C239.475 175.984 240.259 175.024 240.275 173.424C240.291 171.84 239.491 170.864 238.259 170.864C237.011 170.864 236.275 171.856 236.275 173.424C236.275 174.992 237.043 175.984 238.259 175.984ZM39.1245 209.384C34.0605 209.384 31.0125 206 31.0125 200.504C31.0125 195.008 34.0605 191.576 39.1245 191.576C44.2125 191.576 47.2605 195.008 47.2605 200.504C47.2605 206 44.2125 209.384 39.1245 209.384ZM39.1245 206.672C42.2205 206.672 44.0445 204.392 44.0445 200.504C44.0445 196.616 42.2205 194.288 39.1245 194.288C36.0765 194.288 34.2285 196.616 34.2285 200.504C34.2285 204.392 36.0765 206.672 39.1245 206.672ZM53.0372 209C51.1652 209 49.9652 208.112 49.9652 205.976V191.96H53.0372V205.664C53.0372 206.336 53.3732 206.624 53.9972 206.624H54.9332V209H53.0372ZM62.4467 209.288C58.6067 209.288 56.1587 206.648 56.1587 202.592C56.1587 198.56 58.6067 195.896 62.3747 195.896C66.0467 195.896 68.4467 198.44 68.4467 202.76V203.456H59.3507C59.4467 205.712 60.6227 206.84 62.4707 206.84C63.8387 206.84 64.7507 206.192 65.1347 205.064L68.2787 205.256C67.5827 207.752 65.3987 209.288 62.4467 209.288ZM59.3507 201.392H65.2787C65.1347 199.304 64.0067 198.32 62.3747 198.32C60.7187 198.32 59.5907 199.4 59.3507 201.392ZM70.848 209V191.96H73.92V197.888C74.616 196.544 75.984 195.896 77.568 195.896C80.4 195.896 81.912 197.912 81.912 200.768V209H78.84V201.512C78.84 199.424 78.144 198.392 76.656 198.392C74.976 198.392 73.92 199.496 73.92 201.584V209H70.848ZM91.1739 209V191.96H94.2939V199.736L100.966 191.96H104.662L98.2779 199.448L105.07 209H101.494L96.2139 201.584L94.2939 203.768V209H91.1739ZM110.556 209.288C107.94 209.288 106.332 207.488 106.332 204.44V196.184H109.404V203.672C109.404 205.832 110.1 206.792 111.588 206.792C113.244 206.792 114.204 205.664 114.204 203.552V196.184H117.276V209H114.468L114.42 206.912C113.748 208.472 112.428 209.288 110.556 209.288ZM120.653 209V196.184H123.533L123.605 198.68C124.109 196.952 125.093 196.184 126.677 196.184H127.853V198.824H126.653C124.685 198.824 123.725 199.64 123.725 201.608V209H120.653ZM129.792 194.48V191.744H132.984V194.48H129.792ZM129.84 209V196.184H132.912V209H129.84ZM136.473 209V196.184H139.353L139.425 198.68C139.929 196.952 140.913 196.184 142.497 196.184H143.673V198.824H142.473C140.505 198.824 139.545 199.64 139.545 201.608V209H136.473ZM155.733 209V194.672H150.549V191.96H164.013V194.672H158.853V209H155.733ZM168.013 209.288C165.325 209.288 163.549 208.016 163.549 205.784C163.549 203.576 164.917 202.4 167.725 201.848L171.973 201.008C171.973 199.208 171.133 198.272 169.501 198.272C168.013 198.272 167.173 198.968 166.885 200.264L163.765 200.12C164.269 197.432 166.333 195.896 169.501 195.896C173.149 195.896 175.045 197.816 175.045 201.224V205.88C175.045 206.576 175.285 206.768 175.765 206.768H176.173V209C175.957 209.048 175.477 209.096 175.045 209.096C173.653 209.096 172.621 208.592 172.381 207.032C171.733 208.4 170.101 209.288 168.013 209.288ZM168.637 207.056C170.677 207.056 171.973 205.76 171.973 203.816V203.096L168.661 203.768C167.293 204.032 166.741 204.608 166.741 205.496C166.741 206.504 167.413 207.056 168.637 207.056ZM178.028 209V191.96H181.1V201.968L186.356 196.184H190.148L185.132 201.512L190.316 209H186.86L183.116 203.336L181.1 205.472V209H178.028ZM195.576 209.288C192.888 209.288 191.112 208.016 191.112 205.784C191.112 203.576 192.48 202.4 195.288 201.848L199.536 201.008C199.536 199.208 198.696 198.272 197.064 198.272C195.576 198.272 194.736 198.968 194.448 200.264L191.328 200.12C191.832 197.432 193.896 195.896 197.064 195.896C200.712 195.896 202.608 197.816 202.608 201.224V205.88C202.608 206.576 202.848 206.768 203.328 206.768H203.736V209C203.52 209.048 203.04 209.096 202.608 209.096C201.216 209.096 200.184 208.592 199.944 207.032C199.296 208.4 197.664 209.288 195.576 209.288ZM196.2 207.056C198.24 207.056 199.536 205.76 199.536 203.816V203.096L196.224 203.768C194.856 204.032 194.304 204.608 194.304 205.496C194.304 206.504 194.976 207.056 196.2 207.056ZM205.731 209V196.184H208.611L208.683 198.68C209.187 196.952 210.171 196.184 211.755 196.184H212.931V198.824H211.731C209.763 198.824 208.803 199.64 208.803 201.608V209H205.731ZM220.062 212.888C216.678 212.888 214.806 211.424 214.23 209.24L217.398 209.024C217.71 210.008 218.406 210.56 220.062 210.56C221.958 210.56 223.014 209.744 223.014 207.944V206.312C222.414 207.56 220.95 208.376 219.294 208.376C216.102 208.376 213.846 205.88 213.846 202.16C213.846 198.488 216.078 195.896 219.246 195.896C221.094 195.896 222.486 196.784 223.11 198.176V196.184H226.11V207.872C226.11 211.16 223.71 212.888 220.062 212.888ZM220.014 205.976C221.838 205.976 223.014 204.536 223.038 202.136C223.062 199.76 221.862 198.296 220.014 198.296C218.142 198.296 217.038 199.784 217.038 202.136C217.038 204.488 218.19 205.976 220.014 205.976ZM234.807 209.288C230.991 209.288 228.495 206.648 228.495 202.592C228.495 198.536 230.991 195.896 234.807 195.896C238.599 195.896 241.095 198.536 241.095 202.592C241.095 206.648 238.599 209.288 234.807 209.288ZM234.807 206.792C236.775 206.792 237.903 205.256 237.903 202.592C237.903 199.952 236.775 198.392 234.807 198.392C232.815 198.392 231.687 199.952 231.687 202.592C231.687 205.256 232.815 206.792 234.807 206.792Z" fill="#334155"/>
<circle cx="31" cy="31" r="31" fill="#0891B2"/>
<path d="M29.216 48V25.584H21.824V20.256H24.752C29.024 20.256 30.704 18.72 30.704 13.92H36.512V48H29.216Z" fill="white"/>
<defs>
<clipPath id="clip0_391_2031">
<rect width="128" height="128" fill="white" transform="translate(72 22)"/>
</clipPath>
</defs>
</svg>
