<svg width="240" height="216" viewBox="0 0 240 216" fill="none" xmlns="http://www.w3.org/2000/svg">
<path d="M189 134C190.105 134 191 133.105 191 132C191 130.895 190.105 130 189 130C187.895 130 187 130.895 187 132C187 133.105 187.895 134 189 134Z" fill="#334155"/>
<path d="M153 134C154.105 134 155 133.105 155 132C155 130.895 154.105 130 153 130C151.895 130 151 130.895 151 132C151 133.105 151.895 134 153 134Z" fill="#334155"/>
<path d="M209 136C209.53 136 210.039 135.789 210.414 135.414C210.789 135.039 211 134.53 211 134V128C211 127.47 210.789 126.961 210.414 126.586C210.039 126.211 209.53 126 209 126H207V110C206.996 109.761 206.948 109.526 206.86 109.304C206.832 109.237 206.801 109.172 206.766 109.108C206.736 109.033 206.702 108.961 206.664 108.89L198.664 96.89C198.481 96.6162 198.234 96.3917 197.944 96.2364C197.653 96.0812 197.329 96 197 96H175V92C175 91.4696 174.789 90.9609 174.414 90.5858C174.039 90.2107 173.53 90 173 90H137C136.47 90 135.961 90.2107 135.586 90.5858C135.211 90.9609 135 91.4696 135 92V126H133C132.47 126 131.961 126.211 131.586 126.586C131.211 126.961 131 127.47 131 128V134C131 134.53 131.211 135.039 131.586 135.414C131.961 135.789 132.47 136 133 136H143.848C144.17 136.712 144.574 137.383 145.052 138H123V92C123 91.4696 122.789 90.9609 122.414 90.5858C122.039 90.2107 121.53 90 121 90H95V80H163V84C163 84.5305 163.211 85.0392 163.586 85.4142C163.961 85.7893 164.47 86 165 86C165.53 86 166.039 85.7893 166.414 85.4142C166.789 85.0392 167 84.5305 167 84V62C167 61.4696 166.789 60.9609 166.414 60.5858C166.039 60.2107 165.53 60 165 60H93C92.4696 60 91.9609 60.2107 91.5858 60.5858C91.2107 60.9609 91 61.4696 91 62V138H87V53.286L129 34.196L171 53.286V84C171 84.5305 171.211 85.0392 171.586 85.4142C171.961 85.7893 172.47 86 173 86C173.53 86 174.039 85.7893 174.414 85.4142C174.789 85.0392 175 84.5305 175 84V52C175 51.6161 174.89 51.2403 174.682 50.9176C174.474 50.5948 174.178 50.3387 173.828 50.18L129.828 30.18C129.568 30.062 129.286 30.001 129 30.001C128.714 30.001 128.432 30.062 128.172 30.18L84.172 50.18C83.8224 50.3387 83.526 50.5948 83.3182 50.9176C83.1103 51.2403 82.9999 51.6161 83 52V140C83 140.53 83.2107 141.039 83.5858 141.414C83.9609 141.789 84.4696 142 85 142H209C209.53 142 210.039 141.789 210.414 141.414C210.789 141.039 211 140.53 211 140C211 139.47 210.789 138.961 210.414 138.586C210.039 138.211 209.53 138 209 138H196.948C197.426 137.383 197.83 136.712 198.152 136H209ZM207 132H199C199 131.328 198.932 130.658 198.798 130H207V132ZM201.264 108H183V100H195.93L201.264 108ZM179 100V110C179 110.53 179.211 111.039 179.586 111.414C179.961 111.789 180.47 112 181 112H203V116H197V120H203V126H196.948C196.027 124.759 194.829 123.752 193.449 123.057C192.069 122.363 190.545 122.001 189 122.001C187.455 122.001 185.931 122.363 184.551 123.057C183.171 123.752 181.973 124.759 181.052 126H175V100H179ZM179.202 130C179.068 130.658 179 131.328 179 132H163C163 131.328 162.932 130.658 162.798 130H179.202ZM162.152 136H179.848C180.17 136.712 180.574 137.383 181.052 138H160.948C161.426 137.383 161.83 136.712 162.152 136ZM159 94V104H151V94H159ZM139 94H147V106C147 106.53 147.211 107.039 147.586 107.414C147.961 107.789 148.47 108 149 108H161C161.53 108 162.039 107.789 162.414 107.414C162.789 107.039 163 106.53 163 106V94H171V126H160.948C160.027 124.759 158.829 123.752 157.449 123.057C156.069 122.363 154.545 122.001 153 122.001C151.455 122.001 149.931 122.363 148.551 123.057C147.171 123.752 145.973 124.759 145.052 126H139V94ZM135 132V130H143.202C143.068 130.658 143 131.328 143 132H135ZM147 132C147 130.813 147.352 129.653 148.011 128.667C148.67 127.68 149.608 126.911 150.704 126.457C151.8 126.003 153.007 125.884 154.171 126.115C155.334 126.347 156.404 126.918 157.243 127.757C158.082 128.597 158.653 129.666 158.885 130.829C159.116 131.993 158.997 133.2 158.543 134.296C158.089 135.392 157.32 136.33 156.333 136.989C155.347 137.648 154.187 138 153 138C151.409 137.998 149.884 137.366 148.759 136.241C147.634 135.116 147.002 133.591 147 132ZM105 94H109V100H105V94ZM101 94V102C101 102.53 101.211 103.039 101.586 103.414C101.961 103.789 102.47 104 103 104H111C111.53 104 112.039 103.789 112.414 103.414C112.789 103.039 113 102.53 113 102V94H119V114H95V94H101ZM105 118H109V124H105V118ZM95 76V72H163V76H95ZM163 64V68H95V64H163ZM95 138V118H101V126C101 126.53 101.211 127.039 101.586 127.414C101.961 127.789 102.47 128 103 128H111C111.53 128 112.039 127.789 112.414 127.414C112.789 127.039 113 126.53 113 126V118H119V138H95ZM183 132C183 130.813 183.352 129.653 184.011 128.667C184.67 127.68 185.608 126.911 186.704 126.457C187.8 126.003 189.007 125.884 190.171 126.115C191.334 126.347 192.404 126.918 193.243 127.757C194.082 128.597 194.653 129.666 194.885 130.829C195.116 131.993 194.997 133.2 194.543 134.296C194.089 135.392 193.32 136.33 192.333 136.989C191.347 137.648 190.187 138 189 138C187.409 137.998 185.884 137.366 184.759 136.241C183.634 135.116 183.002 133.591 183 132Z" fill="#334155"/>
<path d="M181 118H183C183.53 118 184.039 117.789 184.414 117.414C184.789 117.039 185 116.53 185 116C185 115.47 184.789 114.961 184.414 114.586C184.039 114.211 183.53 114 183 114H181C180.47 114 179.961 114.211 179.586 114.586C179.211 114.961 179 115.47 179 116C179 116.53 179.211 117.039 179.586 117.414C179.961 117.789 180.47 118 181 118Z" fill="#334155"/>
<path d="M78.4831 178V166.64H82.7391C85.5071 166.64 86.9791 167.584 86.9791 169.712C86.9791 171.056 86.1631 171.952 84.7391 172.128C86.4831 172.304 87.4591 173.328 87.4591 174.88C87.4591 176.96 85.9711 178 83.3151 178H78.4831ZM80.5631 171.408H82.6751C84.0351 171.408 84.8511 170.88 84.8511 169.904C84.8511 168.88 84.0831 168.4 82.6751 168.4H80.5631V171.408ZM80.5631 176.24H83.2191C84.5151 176.24 85.3311 175.696 85.3311 174.656C85.3311 173.6 84.5311 173.04 83.2191 173.04H80.5631V176.24ZM91.7875 178.192C89.9955 178.192 88.8115 177.344 88.8115 175.856C88.8115 174.384 89.7235 173.6 91.5955 173.232L94.4275 172.672C94.4275 171.472 93.8675 170.848 92.7795 170.848C91.7875 170.848 91.2275 171.312 91.0355 172.176L88.9555 172.08C89.2915 170.288 90.6675 169.264 92.7795 169.264C95.2115 169.264 96.4755 170.544 96.4755 172.816V175.92C96.4755 176.384 96.6355 176.512 96.9555 176.512H97.2275V178C97.0835 178.032 96.7635 178.064 96.4755 178.064C95.5475 178.064 94.8595 177.728 94.6995 176.688C94.2675 177.6 93.1795 178.192 91.7875 178.192ZM92.2035 176.704C93.5635 176.704 94.4275 175.84 94.4275 174.544V174.064L92.2195 174.512C91.3075 174.688 90.9395 175.072 90.9395 175.664C90.9395 176.336 91.3875 176.704 92.2035 176.704ZM98.5575 178V169.456H100.478L100.526 171.12C100.862 169.968 101.518 169.456 102.574 169.456H103.358V171.216H102.558C101.246 171.216 100.606 171.76 100.606 173.072V178H98.5575ZM107.006 178.192C105.214 178.192 104.03 177.344 104.03 175.856C104.03 174.384 104.942 173.6 106.814 173.232L109.646 172.672C109.646 171.472 109.086 170.848 107.998 170.848C107.006 170.848 106.446 171.312 106.254 172.176L104.174 172.08C104.51 170.288 105.886 169.264 107.998 169.264C110.43 169.264 111.694 170.544 111.694 172.816V175.92C111.694 176.384 111.854 176.512 112.174 176.512H112.446V178C112.302 178.032 111.982 178.064 111.694 178.064C110.766 178.064 110.078 177.728 109.918 176.688C109.486 177.6 108.398 178.192 107.006 178.192ZM107.422 176.704C108.782 176.704 109.646 175.84 109.646 174.544V174.064L107.438 174.512C106.526 174.688 106.158 175.072 106.158 175.664C106.158 176.336 106.606 176.704 107.422 176.704ZM113.776 178V169.456H115.632L115.68 170.912C116.144 169.744 117.104 169.264 118.24 169.264C120.128 169.264 121.152 170.592 121.152 172.512V178H119.104V173.168C119.104 171.728 118.72 170.928 117.616 170.928C116.512 170.928 115.824 171.728 115.824 173.168V178H113.776ZM126.831 180.592C124.575 180.592 123.327 179.616 122.943 178.16L125.055 178.016C125.263 178.672 125.727 179.04 126.831 179.04C128.095 179.04 128.799 178.496 128.799 177.296V176.208C128.399 177.04 127.423 177.584 126.319 177.584C124.191 177.584 122.687 175.92 122.687 173.44C122.687 170.992 124.174 169.264 126.286 169.264C127.519 169.264 128.447 169.856 128.863 170.784V169.456H130.863V177.248C130.863 179.44 129.263 180.592 126.831 180.592ZM126.799 175.984C128.015 175.984 128.799 175.024 128.815 173.424C128.831 171.84 128.031 170.864 126.799 170.864C125.551 170.864 124.815 171.856 124.815 173.424C124.815 174.992 125.583 175.984 126.799 175.984ZM139.926 178.192C137.75 178.192 136.39 176.464 136.39 173.728C136.39 170.992 137.782 169.264 139.926 169.264C141.126 169.264 142.07 169.792 142.534 170.672V166.64H144.582V178H142.63L142.582 176.736C142.102 177.648 141.11 178.192 139.926 178.192ZM140.55 176.528C141.814 176.528 142.534 175.536 142.534 173.728C142.534 171.904 141.83 170.928 140.55 170.928C139.302 170.928 138.518 171.984 138.518 173.728C138.518 175.44 139.318 176.528 140.55 176.528ZM146.541 168.32V166.496H148.669V168.32H146.541ZM146.573 178V169.456H148.621V178H146.573ZM153.763 178C152.067 178 151.283 177.248 151.283 175.552V171.04H149.939V169.456H151.283V167.456H153.331V169.456H155.587V171.04H153.331V175.36C153.331 176.16 153.667 176.416 154.387 176.416H155.587V178H153.763ZM160.644 178.192C158.084 178.192 156.452 176.432 156.452 173.728C156.452 171.04 158.084 169.264 160.596 169.264C163.044 169.264 164.644 170.96 164.644 173.84V174.304H158.58C158.644 175.808 159.428 176.56 160.66 176.56C161.572 176.56 162.18 176.128 162.436 175.376L164.532 175.504C164.068 177.168 162.612 178.192 160.644 178.192ZM158.58 172.928H162.532C162.436 171.536 161.684 170.88 160.596 170.88C159.492 170.88 158.74 171.6 158.58 172.928ZM166.245 178V169.456H168.165L168.213 171.12C168.549 169.968 169.205 169.456 170.261 169.456H171.045V171.216H170.245C168.933 171.216 168.293 171.76 168.293 173.072V178H166.245ZM172.338 168.32V166.496H174.466V168.32H172.338ZM172.37 178V169.456H174.418V178H172.37ZM176.792 178V169.456H178.648L178.696 170.88C179.128 169.856 179.992 169.264 181.048 169.264C182.296 169.264 183.16 169.92 183.528 171.024C183.912 169.888 184.792 169.264 185.976 169.264C187.736 169.264 188.824 170.4 188.824 172.512V178H186.776V173.04C186.776 171.632 186.312 170.928 185.32 170.928C184.344 170.928 183.752 171.728 183.752 173.104V178H181.848V173.104C181.848 171.712 181.464 170.928 180.424 170.928C179.448 170.928 178.84 171.744 178.84 173.104V178H176.792ZM193.35 178.192C191.558 178.192 190.374 177.344 190.374 175.856C190.374 174.384 191.286 173.6 193.158 173.232L195.99 172.672C195.99 171.472 195.43 170.848 194.342 170.848C193.35 170.848 192.79 171.312 192.598 172.176L190.518 172.08C190.854 170.288 192.23 169.264 194.342 169.264C196.774 169.264 198.038 170.544 198.038 172.816V175.92C198.038 176.384 198.198 176.512 198.518 176.512H198.79V178C198.646 178.032 198.326 178.064 198.038 178.064C197.11 178.064 196.422 177.728 196.262 176.688C195.83 177.6 194.742 178.192 193.35 178.192ZM193.766 176.704C195.126 176.704 195.99 175.84 195.99 174.544V174.064L193.782 174.512C192.87 174.688 192.502 175.072 192.502 175.664C192.502 176.336 192.95 176.704 193.766 176.704ZM206.973 178.192C204.797 178.192 203.437 176.464 203.437 173.728C203.437 170.992 204.829 169.264 206.973 169.264C208.173 169.264 209.117 169.792 209.581 170.672V166.64H211.628V178H209.677L209.629 176.736C209.149 177.648 208.157 178.192 206.973 178.192ZM207.597 176.528C208.861 176.528 209.581 175.536 209.581 173.728C209.581 171.904 208.877 170.928 207.597 170.928C206.349 170.928 205.565 171.984 205.565 173.728C205.565 175.44 206.365 176.528 207.597 176.528ZM213.588 168.32V166.496H215.716V168.32H213.588ZM213.62 178V169.456H215.668V178H213.62ZM74.7403 209V191.96H81.3403C85.3243 191.96 87.7003 194 87.7003 197.384C87.7003 200.792 85.3243 202.856 81.3403 202.856H77.8603V209H74.7403ZM77.8603 200.144H81.1963C83.3083 200.144 84.4843 199.208 84.4843 197.384C84.4843 195.608 83.3323 194.672 81.1963 194.672H77.8603V200.144ZM95.3261 209.288C91.5101 209.288 89.0141 206.648 89.0141 202.592C89.0141 198.536 91.5101 195.896 95.3261 195.896C99.1181 195.896 101.614 198.536 101.614 202.592C101.614 206.648 99.1181 209.288 95.3261 209.288ZM95.3261 206.792C97.2941 206.792 98.4221 205.256 98.4221 202.592C98.4221 199.952 97.2941 198.392 95.3261 198.392C93.3341 198.392 92.2061 199.952 92.2061 202.592C92.2061 205.256 93.3341 206.792 95.3261 206.792ZM109.553 209.288C105.737 209.288 103.241 206.648 103.241 202.592C103.241 198.536 105.737 195.896 109.553 195.896C113.345 195.896 115.841 198.536 115.841 202.592C115.841 206.648 113.345 209.288 109.553 209.288ZM109.553 206.792C111.521 206.792 112.649 205.256 112.649 202.592C112.649 199.952 111.521 198.392 109.553 198.392C107.561 198.392 106.433 199.952 106.433 202.592C106.433 205.256 107.561 206.792 109.553 206.792ZM121.4 209C119.528 209 118.328 208.112 118.328 205.976V191.96H121.4V205.664C121.4 206.336 121.736 206.624 122.36 206.624H123.296V209H121.4ZM134.893 209V194.672H129.709V191.96H143.173V194.672H138.013V209H134.893ZM147.173 209.288C144.485 209.288 142.709 208.016 142.709 205.784C142.709 203.576 144.077 202.4 146.885 201.848L151.133 201.008C151.133 199.208 150.293 198.272 148.661 198.272C147.173 198.272 146.333 198.968 146.045 200.264L142.925 200.12C143.429 197.432 145.493 195.896 148.661 195.896C152.309 195.896 154.205 197.816 154.205 201.224V205.88C154.205 206.576 154.445 206.768 154.925 206.768H155.333V209C155.117 209.048 154.637 209.096 154.205 209.096C152.813 209.096 151.781 208.592 151.541 207.032C150.893 208.4 149.261 209.288 147.173 209.288ZM147.797 207.056C149.837 207.056 151.133 205.76 151.133 203.816V203.096L147.821 203.768C146.453 204.032 145.901 204.608 145.901 205.496C145.901 206.504 146.573 207.056 147.797 207.056ZM157.188 209V191.96H160.26V201.968L165.516 196.184H169.308L164.292 201.512L169.476 209H166.02L162.276 203.336L160.26 205.472V209H157.188ZM174.736 209.288C172.048 209.288 170.272 208.016 170.272 205.784C170.272 203.576 171.64 202.4 174.448 201.848L178.696 201.008C178.696 199.208 177.856 198.272 176.224 198.272C174.736 198.272 173.896 198.968 173.608 200.264L170.488 200.12C170.992 197.432 173.056 195.896 176.224 195.896C179.872 195.896 181.768 197.816 181.768 201.224V205.88C181.768 206.576 182.008 206.768 182.488 206.768H182.896V209C182.68 209.048 182.2 209.096 181.768 209.096C180.376 209.096 179.344 208.592 179.104 207.032C178.456 208.4 176.824 209.288 174.736 209.288ZM175.36 207.056C177.4 207.056 178.696 205.76 178.696 203.816V203.096L175.384 203.768C174.016 204.032 173.464 204.608 173.464 205.496C173.464 206.504 174.136 207.056 175.36 207.056ZM184.891 209V196.184H187.771L187.843 198.68C188.347 196.952 189.331 196.184 190.915 196.184H192.091V198.824H190.891C188.923 198.824 187.963 199.64 187.963 201.608V209H184.891ZM199.222 212.888C195.838 212.888 193.966 211.424 193.39 209.24L196.558 209.024C196.87 210.008 197.566 210.56 199.222 210.56C201.118 210.56 202.174 209.744 202.174 207.944V206.312C201.574 207.56 200.11 208.376 198.454 208.376C195.262 208.376 193.006 205.88 193.006 202.16C193.006 198.488 195.238 195.896 198.406 195.896C200.254 195.896 201.646 196.784 202.27 198.176V196.184H205.27V207.872C205.27 211.16 202.87 212.888 199.222 212.888ZM199.174 205.976C200.998 205.976 202.174 204.536 202.198 202.136C202.222 199.76 201.022 198.296 199.174 198.296C197.302 198.296 196.198 199.784 196.198 202.136C196.198 204.488 197.35 205.976 199.174 205.976ZM213.967 209.288C210.151 209.288 207.655 206.648 207.655 202.592C207.655 198.536 210.151 195.896 213.967 195.896C217.759 195.896 220.255 198.536 220.255 202.592C220.255 206.648 217.759 209.288 213.967 209.288ZM213.967 206.792C215.935 206.792 217.063 205.256 217.063 202.592C217.063 199.952 215.935 198.392 213.967 198.392C211.975 198.392 210.847 199.952 210.847 202.592C210.847 205.256 211.975 206.792 213.967 206.792Z" fill="#334155"/>
<circle cx="31" cy="31" r="31" fill="#0891B2"/>
<path d="M30.9426 48.768C22.4946 48.768 17.8386 44.64 17.5026 38.016L24.9426 37.728C25.2786 41.136 27.4866 42.624 30.9426 42.624C34.3506 42.624 36.9426 41.088 36.9426 37.92C36.9426 34.656 34.5426 33.024 30.7026 33.024H27.6786V27.6H30.7026C33.6306 27.6 35.8386 26.448 35.8386 23.472C35.8386 20.88 34.3026 19.296 30.8466 19.296C27.3906 19.296 25.7586 20.832 25.3746 23.088L18.0306 22.704C18.6546 16.944 23.3106 13.152 30.8466 13.152C38.9106 13.152 43.3266 16.8 43.3266 22.704C43.3266 26.208 41.2146 28.752 37.4226 29.952C41.9346 31.152 44.4786 34.128 44.4786 38.448C44.4786 44.928 39.1986 48.768 30.9426 48.768Z" fill="white"/>
</svg>
