<svg width="265" height="212" viewBox="0 0 265 212" fill="none" xmlns="http://www.w3.org/2000/svg">
<rect width="242" height="191" transform="translate(23 22)" fill="#FAFAFA"/>
<g clip-path="url(#clip0_391_2275)">
<path d="M119 114.5C117.62 114.5 116.5 115.62 116.5 117C116.5 118.38 117.62 119.5 119 119.5C120.38 119.5 121.5 118.38 121.5 117C121.5 115.62 120.38 114.5 119 114.5Z" fill="#334155"/>
<path d="M192.536 69.5003L207.268 54.768C207.572 54.4633 207.793 54.0851 207.909 53.6699C208.024 53.2548 208.03 52.8169 207.927 52.3987C207.823 51.9805 207.613 51.5962 207.317 51.283C207.021 50.9699 206.649 50.7386 206.237 50.6115L170.362 39.539C167.128 29.1437 157.516 22.0005 146.5 22.0005C136.259 22.0005 127.1 28.2417 123.309 37.6567L81.7553 50.6138C81.3445 50.7418 80.9738 50.9738 80.6789 51.2871C80.384 51.6005 80.175 51.9846 80.0721 52.4024C79.9692 52.8202 79.9758 53.2575 80.0914 53.6719C80.207 54.0864 80.4275 54.464 80.7318 54.7682L95.8516 69.888L86.3156 85.7817C86.123 86.1028 86.005 86.463 85.9702 86.8357C85.9354 87.2085 85.9848 87.5843 86.1147 87.9354C86.2446 88.2865 86.4517 88.6039 86.7207 88.8643C86.9897 89.1247 87.3137 89.3213 87.6688 89.4397L101.5 94.0497V132.5C101.5 133.009 101.655 133.506 101.945 133.924C102.235 134.342 102.645 134.662 103.122 134.841C111.579 138.012 143 149.796 143.169 149.856C143.685 150.039 144.247 150.047 144.768 149.878C144.775 149.876 144.783 149.875 144.79 149.872L189.79 134.872C190.288 134.706 190.721 134.388 191.028 133.962C191.334 133.536 191.5 133.025 191.5 132.5V93.0202L206.249 88.3852C206.659 88.2564 207.029 88.0241 207.323 87.7106C207.617 87.3971 207.825 87.0131 207.928 86.5957C208.03 86.1783 208.023 85.7415 207.908 85.3275C207.792 84.9136 207.571 84.5364 207.268 84.2325L192.536 69.5003ZM171.5 47.0005C171.5 46.3652 171.473 45.7315 171.425 45.0998L200.799 54.166L188.324 66.64L167.942 59.8467C170.25 55.989 171.5 51.5375 171.5 47.0005ZM127.581 40.4935C130.357 32.423 137.959 27.0005 146.5 27.0005C155.7 27.0005 163.679 33.2235 165.904 42.1335C166.3 43.7255 166.5 45.36 166.5 47.0005C166.5 51.644 164.959 55.9963 162.043 59.5885C158.223 64.299 152.558 67.0005 146.5 67.0005C139.951 67.0005 133.808 63.786 130.066 58.3995C127.733 55.048 126.5 51.106 126.5 47.0005C126.5 44.7677 126.863 42.5785 127.581 40.4935ZM87.1908 54.1562L121.766 43.3752C121.59 44.5756 121.501 45.7871 121.5 47.0002C121.5 51.0255 122.453 54.9243 124.271 58.442L99.6748 66.64L87.1908 54.1562ZM92.2066 85.6818L100.112 72.5062L140.252 85.8865L132.348 99.062L92.2066 85.6818ZM141.5 143.893L106.5 130.768V95.7165C134.037 104.847 132.692 104.568 133.459 104.568C134.319 104.568 135.142 104.123 135.603 103.354L141.5 93.5265V143.893ZM144 81.8652L106.906 69.5008L127.104 62.7682C131.832 68.58 138.948 72.0005 146.5 72.0005C153.485 72.0005 160.05 69.1257 164.773 64.0607L181.094 69.5005L144 81.8652ZM186.5 130.698L146.5 144.032V91.6267L155.362 102.704C155.677 103.098 156.104 103.387 156.586 103.534C157.068 103.681 157.583 103.679 158.064 103.527L186.5 94.5917V130.698ZM158.198 98.2447L148.192 85.7383L188.324 72.3607L200.815 84.8517L158.198 98.2447Z" fill="#334155"/>
<path d="M134.877 120.049L129.317 117.964C128.025 117.48 126.584 118.135 126.099 119.427C125.614 120.72 126.269 122.161 127.562 122.646L133.122 124.731C134.417 125.217 135.856 124.559 136.34 123.268C136.825 121.975 136.17 120.534 134.877 120.049ZM134.877 130.729L119.877 125.104C118.584 124.62 117.143 125.275 116.658 126.567C116.173 127.86 116.829 129.301 118.121 129.786L133.121 135.411C133.402 135.517 133.699 135.571 133.999 135.571C135.011 135.571 135.964 134.952 136.34 133.948C136.825 132.655 136.17 131.214 134.877 130.729ZM160.767 37.7325C159.791 36.756 158.208 36.7562 157.232 37.7325L143.999 50.965L140.767 47.7327C139.791 46.7565 138.208 46.7565 137.231 47.7327C136.255 48.709 136.255 50.292 137.231 51.2685L142.232 56.2682C143.208 57.2445 144.791 57.2445 145.767 56.2682L160.767 41.2682C161.744 40.292 161.744 38.709 160.767 37.7325Z" fill="#334155"/>
</g>
<path d="M79.3816 174V162.64H83.6376C86.4056 162.64 87.8776 163.584 87.8776 165.712C87.8776 167.056 87.0616 167.952 85.6376 168.128C87.3816 168.304 88.3576 169.328 88.3576 170.88C88.3576 172.96 86.8696 174 84.2136 174H79.3816ZM81.4616 167.408H83.5736C84.9336 167.408 85.7496 166.88 85.7496 165.904C85.7496 164.88 84.9816 164.4 83.5736 164.4H81.4616V167.408ZM81.4616 172.24H84.1176C85.4136 172.24 86.2296 171.696 86.2296 170.656C86.2296 169.6 85.4296 169.04 84.1176 169.04H81.4616V172.24ZM92.6859 174.192C90.8939 174.192 89.7099 173.344 89.7099 171.856C89.7099 170.384 90.6219 169.6 92.4939 169.232L95.3259 168.672C95.3259 167.472 94.7659 166.848 93.6779 166.848C92.6859 166.848 92.1259 167.312 91.9339 168.176L89.8539 168.08C90.1899 166.288 91.5659 165.264 93.6779 165.264C96.1099 165.264 97.3739 166.544 97.3739 168.816V171.92C97.3739 172.384 97.5339 172.512 97.8539 172.512H98.1259V174C97.9819 174.032 97.6619 174.064 97.3739 174.064C96.4459 174.064 95.7579 173.728 95.5979 172.688C95.1659 173.6 94.0779 174.192 92.6859 174.192ZM93.1019 172.704C94.4619 172.704 95.3259 171.84 95.3259 170.544V170.064L93.1179 170.512C92.2059 170.688 91.8379 171.072 91.8379 171.664C91.8379 172.336 92.2859 172.704 93.1019 172.704ZM99.4559 174V165.456H101.376L101.424 167.12C101.76 165.968 102.416 165.456 103.472 165.456H104.256V167.216H103.456C102.144 167.216 101.504 167.76 101.504 169.072V174H99.4559ZM107.905 174.192C106.113 174.192 104.929 173.344 104.929 171.856C104.929 170.384 105.841 169.6 107.713 169.232L110.545 168.672C110.545 167.472 109.985 166.848 108.897 166.848C107.905 166.848 107.345 167.312 107.153 168.176L105.073 168.08C105.409 166.288 106.785 165.264 108.897 165.264C111.329 165.264 112.593 166.544 112.593 168.816V171.92C112.593 172.384 112.753 172.512 113.073 172.512H113.345V174C113.201 174.032 112.881 174.064 112.593 174.064C111.665 174.064 110.977 173.728 110.817 172.688C110.385 173.6 109.297 174.192 107.905 174.192ZM108.321 172.704C109.681 172.704 110.545 171.84 110.545 170.544V170.064L108.337 170.512C107.425 170.688 107.057 171.072 107.057 171.664C107.057 172.336 107.505 172.704 108.321 172.704ZM114.675 174V165.456H116.531L116.579 166.912C117.043 165.744 118.003 165.264 119.139 165.264C121.027 165.264 122.051 166.592 122.051 168.512V174H120.003V169.168C120.003 167.728 119.619 166.928 118.515 166.928C117.411 166.928 116.723 167.728 116.723 169.168V174H114.675ZM127.729 176.592C125.473 176.592 124.225 175.616 123.841 174.16L125.953 174.016C126.161 174.672 126.625 175.04 127.729 175.04C128.993 175.04 129.697 174.496 129.697 173.296V172.208C129.297 173.04 128.321 173.584 127.217 173.584C125.089 173.584 123.585 171.92 123.585 169.44C123.585 166.992 125.073 165.264 127.185 165.264C128.417 165.264 129.345 165.856 129.761 166.784V165.456H131.761V173.248C131.761 175.44 130.161 176.592 127.729 176.592ZM127.697 171.984C128.913 171.984 129.697 171.024 129.713 169.424C129.729 167.84 128.929 166.864 127.697 166.864C126.449 166.864 125.713 167.856 125.713 169.424C125.713 170.992 126.481 171.984 127.697 171.984ZM141.256 174.192C138.728 174.192 137.416 172.992 137.288 171.312L139.384 171.216C139.528 172.112 140.088 172.624 141.272 172.624C142.216 172.624 142.808 172.336 142.808 171.664C142.808 171.088 142.504 170.832 140.936 170.56C138.312 170.112 137.496 169.408 137.496 167.952C137.496 166.368 138.728 165.264 141.112 165.264C143.416 165.264 144.6 166.496 144.824 168.144L142.76 168.24C142.616 167.376 142.04 166.832 141.08 166.832C140.12 166.832 139.624 167.264 139.624 167.888C139.624 168.576 140.072 168.848 141.368 169.056C144.056 169.472 144.92 170.208 144.92 171.632C144.92 173.28 143.448 174.192 141.256 174.192ZM149.123 174.192C147.331 174.192 146.147 173.344 146.147 171.856C146.147 170.384 147.059 169.6 148.931 169.232L151.763 168.672C151.763 167.472 151.203 166.848 150.115 166.848C149.123 166.848 148.563 167.312 148.371 168.176L146.291 168.08C146.627 166.288 148.003 165.264 150.115 165.264C152.547 165.264 153.811 166.544 153.811 168.816V171.92C153.811 172.384 153.971 172.512 154.291 172.512H154.563V174C154.419 174.032 154.099 174.064 153.811 174.064C152.883 174.064 152.195 173.728 152.035 172.688C151.603 173.6 150.515 174.192 149.123 174.192ZM149.539 172.704C150.899 172.704 151.763 171.84 151.763 170.544V170.064L149.555 170.512C148.643 170.688 148.275 171.072 148.275 171.664C148.275 172.336 148.723 172.704 149.539 172.704ZM155.893 174V165.456H157.749L157.797 166.88C158.229 165.856 159.093 165.264 160.149 165.264C161.397 165.264 162.261 165.92 162.629 167.024C163.013 165.888 163.893 165.264 165.077 165.264C166.837 165.264 167.925 166.4 167.925 168.512V174H165.877V169.04C165.877 167.632 165.413 166.928 164.421 166.928C163.445 166.928 162.853 167.728 162.853 169.104V174H160.949V169.104C160.949 167.712 160.565 166.928 159.525 166.928C158.549 166.928 157.941 167.744 157.941 169.104V174H155.893ZM169.893 176.4V165.456H171.861L171.893 166.736C172.389 165.776 173.317 165.264 174.453 165.264C176.885 165.264 178.085 167.264 178.085 169.728C178.085 172.192 176.869 174.192 174.437 174.192C173.349 174.192 172.405 173.68 171.941 172.832V176.4H169.893ZM173.957 172.528C175.205 172.528 175.957 171.488 175.957 169.728C175.957 167.968 175.205 166.928 173.957 166.928C172.709 166.928 171.941 167.872 171.941 169.728C171.941 171.584 172.693 172.528 173.957 172.528ZM182.28 174.192C180.488 174.192 179.304 173.344 179.304 171.856C179.304 170.384 180.216 169.6 182.088 169.232L184.92 168.672C184.92 167.472 184.36 166.848 183.272 166.848C182.28 166.848 181.72 167.312 181.528 168.176L179.448 168.08C179.784 166.288 181.16 165.264 183.272 165.264C185.704 165.264 186.968 166.544 186.968 168.816V171.92C186.968 172.384 187.128 172.512 187.448 172.512H187.72V174C187.576 174.032 187.256 174.064 186.968 174.064C186.04 174.064 185.352 173.728 185.192 172.688C184.76 173.6 183.672 174.192 182.28 174.192ZM182.696 172.704C184.056 172.704 184.92 171.84 184.92 170.544V170.064L182.712 170.512C181.8 170.688 181.432 171.072 181.432 171.664C181.432 172.336 181.88 172.704 182.696 172.704ZM188.924 164.32V162.496H191.052V164.32H188.924ZM188.956 174V165.456H191.004V174H188.956ZM200.074 174.192C197.898 174.192 196.538 172.464 196.538 169.728C196.538 166.992 197.93 165.264 200.074 165.264C201.274 165.264 202.218 165.792 202.682 166.672V162.64H204.73V174H202.778L202.73 172.736C202.25 173.648 201.258 174.192 200.074 174.192ZM200.698 172.528C201.962 172.528 202.682 171.536 202.682 169.728C202.682 167.904 201.978 166.928 200.698 166.928C199.45 166.928 198.666 167.984 198.666 169.728C198.666 171.44 199.466 172.528 200.698 172.528ZM206.69 164.32V162.496H208.818V164.32H206.69ZM206.722 174V165.456H208.77V174H206.722ZM29.6707 205V190.672H24.4867V187.96H37.9507V190.672H32.7907V205H29.6707ZM42.7595 205.288C40.1435 205.288 38.5355 203.488 38.5355 200.44V192.184H41.6075V199.672C41.6075 201.832 42.3035 202.792 43.7915 202.792C45.4475 202.792 46.4075 201.664 46.4075 199.552V192.184H49.4795V205H46.6715L46.6235 202.912C45.9515 204.472 44.6315 205.288 42.7595 205.288ZM53.5797 190.48V187.744H56.7717V190.48H53.5797ZM50.9397 208.6V206.224H52.2117C53.1237 206.224 53.6277 205.912 53.6277 204.808V192.184H56.6997V204.904C56.6997 207.544 55.6197 208.6 52.7637 208.6H50.9397ZM63.8767 205.288C61.2607 205.288 59.6527 203.488 59.6527 200.44V192.184H62.7247V199.672C62.7247 201.832 63.4207 202.792 64.9087 202.792C66.5647 202.792 67.5247 201.664 67.5247 199.552V192.184H70.5967V205H67.7887L67.7407 202.912C67.0687 204.472 65.7487 205.288 63.8767 205.288ZM77.693 205.288C75.005 205.288 73.229 204.016 73.229 201.784C73.229 199.576 74.597 198.4 77.405 197.848L81.653 197.008C81.653 195.208 80.813 194.272 79.181 194.272C77.693 194.272 76.853 194.968 76.565 196.264L73.445 196.12C73.949 193.432 76.013 191.896 79.181 191.896C82.829 191.896 84.725 193.816 84.725 197.224V201.88C84.725 202.576 84.965 202.768 85.445 202.768H85.853V205C85.637 205.048 85.157 205.096 84.725 205.096C83.333 205.096 82.301 204.592 82.061 203.032C81.413 204.4 79.781 205.288 77.693 205.288ZM78.317 203.056C80.357 203.056 81.653 201.76 81.653 199.816V199.096L78.341 199.768C76.973 200.032 76.421 200.608 76.421 201.496C76.421 202.504 77.093 203.056 78.317 203.056ZM87.848 205V192.184H90.632L90.704 194.368C91.4 192.616 92.84 191.896 94.544 191.896C97.376 191.896 98.912 193.888 98.912 196.768V205H95.84V197.752C95.84 195.592 95.264 194.392 93.608 194.392C91.952 194.392 90.92 195.592 90.92 197.752V205H87.848ZM112.494 205.288C109.23 205.288 107.19 202.696 107.19 198.592C107.19 194.488 109.278 191.896 112.494 191.896C114.294 191.896 115.71 192.688 116.406 194.008V187.96H119.478V205H116.55L116.478 203.104C115.758 204.472 114.27 205.288 112.494 205.288ZM113.43 202.792C115.326 202.792 116.406 201.304 116.406 198.592C116.406 195.856 115.35 194.392 113.43 194.392C111.558 194.392 110.382 195.976 110.382 198.592C110.382 201.16 111.582 202.792 113.43 202.792ZM128.15 205.288C124.31 205.288 121.862 202.648 121.862 198.592C121.862 194.56 124.31 191.896 128.078 191.896C131.75 191.896 134.15 194.44 134.15 198.76V199.456H125.054C125.15 201.712 126.326 202.84 128.174 202.84C129.542 202.84 130.454 202.192 130.838 201.064L133.982 201.256C133.286 203.752 131.102 205.288 128.15 205.288ZM125.054 197.392H130.982C130.838 195.304 129.71 194.32 128.078 194.32C126.422 194.32 125.294 195.4 125.054 197.392ZM136.551 205V192.184H139.335L139.407 194.368C140.103 192.616 141.543 191.896 143.247 191.896C146.079 191.896 147.615 193.888 147.615 196.768V205H144.543V197.752C144.543 195.592 143.967 194.392 142.311 194.392C140.655 194.392 139.623 195.592 139.623 197.752V205H136.551ZM156.132 208.888C152.748 208.888 150.876 207.424 150.3 205.24L153.468 205.024C153.78 206.008 154.476 206.56 156.132 206.56C158.028 206.56 159.084 205.744 159.084 203.944V202.312C158.484 203.56 157.02 204.376 155.364 204.376C152.172 204.376 149.916 201.88 149.916 198.16C149.916 194.488 152.148 191.896 155.316 191.896C157.164 191.896 158.556 192.784 159.18 194.176V192.184H162.18V203.872C162.18 207.16 159.78 208.888 156.132 208.888ZM156.084 201.976C157.908 201.976 159.084 200.536 159.108 198.136C159.132 195.76 157.932 194.296 156.084 194.296C154.212 194.296 153.108 195.784 153.108 198.136C153.108 200.488 154.26 201.976 156.084 201.976ZM169.263 205.288C166.575 205.288 164.799 204.016 164.799 201.784C164.799 199.576 166.167 198.4 168.975 197.848L173.223 197.008C173.223 195.208 172.383 194.272 170.751 194.272C169.263 194.272 168.423 194.968 168.135 196.264L165.015 196.12C165.519 193.432 167.583 191.896 170.751 191.896C174.399 191.896 176.295 193.816 176.295 197.224V201.88C176.295 202.576 176.535 202.768 177.015 202.768H177.423V205C177.207 205.048 176.727 205.096 176.295 205.096C174.903 205.096 173.871 204.592 173.631 203.032C172.983 204.4 171.351 205.288 169.263 205.288ZM169.887 203.056C171.927 203.056 173.223 201.76 173.223 199.816V199.096L169.911 199.768C168.543 200.032 167.991 200.608 167.991 201.496C167.991 202.504 168.663 203.056 169.887 203.056ZM179.418 205V192.184H182.202L182.274 194.368C182.97 192.616 184.41 191.896 186.114 191.896C188.946 191.896 190.482 193.888 190.482 196.768V205H187.41V197.752C187.41 195.592 186.834 194.392 185.178 194.392C183.522 194.392 182.49 195.592 182.49 197.752V205H179.418ZM198.28 205L204.424 187.96H208.24L214.384 205H211.12L209.704 200.968H202.96L201.544 205H198.28ZM203.872 198.304H208.792L206.344 191.104L203.872 198.304ZM216.051 205V192.184H218.835L218.907 194.32C219.555 192.784 220.851 191.896 222.435 191.896C224.307 191.896 225.603 192.88 226.155 194.536C226.731 192.832 228.051 191.896 229.827 191.896C232.467 191.896 234.099 193.6 234.099 196.768V205H231.027V197.56C231.027 195.448 230.331 194.392 228.843 194.392C227.379 194.392 226.491 195.592 226.491 197.656V205H223.635V197.656C223.635 195.568 223.059 194.392 221.499 194.392C220.035 194.392 219.123 195.616 219.123 197.656V205H216.051ZM240.888 205.288C238.2 205.288 236.424 204.016 236.424 201.784C236.424 199.576 237.792 198.4 240.6 197.848L244.848 197.008C244.848 195.208 244.008 194.272 242.376 194.272C240.888 194.272 240.048 194.968 239.76 196.264L236.64 196.12C237.144 193.432 239.208 191.896 242.376 191.896C246.024 191.896 247.92 193.816 247.92 197.224V201.88C247.92 202.576 248.16 202.768 248.64 202.768H249.048V205C248.832 205.048 248.352 205.096 247.92 205.096C246.528 205.096 245.496 204.592 245.256 203.032C244.608 204.4 242.976 205.288 240.888 205.288ZM241.512 203.056C243.552 203.056 244.848 201.76 244.848 199.816V199.096L241.536 199.768C240.168 200.032 239.616 200.608 239.616 201.496C239.616 202.504 240.288 203.056 241.512 203.056ZM251.043 205V192.184H253.827L253.899 194.368C254.595 192.616 256.035 191.896 257.739 191.896C260.571 191.896 262.107 193.888 262.107 196.768V205H259.035V197.752C259.035 195.592 258.459 194.392 256.803 194.392C255.147 194.392 254.115 195.592 254.115 197.752V205H251.043Z" fill="#334155"/>
<circle cx="31" cy="31" r="31" fill="#0891B2"/>
<path d="M31.032 48.768C22.344 48.768 16.728 45.312 16.728 38.736C16.728 34.272 19.368 31.056 23.64 29.712C20.376 28.512 18.36 25.968 18.36 22.512C18.36 16.944 22.92 13.152 31.032 13.152C39.144 13.152 43.656 16.944 43.656 22.512C43.656 26.016 41.64 28.464 38.328 29.712C42.648 31.056 45.336 34.224 45.336 38.736C45.336 45.312 39.768 48.768 31.032 48.768ZM31.032 27.312C34.296 27.312 36.216 26.016 36.216 23.28C36.216 20.832 34.44 19.248 31.032 19.248C27.624 19.248 25.8 20.832 25.8 23.28C25.8 26.016 27.768 27.312 31.032 27.312ZM31.032 42.624C35.112 42.624 37.8 40.8 37.8 37.632C37.8 34.512 35.352 32.448 31.032 32.448C26.664 32.448 24.216 34.512 24.216 37.632C24.216 40.8 26.952 42.624 31.032 42.624Z" fill="white"/>
<defs>
<clipPath id="clip0_391_2275">
<rect width="128" height="128" fill="white" transform="translate(80 22)"/>
</clipPath>
</defs>
</svg>
