<svg width="226" height="212" viewBox="0 0 226 212" fill="none" xmlns="http://www.w3.org/2000/svg">
<rect width="180" height="198" transform="translate(46 22)" fill="#FAFAFA"/>
<path d="M106 90C104.939 90.0011 103.923 90.4228 103.173 91.1727C102.423 91.9227 102.001 92.9395 102 94V136C102.001 137.061 102.423 138.077 103.173 138.827C103.923 139.577 104.939 139.999 106 140H114.202C114.663 142.258 115.89 144.288 117.675 145.746C119.461 147.204 121.695 148 124 148C126.305 148 128.539 147.204 130.325 145.746C132.11 144.288 133.337 142.258 133.798 140H164.2C164.661 142.258 165.888 144.288 167.673 145.746C169.459 147.204 171.693 148 173.998 148C176.303 148 178.537 147.204 180.323 145.746C182.108 144.288 183.335 142.258 183.796 140H190C191.591 139.998 193.116 139.366 194.241 138.241C195.366 137.116 195.998 135.591 196 134V119.26C195.995 118.029 195.619 116.828 194.92 115.814L182.826 98.534C182.267 97.7532 181.531 97.1163 180.678 96.6758C179.825 96.2352 178.88 96.0036 177.92 96H160V94C159.999 92.9395 159.577 91.9227 158.827 91.1727C158.077 90.4228 157.061 90.0011 156 90H106ZM124 144C122.813 144 121.653 143.648 120.667 142.989C119.68 142.33 118.911 141.392 118.457 140.296C118.003 139.2 117.884 137.993 118.115 136.829C118.347 135.666 118.918 134.596 119.757 133.757C120.596 132.918 121.666 132.347 122.829 132.115C123.993 131.884 125.2 132.003 126.296 132.457C127.392 132.911 128.33 133.68 128.989 134.667C129.648 135.653 130 136.813 130 138C129.998 139.591 129.366 141.116 128.241 142.241C127.116 143.366 125.591 143.998 124 144ZM156 136H133.798C133.337 133.742 132.11 131.712 130.325 130.254C128.539 128.796 126.305 128 124 128C121.695 128 119.461 128.796 117.675 130.254C115.89 131.712 114.663 133.742 114.202 136H106V94H156V136ZM174 144C172.813 144 171.653 143.648 170.667 142.989C169.68 142.33 168.911 141.392 168.457 140.296C168.003 139.2 167.884 137.993 168.115 136.829C168.347 135.666 168.918 134.596 169.757 133.757C170.596 132.918 171.666 132.347 172.829 132.115C173.993 131.884 175.2 132.003 176.296 132.457C177.392 132.911 178.33 133.68 178.989 134.667C179.648 135.653 180 136.813 180 138C179.998 139.591 179.366 141.116 178.241 142.241C177.116 143.366 175.591 143.998 174 144ZM183.168 106L188.768 114H170V106H183.168ZM160 100H177.92C178.241 100.002 178.556 100.08 178.841 100.227C179.126 100.374 179.373 100.586 179.56 100.846L180.368 102H168C167.47 102 166.961 102.211 166.586 102.586C166.211 102.961 166 103.47 166 104V116C166 116.53 166.211 117.039 166.586 117.414C166.961 117.789 167.47 118 168 118H191.568L191.624 118.08C191.865 118.427 191.996 118.838 192 119.26V134C191.999 134.53 191.789 135.039 191.414 135.414C191.039 135.789 190.53 135.999 190 136H183.798C183.337 133.742 182.11 131.712 180.325 130.254C178.539 128.796 176.305 128 174 128C171.695 128 169.461 128.796 167.675 130.254C165.89 131.712 164.663 133.742 164.202 136H160V100ZM76 102H98V106H76V102ZM80 114H98V118H80V114ZM84 126H98V130H84V126ZM96 68C96.3071 67.9997 96.61 67.9289 96.8853 67.7929C97.1606 67.657 97.4011 67.4596 97.588 67.216C99.062 65.292 112 48.176 112 40C112 35.7565 110.314 31.6869 107.314 28.6863C104.313 25.6857 100.243 24 96 24C91.7565 24 87.6869 25.6857 84.6863 28.6863C81.6857 31.6869 80 35.7565 80 40C80 48.174 92.938 65.292 94.412 67.216C94.5989 67.4596 94.8394 67.657 95.1147 67.7929C95.39 67.9289 95.6929 67.9997 96 68ZM96 28C99.1815 28.0037 102.232 29.2692 104.481 31.5188C106.731 33.7684 107.996 36.8185 108 40C108 45.09 100.398 56.604 96 62.652C91.602 56.604 84 45.092 84 40C84.0037 36.8185 85.2692 33.7684 87.5188 31.5188C89.7684 29.2692 92.8185 28.0037 96 28Z" fill="#334155"/>
<path d="M105 40C105 38.22 104.472 36.4799 103.483 34.9999C102.494 33.5198 101.089 32.3663 99.4442 31.6851C97.7996 31.0039 95.99 30.8257 94.2442 31.1729C92.4984 31.5202 90.8947 32.3774 89.636 33.636C88.3774 34.8947 87.5202 36.4984 87.1729 38.2442C86.8257 39.99 87.0039 41.7996 87.6851 43.4442C88.3663 45.0887 89.5198 46.4943 90.9999 47.4832C92.4799 48.4722 94.22 49 96 49C98.3861 48.9974 100.674 48.0483 102.361 46.361C104.048 44.6738 104.997 42.3861 105 40ZM91 40C91 39.0111 91.2932 38.0444 91.8427 37.2221C92.3921 36.3999 93.173 35.759 94.0866 35.3806C95.0002 35.0022 96.0056 34.9031 96.9755 35.0961C97.9454 35.289 98.8363 35.7652 99.5355 36.4645C100.235 37.1637 100.711 38.0546 100.904 39.0245C101.097 39.9945 100.998 40.9998 100.619 41.9134C100.241 42.827 99.6001 43.6079 98.7779 44.1573C97.9556 44.7068 96.9889 45 96 45C94.6744 44.9984 93.4036 44.4711 92.4662 43.5338C91.5289 42.5964 91.0016 41.3256 91 40ZM176 72C176.307 71.9997 176.61 71.9289 176.885 71.7929C177.161 71.657 177.401 71.4596 177.588 71.216C179.062 69.292 192 52.176 192 44C192 39.7565 190.314 35.6869 187.314 32.6863C184.313 29.6857 180.243 28 176 28C171.757 28 167.687 29.6857 164.686 32.6863C161.686 35.6869 160 39.7565 160 44C160 52.174 172.938 69.292 174.412 71.216C174.599 71.4596 174.839 71.657 175.115 71.7929C175.39 71.9289 175.693 71.9997 176 72ZM176 32C179.181 32.0037 182.232 33.2692 184.481 35.5188C186.731 37.7684 187.996 40.8185 188 44C188 49.09 180.398 60.604 176 66.652C171.602 60.604 164 49.092 164 44C164.004 40.8185 165.269 37.7684 167.519 35.5188C169.768 33.2692 172.819 32.0037 176 32Z" fill="#334155"/>
<path d="M185 44C185 42.22 184.472 40.4799 183.483 38.9999C182.494 37.5198 181.089 36.3663 179.444 35.6851C177.8 35.0039 175.99 34.8257 174.244 35.1729C172.498 35.5202 170.895 36.3774 169.636 37.636C168.377 38.8947 167.52 40.4984 167.173 42.2442C166.826 43.99 167.004 45.7996 167.685 47.4442C168.366 49.0887 169.52 50.4943 171 51.4832C172.48 52.4722 174.22 53 176 53C178.386 52.9974 180.674 52.0483 182.361 50.361C184.048 48.6738 184.997 46.3861 185 44ZM171 44C171 43.0111 171.293 42.0444 171.843 41.2221C172.392 40.3999 173.173 39.759 174.087 39.3806C175 39.0022 176.006 38.9031 176.975 39.0961C177.945 39.289 178.836 39.7652 179.536 40.4645C180.235 41.1637 180.711 42.0546 180.904 43.0245C181.097 43.9945 180.998 44.9998 180.619 45.9134C180.241 46.827 179.6 47.6079 178.778 48.1573C177.956 48.7068 176.989 49 176 49C174.674 48.9984 173.404 48.4711 172.466 47.5338C171.529 46.5964 171.002 45.3256 171 44ZM167.358 78C168.765 77.9953 170.17 77.9132 171.568 77.754L171.12 73.78C169.868 73.9218 168.61 73.9952 167.35 74L167.358 78ZM163.624 73.772C162.399 73.6149 161.187 73.3676 159.998 73.032L158.902 76.878C160.28 77.2674 161.685 77.5549 163.106 77.738L163.624 73.772ZM156.556 71.746C155.445 71.2235 154.377 70.6122 153.364 69.918L151.122 73.23C152.308 74.0414 153.557 74.7564 154.858 75.368L156.556 71.746ZM109.902 65.434C108.637 65.802 107.336 66.214 106 66.67L107.3 70.454C108.572 70.018 109.812 69.6247 111.02 69.274L109.902 65.434ZM150.2 67.608C149.064 66.753 147.87 65.9765 146.628 65.284L144.712 68.796C145.798 69.4012 146.84 70.0808 147.832 70.83L150.2 67.608ZM118.608 67.47L117.878 63.538C116.598 63.7753 115.261 64.0587 113.866 64.388L114.792 68.28C116.116 67.964 117.392 67.698 118.608 67.47ZM126.33 66.446L126.01 62.458C124.77 62.558 123.404 62.698 121.93 62.894L122.456 66.858C123.856 66.672 125.152 66.542 126.33 66.446ZM141.37 67.348L142.646 63.558C142.253 63.4247 141.843 63.2973 141.416 63.176C140.449 62.8964 139.468 62.67 138.476 62.498L137.796 66.438C138.646 66.5859 139.487 66.7802 140.316 67.02C140.683 67.124 141.034 67.2333 141.37 67.348ZM134.112 66.094L134.206 62.096C133.002 62.068 131.72 62.096 130.052 62.186L130.268 66.18C131.828 66.094 133.016 66.07 134.112 66.094Z" fill="#334155"/>
<path d="M82.8894 182V170.64H87.2894C89.9454 170.64 91.5294 172 91.5294 174.256C91.5294 176.528 89.9454 177.904 87.2894 177.904H84.9694V182H82.8894ZM84.9694 176.096H87.1934C88.6014 176.096 89.3854 175.472 89.3854 174.256C89.3854 173.072 88.6174 172.448 87.1934 172.448H84.9694V176.096ZM96.5973 182.192C94.0373 182.192 92.4053 180.432 92.4053 177.728C92.4053 175.04 94.0373 173.264 96.5493 173.264C98.9973 173.264 100.597 174.96 100.597 177.84V178.304H94.5333C94.5973 179.808 95.3813 180.56 96.6133 180.56C97.5253 180.56 98.1333 180.128 98.3893 179.376L100.485 179.504C100.021 181.168 98.5653 182.192 96.5973 182.192ZM94.5333 176.928H98.4853C98.3893 175.536 97.6373 174.88 96.5493 174.88C95.4453 174.88 94.6933 175.6 94.5333 176.928ZM102.198 182V173.456H104.054L104.102 174.912C104.566 173.744 105.526 173.264 106.662 173.264C108.55 173.264 109.574 174.592 109.574 176.512V182H107.526V177.168C107.526 175.728 107.142 174.928 106.038 174.928C104.934 174.928 104.246 175.728 104.246 177.168V182H102.198ZM115.252 184.592C112.996 184.592 111.748 183.616 111.364 182.16L113.476 182.016C113.684 182.672 114.148 183.04 115.252 183.04C116.516 183.04 117.22 182.496 117.22 181.296V180.208C116.82 181.04 115.844 181.584 114.74 181.584C112.612 181.584 111.108 179.92 111.108 177.44C111.108 174.992 112.596 173.264 114.708 173.264C115.94 173.264 116.868 173.856 117.284 174.784V173.456H119.284V181.248C119.284 183.44 117.684 184.592 115.252 184.592ZM115.22 179.984C116.436 179.984 117.22 179.024 117.236 177.424C117.252 175.84 116.452 174.864 115.22 174.864C113.972 174.864 113.236 175.856 113.236 177.424C113.236 178.992 114.004 179.984 115.22 179.984ZM121.322 172.32V170.496H123.45V172.32H121.322ZM121.354 182V173.456H123.402V182H121.354ZM125.776 182V173.456H127.696L127.744 175.12C128.08 173.968 128.736 173.456 129.792 173.456H130.576V175.216H129.776C128.464 175.216 127.824 175.76 127.824 177.072V182H125.776ZM131.869 172.32V170.496H133.997V172.32H131.869ZM131.901 182V173.456H133.949V182H131.901ZM136.323 182V173.456H138.179L138.227 174.88C138.659 173.856 139.523 173.264 140.579 173.264C141.827 173.264 142.691 173.92 143.059 175.024C143.443 173.888 144.323 173.264 145.507 173.264C147.267 173.264 148.355 174.4 148.355 176.512V182H146.307V177.04C146.307 175.632 145.843 174.928 144.851 174.928C143.875 174.928 143.283 175.728 143.283 177.104V182H141.379V177.104C141.379 175.712 140.995 174.928 139.955 174.928C138.979 174.928 138.371 175.744 138.371 177.104V182H136.323ZM152.881 182.192C151.089 182.192 149.905 181.344 149.905 179.856C149.905 178.384 150.817 177.6 152.689 177.232L155.521 176.672C155.521 175.472 154.961 174.848 153.873 174.848C152.881 174.848 152.321 175.312 152.129 176.176L150.049 176.08C150.385 174.288 151.761 173.264 153.873 173.264C156.305 173.264 157.569 174.544 157.569 176.816V179.92C157.569 180.384 157.729 180.512 158.049 180.512H158.321V182C158.177 182.032 157.857 182.064 157.569 182.064C156.641 182.064 155.953 181.728 155.793 180.688C155.361 181.6 154.273 182.192 152.881 182.192ZM153.297 180.704C154.657 180.704 155.521 179.84 155.521 178.544V178.064L153.313 178.512C152.401 178.688 152.033 179.072 152.033 179.664C152.033 180.336 152.481 180.704 153.297 180.704ZM159.651 182V173.456H161.507L161.555 174.912C162.019 173.744 162.979 173.264 164.115 173.264C166.003 173.264 167.027 174.592 167.027 176.512V182H164.979V177.168C164.979 175.728 164.595 174.928 163.491 174.928C162.387 174.928 161.699 175.728 161.699 177.168V182H159.651ZM173.042 182V170.64H175.09V177.312L178.594 173.456H181.122L177.778 177.008L181.234 182H178.93L176.434 178.224L175.09 179.648V182H173.042ZM185.754 182.192C183.194 182.192 181.562 180.432 181.562 177.728C181.562 175.04 183.194 173.264 185.706 173.264C188.154 173.264 189.753 174.96 189.753 177.84V178.304H183.69C183.754 179.808 184.538 180.56 185.77 180.56C186.682 180.56 187.29 180.128 187.546 179.376L189.642 179.504C189.178 181.168 187.722 182.192 185.754 182.192ZM183.69 176.928H187.642C187.546 175.536 186.794 174.88 185.706 174.88C184.602 174.88 183.85 175.6 183.69 176.928ZM54.4599 213L60.6039 195.96H64.4199L70.5639 213H67.2999L65.8839 208.968H59.1399L57.7239 213H54.4599ZM60.0519 206.304H64.9719L62.5239 199.104L60.0519 206.304ZM75.1856 213C73.3136 213 72.1136 212.112 72.1136 209.976V195.96H75.1856V209.664C75.1856 210.336 75.5216 210.624 76.1456 210.624H77.0816V213H75.1856ZM82.9117 213.288C80.2237 213.288 78.4477 212.016 78.4477 209.784C78.4477 207.576 79.8157 206.4 82.6237 205.848L86.8717 205.008C86.8717 203.208 86.0317 202.272 84.3997 202.272C82.9117 202.272 82.0717 202.968 81.7837 204.264L78.6637 204.12C79.1677 201.432 81.2317 199.896 84.3997 199.896C88.0477 199.896 89.9437 201.816 89.9437 205.224V209.88C89.9437 210.576 90.1837 210.768 90.6637 210.768H91.0717V213C90.8557 213.048 90.3757 213.096 89.9437 213.096C88.5517 213.096 87.5197 212.592 87.2797 211.032C86.6317 212.4 84.9997 213.288 82.9117 213.288ZM83.5357 211.056C85.5757 211.056 86.8717 209.76 86.8717 207.816V207.096L83.5597 207.768C82.1917 208.032 81.6397 208.608 81.6397 209.496C81.6397 210.504 82.3117 211.056 83.5357 211.056ZM93.0667 213V200.184H95.8507L95.9227 202.32C96.5707 200.784 97.8667 199.896 99.4507 199.896C101.323 199.896 102.619 200.88 103.171 202.536C103.747 200.832 105.067 199.896 106.843 199.896C109.483 199.896 111.115 201.6 111.115 204.768V213H108.043V205.56C108.043 203.448 107.347 202.392 105.859 202.392C104.395 202.392 103.507 203.592 103.507 205.656V213H100.651V205.656C100.651 203.568 100.075 202.392 98.5147 202.392C97.0507 202.392 96.1387 203.616 96.1387 205.656V213H93.0667ZM117.904 213.288C115.216 213.288 113.44 212.016 113.44 209.784C113.44 207.576 114.808 206.4 117.616 205.848L121.864 205.008C121.864 203.208 121.024 202.272 119.392 202.272C117.904 202.272 117.064 202.968 116.776 204.264L113.656 204.12C114.16 201.432 116.224 199.896 119.392 199.896C123.04 199.896 124.936 201.816 124.936 205.224V209.88C124.936 210.576 125.176 210.768 125.656 210.768H126.064V213C125.848 213.048 125.368 213.096 124.936 213.096C123.544 213.096 122.512 212.592 122.272 211.032C121.624 212.4 119.992 213.288 117.904 213.288ZM118.528 211.056C120.568 211.056 121.864 209.76 121.864 207.816V207.096L118.552 207.768C117.184 208.032 116.632 208.608 116.632 209.496C116.632 210.504 117.304 211.056 118.528 211.056ZM132.539 213C129.995 213 128.819 211.872 128.819 209.328V202.56H126.803V200.184H128.819V197.184H131.891V200.184H135.275V202.56H131.891V209.04C131.891 210.24 132.395 210.624 133.475 210.624H135.275V213H132.539ZM147.085 213V198.672H141.901V195.96H155.365V198.672H150.205V213H147.085ZM160.174 213.288C157.558 213.288 155.95 211.488 155.95 208.44V200.184H159.022V207.672C159.022 209.832 159.718 210.792 161.206 210.792C162.862 210.792 163.822 209.664 163.822 207.552V200.184H166.894V213H164.086L164.038 210.912C163.366 212.472 162.046 213.288 160.174 213.288ZM170.994 198.48V195.744H174.186V198.48H170.994ZM168.354 216.6V214.224H169.626C170.538 214.224 171.042 213.912 171.042 212.808V200.184H174.114V212.904C174.114 215.544 173.034 216.6 170.178 216.6H168.354ZM181.291 213.288C178.675 213.288 177.067 211.488 177.067 208.44V200.184H180.139V207.672C180.139 209.832 180.835 210.792 182.323 210.792C183.979 210.792 184.939 209.664 184.939 207.552V200.184H188.011V213H185.203L185.155 210.912C184.483 212.472 183.163 213.288 181.291 213.288ZM195.107 213.288C192.419 213.288 190.643 212.016 190.643 209.784C190.643 207.576 192.011 206.4 194.819 205.848L199.067 205.008C199.067 203.208 198.227 202.272 196.595 202.272C195.107 202.272 194.267 202.968 193.979 204.264L190.859 204.12C191.363 201.432 193.427 199.896 196.595 199.896C200.243 199.896 202.139 201.816 202.139 205.224V209.88C202.139 210.576 202.379 210.768 202.859 210.768H203.267V213C203.051 213.048 202.571 213.096 202.139 213.096C200.747 213.096 199.715 212.592 199.475 211.032C198.827 212.4 197.195 213.288 195.107 213.288ZM195.731 211.056C197.771 211.056 199.067 209.76 199.067 207.816V207.096L195.755 207.768C194.387 208.032 193.835 208.608 193.835 209.496C193.835 210.504 194.507 211.056 195.731 211.056ZM205.262 213V200.184H208.046L208.118 202.368C208.814 200.616 210.254 199.896 211.958 199.896C214.79 199.896 216.326 201.888 216.326 204.768V213H213.254V205.752C213.254 203.592 212.678 202.392 211.022 202.392C209.366 202.392 208.334 203.592 208.334 205.752V213H205.262Z" fill="#334155"/>
<circle cx="31" cy="31" r="31" fill="#0891B2"/>
<path d="M25.872 48C25.872 37.44 30.144 27.744 36.72 20.064H18.96V13.92H44.112V19.632C36.96 27.696 33.264 35.904 33.264 48H25.872Z" fill="white"/>
</svg>
