<svg width="256" height="212" viewBox="0 0 256 212" fill="none" xmlns="http://www.w3.org/2000/svg">
<g clip-path="url(#clip0_391_2219)">
<mask id="mask0_391_2219" style="mask-type:luminance" maskUnits="userSpaceOnUse" x="74" y="34" width="108" height="108">
<path d="M179 139V37H77V139H179Z" fill="white" stroke="white" stroke-width="6"/>
</mask>
<g mask="url(#mask0_391_2219)">
<path d="M128 113.524C128 127.503 116.667 138.836 102.687 138.836C88.7078 138.836 77.375 127.503 77.375 113.524C77.375 99.5439 88.7078 88.2111 102.687 88.2111C116.667 88.2111 128 99.5439 128 113.524Z" stroke="#334155" stroke-width="6" stroke-miterlimit="10" stroke-linecap="round" stroke-linejoin="round"/>
<path d="M102.688 138.836H172.297C175.791 138.836 178.625 136.003 178.625 132.508V58.2587L157.532 37.1644H109.016C105.521 37.1644 102.688 39.9977 102.688 43.4925V88.2111" stroke="#334155" stroke-width="6" stroke-miterlimit="10" stroke-linecap="round" stroke-linejoin="round"/>
<path d="M157.531 37.1644V58.2581H178.625L157.531 37.1644Z" stroke="#334155" stroke-width="6" stroke-miterlimit="10" stroke-linecap="round" stroke-linejoin="round"/>
<path d="M119.428 94.5392H163.859" stroke="#334155" stroke-width="6" stroke-miterlimit="10" stroke-linecap="round" stroke-linejoin="round"/>
<path d="M117.453 75.5549H163.859" stroke="#334155" stroke-width="6" stroke-miterlimit="10" stroke-linecap="round" stroke-linejoin="round"/>
<path d="M128 113.524H163.859" stroke="#334155" stroke-width="6" stroke-miterlimit="10" stroke-linecap="round" stroke-linejoin="round"/>
<path d="M102.688 100.867V113.524H111.125" stroke="#334155" stroke-width="6" stroke-miterlimit="10" stroke-linecap="round" stroke-linejoin="round"/>
</g>
</g>
<path d="M58.9675 174V162.64H61.7675L64.9035 171.44L68.0395 162.64H70.8395V174H68.7595V166.16L65.8955 173.984H63.9115L61.0475 166.16V174H58.9675ZM76.7848 174.192C74.2248 174.192 72.5928 172.432 72.5928 169.728C72.5928 167.04 74.2248 165.264 76.7368 165.264C79.1848 165.264 80.7847 166.96 80.7847 169.84V170.304H74.7208C74.7848 171.808 75.5688 172.56 76.8008 172.56C77.7128 172.56 78.3208 172.128 78.5768 171.376L80.6728 171.504C80.2088 173.168 78.7528 174.192 76.7848 174.192ZM74.7208 168.928H78.6728C78.5768 167.536 77.8248 166.88 76.7368 166.88C75.6328 166.88 74.8808 167.6 74.7208 168.928ZM82.3856 174V165.456H84.2416L84.2896 166.912C84.7536 165.744 85.7136 165.264 86.8496 165.264C88.7376 165.264 89.7616 166.592 89.7616 168.512V174H87.7136V169.168C87.7136 167.728 87.3296 166.928 86.2256 166.928C85.1216 166.928 84.4336 167.728 84.4336 169.168V174H82.3856ZM94.6079 174.192C92.8639 174.192 91.7919 172.992 91.7919 170.96V165.456H93.8399V170.448C93.8399 171.888 94.3039 172.528 95.2959 172.528C96.3999 172.528 97.0399 171.776 97.0399 170.368V165.456H99.0879V174H97.2159L97.1839 172.608C96.7359 173.648 95.8559 174.192 94.6079 174.192ZM101.339 174V165.456H103.195L103.243 166.912C103.707 165.744 104.667 165.264 105.803 165.264C107.691 165.264 108.715 166.592 108.715 168.512V174H106.667V169.168C106.667 167.728 106.283 166.928 105.179 166.928C104.075 166.928 103.387 167.728 103.387 169.168V174H101.339ZM114.393 176.592C112.137 176.592 110.889 175.616 110.505 174.16L112.617 174.016C112.825 174.672 113.289 175.04 114.393 175.04C115.657 175.04 116.361 174.496 116.361 173.296V172.208C115.961 173.04 114.985 173.584 113.881 173.584C111.753 173.584 110.249 171.92 110.249 169.44C110.249 166.992 111.737 165.264 113.849 165.264C115.081 165.264 116.009 165.856 116.425 166.784V165.456H118.425V173.248C118.425 175.44 116.825 176.592 114.393 176.592ZM114.361 171.984C115.577 171.984 116.361 171.024 116.377 169.424C116.393 167.84 115.593 166.864 114.361 166.864C113.113 166.864 112.377 167.856 112.377 169.424C112.377 170.992 113.145 171.984 114.361 171.984ZM124.159 176.592C121.903 176.592 120.655 175.616 120.271 174.16L122.383 174.016C122.591 174.672 123.055 175.04 124.159 175.04C125.423 175.04 126.127 174.496 126.127 173.296V172.208C125.727 173.04 124.751 173.584 123.647 173.584C121.519 173.584 120.015 171.92 120.015 169.44C120.015 166.992 121.503 165.264 123.615 165.264C124.847 165.264 125.775 165.856 126.191 166.784V165.456H128.191V173.248C128.191 175.44 126.591 176.592 124.159 176.592ZM124.127 171.984C125.343 171.984 126.127 171.024 126.143 169.424C126.159 167.84 125.359 166.864 124.127 166.864C122.879 166.864 122.143 167.856 122.143 169.424C122.143 170.992 122.911 171.984 124.127 171.984ZM133.249 174.192C131.505 174.192 130.433 172.992 130.433 170.96V165.456H132.481V170.448C132.481 171.888 132.945 172.528 133.937 172.528C135.041 172.528 135.681 171.776 135.681 170.368V165.456H137.729V174H135.857L135.825 172.608C135.377 173.648 134.497 174.192 133.249 174.192ZM147.505 174.256C145.025 174.256 143.537 172.496 143.521 170.064L145.617 169.952C145.649 171.616 146.321 172.448 147.505 172.448C148.705 172.448 149.393 171.6 149.393 169.952V162.64H151.473V169.952C151.473 172.592 149.905 174.256 147.505 174.256ZM156.116 174.192C154.324 174.192 153.14 173.344 153.14 171.856C153.14 170.384 154.052 169.6 155.924 169.232L158.756 168.672C158.756 167.472 158.196 166.848 157.108 166.848C156.116 166.848 155.556 167.312 155.364 168.176L153.284 168.08C153.62 166.288 154.996 165.264 157.108 165.264C159.54 165.264 160.804 166.544 160.804 168.816V171.92C160.804 172.384 160.964 172.512 161.284 172.512H161.556V174C161.412 174.032 161.092 174.064 160.804 174.064C159.876 174.064 159.188 173.728 159.028 172.688C158.596 173.6 157.508 174.192 156.116 174.192ZM156.532 172.704C157.892 172.704 158.756 171.84 158.756 170.544V170.064L156.548 170.512C155.636 170.688 155.268 171.072 155.268 171.664C155.268 172.336 155.716 172.704 156.532 172.704ZM165.832 174.192C163.656 174.192 162.296 172.464 162.296 169.728C162.296 166.992 163.688 165.264 165.832 165.264C167.032 165.264 167.976 165.792 168.44 166.672V162.64H170.488V174H168.536L168.488 172.736C168.008 173.648 167.016 174.192 165.832 174.192ZM166.456 172.528C167.72 172.528 168.44 171.536 168.44 169.728C168.44 167.904 167.736 166.928 166.456 166.928C165.208 166.928 164.424 167.984 164.424 169.728C164.424 171.44 165.224 172.528 166.456 172.528ZM174.365 174L171.789 165.456H173.885L175.549 171.68L177.261 165.456H179.053L180.781 171.68L182.445 165.456H184.541L181.965 174H179.853L178.157 168.272L176.477 174H174.365ZM188.038 174.192C186.246 174.192 185.062 173.344 185.062 171.856C185.062 170.384 185.974 169.6 187.846 169.232L190.678 168.672C190.678 167.472 190.118 166.848 189.03 166.848C188.038 166.848 187.478 167.312 187.286 168.176L185.206 168.08C185.542 166.288 186.918 165.264 189.03 165.264C191.462 165.264 192.726 166.544 192.726 168.816V171.92C192.726 172.384 192.885 172.512 193.206 172.512H193.477V174C193.334 174.032 193.014 174.064 192.726 174.064C191.798 174.064 191.11 173.728 190.95 172.688C190.518 173.6 189.43 174.192 188.038 174.192ZM188.454 172.704C189.814 172.704 190.678 171.84 190.678 170.544V170.064L188.47 170.512C187.558 170.688 187.19 171.072 187.19 171.664C187.19 172.336 187.638 172.704 188.454 172.704ZM196.731 174C195.483 174 194.683 173.408 194.683 171.984V162.64H196.731V171.776C196.731 172.224 196.955 172.416 197.371 172.416H197.995V174H196.731ZM21.0997 205V187.96H27.6997C31.6837 187.96 34.0597 190 34.0597 193.384C34.0597 196.792 31.6837 198.856 27.6997 198.856H24.2197V205H21.0997ZM24.2197 196.144H27.5557C29.6677 196.144 30.8437 195.208 30.8437 193.384C30.8437 191.608 29.6917 190.672 27.5557 190.672H24.2197V196.144ZM41.6615 205.288C37.8215 205.288 35.3735 202.648 35.3735 198.592C35.3735 194.56 37.8215 191.896 41.5895 191.896C45.2615 191.896 47.6615 194.44 47.6615 198.76V199.456H38.5655C38.6615 201.712 39.8375 202.84 41.6855 202.84C43.0535 202.84 43.9655 202.192 44.3495 201.064L47.4935 201.256C46.7975 203.752 44.6135 205.288 41.6615 205.288ZM38.5655 197.392H44.4935C44.3495 195.304 43.2215 194.32 41.5895 194.32C39.9335 194.32 38.8055 195.4 38.5655 197.392ZM50.0628 205V192.184H52.8468L52.9188 194.368C53.6148 192.616 55.0548 191.896 56.7588 191.896C59.5908 191.896 61.1268 193.888 61.1268 196.768V205H58.0548V197.752C58.0548 195.592 57.4788 194.392 55.8228 194.392C54.1668 194.392 53.1348 195.592 53.1348 197.752V205H50.0628ZM69.6442 208.888C66.2602 208.888 64.3882 207.424 63.8122 205.24L66.9802 205.024C67.2922 206.008 67.9882 206.56 69.6442 206.56C71.5402 206.56 72.5962 205.744 72.5962 203.944V202.312C71.9962 203.56 70.5322 204.376 68.8762 204.376C65.6842 204.376 63.4282 201.88 63.4282 198.16C63.4282 194.488 65.6602 191.896 68.8282 191.896C70.6762 191.896 72.0682 192.784 72.6922 194.176V192.184H75.6922V203.872C75.6922 207.16 73.2922 208.888 69.6442 208.888ZM69.5962 201.976C71.4202 201.976 72.5962 200.536 72.6202 198.136C72.6442 195.76 71.4442 194.296 69.5962 194.296C67.7242 194.296 66.6202 195.784 66.6202 198.136C66.6202 200.488 67.7722 201.976 69.5962 201.976ZM78.7492 190.48V187.744H81.9412V190.48H78.7492ZM78.7972 205V192.184H81.8692V205H78.7972ZM85.43 205V192.184H88.31L88.382 194.68C88.886 192.952 89.87 192.184 91.454 192.184H92.63V194.824H91.43C89.462 194.824 88.502 195.64 88.502 197.608V205H85.43ZM94.5695 190.48V187.744H97.7615V190.48H94.5695ZM94.6175 205V192.184H97.6895V205H94.6175ZM101.25 205V192.184H104.034L104.106 194.32C104.754 192.784 106.05 191.896 107.634 191.896C109.506 191.896 110.802 192.88 111.354 194.536C111.93 192.832 113.25 191.896 115.026 191.896C117.666 191.896 119.298 193.6 119.298 196.768V205H116.226V197.56C116.226 195.448 115.53 194.392 114.042 194.392C112.578 194.392 111.69 195.592 111.69 197.656V205H108.834V197.656C108.834 195.568 108.258 194.392 106.698 194.392C105.234 194.392 104.322 195.616 104.322 197.656V205H101.25ZM126.088 205.288C123.4 205.288 121.624 204.016 121.624 201.784C121.624 199.576 122.992 198.4 125.8 197.848L130.048 197.008C130.048 195.208 129.208 194.272 127.576 194.272C126.088 194.272 125.248 194.968 124.96 196.264L121.84 196.12C122.344 193.432 124.408 191.896 127.576 191.896C131.224 191.896 133.12 193.816 133.12 197.224V201.88C133.12 202.576 133.359 202.768 133.84 202.768H134.247V205C134.032 205.048 133.552 205.096 133.12 205.096C131.728 205.096 130.696 204.592 130.456 203.032C129.808 204.4 128.176 205.288 126.088 205.288ZM126.712 203.056C128.752 203.056 130.048 201.76 130.048 199.816V199.096L126.736 199.768C125.368 200.032 124.816 200.608 124.816 201.496C124.816 202.504 125.488 203.056 126.712 203.056ZM136.243 205V192.184H139.027L139.099 194.368C139.795 192.616 141.235 191.896 142.939 191.896C145.771 191.896 147.307 193.888 147.307 196.768V205H144.235V197.752C144.235 195.592 143.659 194.392 142.003 194.392C140.347 194.392 139.315 195.592 139.315 197.752V205H136.243ZM156.568 205V187.96H162.952C167.104 187.96 169.312 189.376 169.312 192.568C169.312 194.584 168.088 195.928 165.952 196.192C168.568 196.456 170.032 197.992 170.032 200.32C170.032 203.44 167.8 205 163.816 205H156.568ZM159.688 195.112H162.856C164.896 195.112 166.12 194.32 166.12 192.856C166.12 191.32 164.968 190.6 162.856 190.6H159.688V195.112ZM159.688 202.36H163.672C165.616 202.36 166.84 201.544 166.84 199.984C166.84 198.4 165.64 197.56 163.672 197.56H159.688V202.36ZM176.525 205.288C173.837 205.288 172.061 204.016 172.061 201.784C172.061 199.576 173.429 198.4 176.237 197.848L180.485 197.008C180.485 195.208 179.645 194.272 178.013 194.272C176.525 194.272 175.685 194.968 175.397 196.264L172.277 196.12C172.781 193.432 174.845 191.896 178.013 191.896C181.661 191.896 183.557 193.816 183.557 197.224V201.88C183.557 202.576 183.797 202.768 184.277 202.768H184.685V205C184.469 205.048 183.989 205.096 183.557 205.096C182.165 205.096 181.133 204.592 180.893 203.032C180.245 204.4 178.613 205.288 176.525 205.288ZM177.149 203.056C179.189 203.056 180.485 201.76 180.485 199.816V199.096L177.173 199.768C175.805 200.032 175.253 200.608 175.253 201.496C175.253 202.504 175.925 203.056 177.149 203.056ZM186.68 205V192.184H189.56L189.632 194.68C190.136 192.952 191.12 192.184 192.704 192.184H193.88V194.824H192.68C190.712 194.824 189.752 195.64 189.752 197.608V205H186.68ZM199.353 205.288C196.665 205.288 194.889 204.016 194.889 201.784C194.889 199.576 196.257 198.4 199.065 197.848L203.313 197.008C203.313 195.208 202.473 194.272 200.841 194.272C199.353 194.272 198.513 194.968 198.225 196.264L195.105 196.12C195.609 193.432 197.673 191.896 200.841 191.896C204.489 191.896 206.385 193.816 206.385 197.224V201.88C206.385 202.576 206.625 202.768 207.105 202.768H207.513V205C207.297 205.048 206.817 205.096 206.385 205.096C204.993 205.096 203.961 204.592 203.721 203.032C203.073 204.4 201.441 205.288 199.353 205.288ZM199.977 203.056C202.017 203.056 203.313 201.76 203.313 199.816V199.096L200.001 199.768C198.633 200.032 198.081 200.608 198.081 201.496C198.081 202.504 198.753 203.056 199.977 203.056ZM209.508 205V192.184H212.292L212.364 194.368C213.06 192.616 214.5 191.896 216.204 191.896C219.036 191.896 220.572 193.888 220.572 196.768V205H217.5V197.752C217.5 195.592 216.924 194.392 215.268 194.392C213.612 194.392 212.58 195.592 212.58 197.752V205H209.508ZM229.09 208.888C225.706 208.888 223.834 207.424 223.258 205.24L226.426 205.024C226.738 206.008 227.434 206.56 229.09 206.56C230.986 206.56 232.042 205.744 232.042 203.944V202.312C231.442 203.56 229.978 204.376 228.322 204.376C225.13 204.376 222.874 201.88 222.874 198.16C222.874 194.488 225.105 191.896 228.273 191.896C230.122 191.896 231.514 192.784 232.138 194.176V192.184H235.138V203.872C235.138 207.16 232.738 208.888 229.09 208.888ZM229.042 201.976C230.866 201.976 232.042 200.536 232.066 198.136C232.09 195.76 230.89 194.296 229.042 194.296C227.17 194.296 226.066 195.784 226.066 198.136C226.066 200.488 227.218 201.976 229.042 201.976Z" fill="#334155"/>
<circle cx="31" cy="31" r="31" fill="#0891B2"/>
<path d="M31.936 48.768C23.152 48.768 18.688 42.96 18.688 32.976C18.688 21.6 23.2 13.152 33.088 13.152C39.712 13.152 43.6 16.608 44.848 22.08L38.08 22.56C37.312 20.448 36.016 19.152 33.088 19.152C29.008 19.152 26.416 22.272 25.792 28.896C27.28 27.024 29.872 25.632 33.472 25.632C40.432 25.632 44.992 30.048 44.992 36.768C44.992 44.4 39.712 48.768 31.936 48.768ZM31.888 42.96C35.344 42.96 37.744 40.608 37.744 36.864C37.744 33.264 35.488 30.816 32.128 30.816C28.528 30.816 26.032 33.216 26.032 36.864C26.032 40.464 28.336 42.96 31.888 42.96Z" fill="white"/>
<defs>
<clipPath id="clip0_391_2219">
<rect width="108" height="108" fill="white" transform="translate(74 34)"/>
</clipPath>
</defs>
</svg>
