<svg width="240" height="213" viewBox="0 0 240 213" fill="none" xmlns="http://www.w3.org/2000/svg">
<rect width="186" height="191" transform="translate(54 22)" fill="#FAFAFA"/>
<g clip-path="url(#clip0_391_2035)">
<path d="M209.872 83.6373L203.606 64.7493C201.979 59.84 197.472 56.6667 192.128 56.6667H175.35L175.963 51.6667C176.103 50.6201 176.02 49.5556 175.718 48.5437C175.416 47.5318 174.902 46.5957 174.211 45.7973C173.51 45.015 172.65 44.3908 171.689 43.966C170.728 43.5412 169.688 43.3255 168.637 43.3333H104.006C99.7388 43.3333 95.8668 46.7813 95.3735 50.9947L95.0322 53.6613C94.9877 54.0087 95.012 54.3615 95.1039 54.6995C95.1957 55.0374 95.3532 55.354 95.5674 55.6311C95.7816 55.9082 96.0483 56.1404 96.3522 56.3144C96.6562 56.4885 96.9914 56.6009 97.3388 56.6453C97.6868 56.6939 98.041 56.6724 98.3805 56.5822C98.7201 56.4919 99.0382 56.3348 99.3162 56.1199C99.5942 55.905 99.8264 55.6368 99.9993 55.3309C100.172 55.025 100.282 54.6877 100.323 54.3387L100.667 51.6427C100.851 50.056 102.411 48.6667 104.006 48.6667H168.637C169.277 48.6667 169.835 48.9013 170.211 49.3253C170.404 49.5565 170.546 49.8268 170.625 50.1176C170.705 50.4085 170.721 50.7131 170.672 51.0107L164.427 102.003H94.4215C94.4295 101.357 94.2005 100.732 93.7778 100.244C93.355 99.7564 92.7681 99.4409 92.1282 99.3573C91.7806 99.3133 91.4278 99.3384 91.09 99.4312C90.7522 99.524 90.4361 99.6826 90.1598 99.8979C89.8835 100.113 89.6525 100.381 89.48 100.686C89.3075 100.991 89.197 101.327 89.1548 101.675L88.1602 109.693C88.0269 110.744 88.1177 111.81 88.4266 112.823C88.7355 113.835 89.2554 114.771 89.9522 115.568C90.647 116.346 91.5008 116.966 92.4558 117.386C93.4109 117.806 94.4449 118.017 95.4882 118.003H100.651C100.691 120.651 101.566 123.12 103.288 125.061C105.344 127.387 108.272 128.669 111.526 128.669C117.627 128.669 123.174 123.963 124.422 118.003H170.627C170.667 120.651 171.542 123.117 173.259 125.059C175.318 127.387 178.246 128.669 181.502 128.669C187.6 128.669 193.147 123.963 194.398 118.003H200.139C204.454 118.003 208.246 114.629 208.771 110.328L210.819 93.6267C211.253 90.269 210.93 86.8569 209.875 83.64L209.872 83.6373ZM204.152 83.3333H188.083L189.35 72.992C189.368 72.856 189.587 72.6667 189.696 72.6667H200.614L204.152 83.3333ZM174.699 62H192.131C195.184 62 197.638 63.696 198.544 66.4293L198.846 67.3333H189.696C186.878 67.3333 184.403 69.5333 184.059 72.3413L182.752 83.008C182.66 83.7193 182.72 84.4421 182.929 85.1284C183.137 85.8147 183.488 86.449 183.96 86.9893C184.904 88.0533 186.278 88.664 187.736 88.664H205.534C205.703 90.0956 205.7 91.5424 205.526 92.9733L204.419 101.997H169.798L174.696 61.9973L174.699 62ZM171.766 112.667H168.491L169.144 107.333H176.115C174.24 108.717 172.744 110.551 171.766 112.667ZM163.12 112.667H124.35C123.942 111.043 123.155 109.538 122.054 108.277C121.739 107.923 121.371 107.64 121.019 107.333H163.776L163.12 112.667ZM101.766 112.667H95.4855C95.1956 112.677 94.9067 112.625 94.6388 112.514C94.3709 112.403 94.1303 112.235 93.9335 112.021C93.7373 111.79 93.5928 111.519 93.5096 111.227C93.4263 110.935 93.4063 110.628 93.4508 110.328L93.8215 107.333H106.048C104.185 108.713 102.709 110.55 101.763 112.667H101.766ZM119.355 116.341C118.891 120.133 115.304 123.333 111.523 123.333C109.816 123.333 108.312 122.691 107.278 121.523C106.227 120.339 105.768 118.728 105.979 116.992C106.446 113.2 110.032 110 113.814 110C115.52 110 117.027 110.643 118.059 111.811C119.11 112.995 119.568 114.605 119.355 116.341ZM189.331 116.341C188.864 120.133 185.278 123.333 181.499 123.333C179.792 123.333 178.286 122.691 177.251 121.523C176.2 120.339 175.742 118.728 175.955 116.992C176.422 113.2 180.008 110 183.787 110C185.494 110 187 110.643 188.035 111.811C189.086 112.995 189.544 114.605 189.331 116.341ZM200.139 112.667H194.326C193.918 111.043 193.131 109.538 192.03 108.277C191.715 107.923 191.347 107.64 190.995 107.333H203.768L203.48 109.675C203.286 111.269 201.723 112.667 200.139 112.667Z" fill="#334155"/>
<path d="M107.08 91.3333C107.08 90.6261 106.799 89.9478 106.299 89.4477C105.799 88.9476 105.121 88.6667 104.413 88.6667H85.6667C84.9594 88.6667 84.2811 88.9476 83.781 89.4477C83.281 89.9478 83 90.6261 83 91.3333C83 92.0406 83.281 92.7189 83.781 93.219C84.2811 93.7191 84.9594 94 85.6667 94H104.413C105.121 94 105.799 93.7191 106.299 93.219C106.799 92.7189 107.08 92.0406 107.08 91.3333ZM93.8987 75.3333C93.1914 75.3333 92.5131 75.6143 92.013 76.1144C91.513 76.6145 91.232 77.2928 91.232 78C91.232 78.7072 91.513 79.3855 92.013 79.8856C92.5131 80.3857 93.1914 80.6667 93.8987 80.6667H106.061C106.769 80.6667 107.447 80.3857 107.947 79.8856C108.447 79.3855 108.728 78.7072 108.728 78C108.728 77.2928 108.447 76.6145 107.947 76.1144C107.447 75.6143 106.769 75.3333 106.061 75.3333H93.8987ZM88.8 67.3333H110.347C111.054 67.3333 111.732 67.0524 112.232 66.5523C112.732 66.0522 113.013 65.3739 113.013 64.6667C113.013 63.9594 112.732 63.2811 112.232 62.781C111.732 62.281 111.054 62 110.347 62H88.8C88.0928 62 87.4145 62.281 86.9144 62.781C86.4143 63.2811 86.1333 63.9594 86.1333 64.6667C86.1333 65.3739 86.4143 66.0522 86.9144 66.5523C87.4145 67.0524 88.0928 67.3333 88.8 67.3333Z" fill="#334155"/>
</g>
<path d="M61.6159 174V162.64H65.8719C68.6399 162.64 70.1119 163.584 70.1119 165.712C70.1119 167.056 69.2959 167.952 67.8719 168.128C69.6159 168.304 70.5919 169.328 70.5919 170.88C70.5919 172.96 69.1039 174 66.4479 174H61.6159ZM63.6959 167.408H65.8079C67.1679 167.408 67.9839 166.88 67.9839 165.904C67.9839 164.88 67.2159 164.4 65.8079 164.4H63.6959V167.408ZM63.6959 172.24H66.3519C67.6479 172.24 68.4639 171.696 68.4639 170.656C68.4639 169.6 67.6639 169.04 66.3519 169.04H63.6959V172.24ZM74.9203 174.192C73.1283 174.192 71.9443 173.344 71.9443 171.856C71.9443 170.384 72.8563 169.6 74.7283 169.232L77.5603 168.672C77.5603 167.472 77.0003 166.848 75.9123 166.848C74.9203 166.848 74.3603 167.312 74.1683 168.176L72.0883 168.08C72.4243 166.288 73.8003 165.264 75.9123 165.264C78.3443 165.264 79.6083 166.544 79.6083 168.816V171.92C79.6083 172.384 79.7683 172.512 80.0883 172.512H80.3603V174C80.2163 174.032 79.8963 174.064 79.6083 174.064C78.6803 174.064 77.9923 173.728 77.8323 172.688C77.4003 173.6 76.3123 174.192 74.9203 174.192ZM75.3363 172.704C76.6963 172.704 77.5603 171.84 77.5603 170.544V170.064L75.3523 170.512C74.4403 170.688 74.0723 171.072 74.0723 171.664C74.0723 172.336 74.5203 172.704 75.3363 172.704ZM81.6903 174V165.456H83.6103L83.6583 167.12C83.9943 165.968 84.6503 165.456 85.7063 165.456H86.4903V167.216H85.6903C84.3783 167.216 83.7383 167.76 83.7383 169.072V174H81.6903ZM90.1391 174.192C88.3471 174.192 87.1631 173.344 87.1631 171.856C87.1631 170.384 88.0751 169.6 89.9471 169.232L92.7791 168.672C92.7791 167.472 92.2191 166.848 91.1311 166.848C90.1391 166.848 89.5791 167.312 89.3871 168.176L87.3071 168.08C87.6431 166.288 89.0191 165.264 91.1311 165.264C93.5631 165.264 94.8271 166.544 94.8271 168.816V171.92C94.8271 172.384 94.9871 172.512 95.3071 172.512H95.5791V174C95.4351 174.032 95.1151 174.064 94.8271 174.064C93.8991 174.064 93.2111 173.728 93.0511 172.688C92.6191 173.6 91.5311 174.192 90.1391 174.192ZM90.5551 172.704C91.9151 172.704 92.7791 171.84 92.7791 170.544V170.064L90.5711 170.512C89.6591 170.688 89.2911 171.072 89.2911 171.664C89.2911 172.336 89.7391 172.704 90.5551 172.704ZM96.9091 174V165.456H98.7651L98.8131 166.912C99.2771 165.744 100.237 165.264 101.373 165.264C103.261 165.264 104.285 166.592 104.285 168.512V174H102.237V169.168C102.237 167.728 101.853 166.928 100.749 166.928C99.6451 166.928 98.9571 167.728 98.9571 169.168V174H96.9091ZM109.963 176.592C107.707 176.592 106.459 175.616 106.075 174.16L108.187 174.016C108.395 174.672 108.859 175.04 109.963 175.04C111.227 175.04 111.931 174.496 111.931 173.296V172.208C111.531 173.04 110.555 173.584 109.451 173.584C107.323 173.584 105.819 171.92 105.819 169.44C105.819 166.992 107.307 165.264 109.419 165.264C110.651 165.264 111.579 165.856 111.995 166.784V165.456H113.995V173.248C113.995 175.44 112.395 176.592 109.963 176.592ZM109.931 171.984C111.147 171.984 111.931 171.024 111.947 169.424C111.963 167.84 111.163 166.864 109.931 166.864C108.683 166.864 107.947 167.856 107.947 169.424C107.947 170.992 108.715 171.984 109.931 171.984ZM123.058 174.192C120.882 174.192 119.522 172.464 119.522 169.728C119.522 166.992 120.914 165.264 123.058 165.264C124.258 165.264 125.202 165.792 125.666 166.672V162.64H127.714V174H125.762L125.714 172.736C125.234 173.648 124.242 174.192 123.058 174.192ZM123.682 172.528C124.946 172.528 125.666 171.536 125.666 169.728C125.666 167.904 124.962 166.928 123.682 166.928C122.434 166.928 121.65 167.984 121.65 169.728C121.65 171.44 122.45 172.528 123.682 172.528ZM129.674 164.32V162.496H131.802V164.32H129.674ZM129.706 174V165.456H131.754V174H129.706ZM136.327 174.192C134.535 174.192 133.351 173.344 133.351 171.856C133.351 170.384 134.263 169.6 136.135 169.232L138.967 168.672C138.967 167.472 138.407 166.848 137.319 166.848C136.327 166.848 135.767 167.312 135.575 168.176L133.495 168.08C133.831 166.288 135.207 165.264 137.319 165.264C139.751 165.264 141.015 166.544 141.015 168.816V171.92C141.015 172.384 141.175 172.512 141.495 172.512H141.767V174C141.623 174.032 141.303 174.064 141.015 174.064C140.087 174.064 139.399 173.728 139.239 172.688C138.807 173.6 137.719 174.192 136.327 174.192ZM136.743 172.704C138.103 172.704 138.967 171.84 138.967 170.544V170.064L136.759 170.512C135.847 170.688 135.479 171.072 135.479 171.664C135.479 172.336 135.927 172.704 136.743 172.704ZM143.097 174V165.456H144.953L145.001 166.912C145.465 165.744 146.425 165.264 147.561 165.264C149.449 165.264 150.473 166.592 150.473 168.512V174H148.425V169.168C148.425 167.728 148.041 166.928 146.937 166.928C145.833 166.928 145.145 167.728 145.145 169.168V174H143.097ZM155.536 174C153.84 174 153.056 173.248 153.056 171.552V167.04H151.712V165.456H153.056V163.456H155.104V165.456H157.36V167.04H155.104V171.36C155.104 172.16 155.44 172.416 156.16 172.416H157.36V174H155.536ZM161.295 174.192C159.503 174.192 158.319 173.344 158.319 171.856C158.319 170.384 159.231 169.6 161.103 169.232L163.935 168.672C163.935 167.472 163.375 166.848 162.287 166.848C161.295 166.848 160.735 167.312 160.543 168.176L158.463 168.08C158.799 166.288 160.175 165.264 162.287 165.264C164.719 165.264 165.983 166.544 165.983 168.816V171.92C165.983 172.384 166.143 172.512 166.463 172.512H166.735V174C166.591 174.032 166.271 174.064 165.983 174.064C165.055 174.064 164.367 173.728 164.207 172.688C163.775 173.6 162.687 174.192 161.295 174.192ZM161.711 172.704C163.071 172.704 163.935 171.84 163.935 170.544V170.064L161.727 170.512C160.815 170.688 160.447 171.072 160.447 171.664C160.447 172.336 160.895 172.704 161.711 172.704ZM168.065 174V165.456H169.985L170.033 167.12C170.369 165.968 171.025 165.456 172.081 165.456H172.865V167.216H172.065C170.753 167.216 170.113 167.76 170.113 169.072V174H168.065ZM178.393 174V165.456H180.249L180.297 166.88C180.729 165.856 181.593 165.264 182.649 165.264C183.897 165.264 184.761 165.92 185.129 167.024C185.513 165.888 186.393 165.264 187.577 165.264C189.337 165.264 190.425 166.4 190.425 168.512V174H188.377V169.04C188.377 167.632 187.913 166.928 186.921 166.928C185.945 166.928 185.353 167.728 185.353 169.104V174H183.449V169.104C183.449 167.712 183.065 166.928 182.025 166.928C181.049 166.928 180.441 167.744 180.441 169.104V174H178.393ZM196.152 174.192C193.592 174.192 191.96 172.432 191.96 169.728C191.96 167.04 193.592 165.264 196.104 165.264C198.552 165.264 200.152 166.96 200.152 169.84V170.304H194.088C194.152 171.808 194.936 172.56 196.168 172.56C197.08 172.56 197.688 172.128 197.944 171.376L200.04 171.504C199.576 173.168 198.12 174.192 196.152 174.192ZM194.088 168.928H198.04C197.944 167.536 197.192 166.88 196.104 166.88C195 166.88 194.248 167.6 194.088 168.928ZM201.753 174V165.456H203.609L203.657 166.912C204.121 165.744 205.081 165.264 206.217 165.264C208.105 165.264 209.129 166.592 209.129 168.512V174H207.081V169.168C207.081 167.728 206.697 166.928 205.593 166.928C204.489 166.928 203.801 167.728 203.801 169.168V174H201.753ZM213.975 174.192C212.231 174.192 211.159 172.992 211.159 170.96V165.456H213.207V170.448C213.207 171.888 213.671 172.528 214.663 172.528C215.767 172.528 216.407 171.776 216.407 170.368V165.456H218.455V174H216.583L216.551 172.608C216.103 173.648 215.223 174.192 213.975 174.192ZM221.189 164.32V162.496H223.317V164.32H221.189ZM219.429 176.4V174.816H220.277C220.885 174.816 221.221 174.608 221.221 173.872V165.456H223.269V173.936C223.269 175.696 222.549 176.4 220.645 176.4H219.429ZM228.053 174.192C226.309 174.192 225.237 172.992 225.237 170.96V165.456H227.285V170.448C227.285 171.888 227.749 172.528 228.741 172.528C229.845 172.528 230.485 171.776 230.485 170.368V165.456H232.533V174H230.661L230.629 172.608C230.181 173.648 229.301 174.192 228.053 174.192ZM74.7403 205V187.96H81.3403C85.3243 187.96 87.7003 190 87.7003 193.384C87.7003 196.792 85.3243 198.856 81.3403 198.856H77.8603V205H74.7403ZM77.8603 196.144H81.1963C83.3083 196.144 84.4843 195.208 84.4843 193.384C84.4843 191.608 83.3323 190.672 81.1963 190.672H77.8603V196.144ZM95.3261 205.288C91.5101 205.288 89.0141 202.648 89.0141 198.592C89.0141 194.536 91.5101 191.896 95.3261 191.896C99.1181 191.896 101.614 194.536 101.614 198.592C101.614 202.648 99.1181 205.288 95.3261 205.288ZM95.3261 202.792C97.2941 202.792 98.4221 201.256 98.4221 198.592C98.4221 195.952 97.2941 194.392 95.3261 194.392C93.3341 194.392 92.2061 195.952 92.2061 198.592C92.2061 201.256 93.3341 202.792 95.3261 202.792ZM109.553 205.288C105.737 205.288 103.241 202.648 103.241 198.592C103.241 194.536 105.737 191.896 109.553 191.896C113.345 191.896 115.841 194.536 115.841 198.592C115.841 202.648 113.345 205.288 109.553 205.288ZM109.553 202.792C111.521 202.792 112.649 201.256 112.649 198.592C112.649 195.952 111.521 194.392 109.553 194.392C107.561 194.392 106.433 195.952 106.433 198.592C106.433 201.256 107.561 202.792 109.553 202.792ZM121.4 205C119.528 205 118.328 204.112 118.328 201.976V187.96H121.4V201.664C121.4 202.336 121.736 202.624 122.36 202.624H123.296V205H121.4ZM134.893 205V190.672H129.709V187.96H143.173V190.672H138.013V205H134.893ZM147.173 205.288C144.485 205.288 142.709 204.016 142.709 201.784C142.709 199.576 144.077 198.4 146.885 197.848L151.133 197.008C151.133 195.208 150.293 194.272 148.661 194.272C147.173 194.272 146.333 194.968 146.045 196.264L142.925 196.12C143.429 193.432 145.493 191.896 148.661 191.896C152.309 191.896 154.205 193.816 154.205 197.224V201.88C154.205 202.576 154.445 202.768 154.925 202.768H155.333V205C155.117 205.048 154.637 205.096 154.205 205.096C152.813 205.096 151.781 204.592 151.541 203.032C150.893 204.4 149.261 205.288 147.173 205.288ZM147.797 203.056C149.837 203.056 151.133 201.76 151.133 199.816V199.096L147.821 199.768C146.453 200.032 145.901 200.608 145.901 201.496C145.901 202.504 146.573 203.056 147.797 203.056ZM157.188 205V187.96H160.26V197.968L165.516 192.184H169.308L164.292 197.512L169.476 205H166.02L162.276 199.336L160.26 201.472V205H157.188ZM174.736 205.288C172.048 205.288 170.272 204.016 170.272 201.784C170.272 199.576 171.64 198.4 174.448 197.848L178.696 197.008C178.696 195.208 177.856 194.272 176.224 194.272C174.736 194.272 173.896 194.968 173.608 196.264L170.488 196.12C170.992 193.432 173.056 191.896 176.224 191.896C179.872 191.896 181.768 193.816 181.768 197.224V201.88C181.768 202.576 182.008 202.768 182.488 202.768H182.896V205C182.68 205.048 182.2 205.096 181.768 205.096C180.376 205.096 179.344 204.592 179.104 203.032C178.456 204.4 176.824 205.288 174.736 205.288ZM175.36 203.056C177.4 203.056 178.696 201.76 178.696 199.816V199.096L175.384 199.768C174.016 200.032 173.464 200.608 173.464 201.496C173.464 202.504 174.136 203.056 175.36 203.056ZM184.891 205V192.184H187.771L187.843 194.68C188.347 192.952 189.331 192.184 190.915 192.184H192.091V194.824H190.891C188.923 194.824 187.963 195.64 187.963 197.608V205H184.891ZM199.222 208.888C195.838 208.888 193.966 207.424 193.39 205.24L196.558 205.024C196.87 206.008 197.566 206.56 199.222 206.56C201.118 206.56 202.174 205.744 202.174 203.944V202.312C201.574 203.56 200.11 204.376 198.454 204.376C195.262 204.376 193.006 201.88 193.006 198.16C193.006 194.488 195.238 191.896 198.406 191.896C200.254 191.896 201.646 192.784 202.27 194.176V192.184H205.27V203.872C205.27 207.16 202.87 208.888 199.222 208.888ZM199.174 201.976C200.998 201.976 202.174 200.536 202.198 198.136C202.222 195.76 201.022 194.296 199.174 194.296C197.302 194.296 196.198 195.784 196.198 198.136C196.198 200.488 197.35 201.976 199.174 201.976ZM213.967 205.288C210.151 205.288 207.655 202.648 207.655 198.592C207.655 194.536 210.151 191.896 213.967 191.896C217.759 191.896 220.255 194.536 220.255 198.592C220.255 202.648 217.759 205.288 213.967 205.288ZM213.967 202.792C215.935 202.792 217.063 201.256 217.063 198.592C217.063 195.952 215.935 194.392 213.967 194.392C211.975 194.392 210.847 195.952 210.847 198.592C210.847 201.256 211.975 202.792 213.967 202.792Z" fill="#334155"/>
<circle cx="31" cy="31" r="31" fill="#0891B2"/>
<path d="M18.1043 48C18.1043 39.264 21.3683 34.512 30.2003 29.808C34.8563 27.36 36.4403 26.112 36.4403 23.52C36.4403 21.024 34.7603 19.296 31.6403 19.296C28.1363 19.296 26.1203 21.408 25.6403 25.2L18.1523 24.768C18.7763 17.52 23.5763 13.152 31.5443 13.152C39.3683 13.152 43.9283 17.28 43.9283 23.424C43.9283 28.752 41.4323 31.104 35.0003 34.56C29.5283 37.488 26.9843 40.032 26.7923 41.856H43.9283V48H18.1043Z" fill="white"/>
<defs>
<clipPath id="clip0_391_2035">
<rect width="128" height="128" fill="white" transform="translate(83 22)"/>
</clipPath>
</defs>
</svg>
