<svg width="242" height="191" viewBox="0 0 242 191" fill="none" xmlns="http://www.w3.org/2000/svg">
<path d="M206.509 25.349L187.615 5.37276C187.38 4.8425 186.996 4.39203 186.51 4.07637C186.023 3.76071 185.456 3.59353 184.876 3.59526C184.406 3.59394 183.942 3.70364 183.522 3.91542C183.103 4.1272 182.739 4.43509 182.461 4.81401L105.402 24.814C105.135 24.839 104.873 24.8995 104.622 24.9938C104.606 24.9998 104.59 25.0045 104.574 25.0108C104.191 25.1612 103.843 25.389 103.553 25.68L96.9539 32.2785C96.0929 33.1398 95.8376 34.423 96.3036 35.548C96.7696 36.673 97.8576 37.3998 99.0753 37.3998H146.764V44.6465H143.114C141.46 44.6465 140.114 45.9923 140.114 47.6465V57.6513C140.114 59.3055 141.46 60.6513 143.114 60.6513H167.585C169.239 60.6513 170.585 59.3055 170.585 57.6513V47.6465C170.585 45.9923 169.239 44.6465 167.585 44.6465H163.935V37.3998H177.182V102.564H172.928C171.274 102.564 169.928 103.91 169.928 105.564V118.2C165.862 116.573 161.375 116.566 157.308 118.19L163.476 101.835V101.835L165.441 96.625C165.741 95.8295 165.689 94.9405 165.298 94.1858C164.907 93.431 164.21 92.876 163.388 92.6628L156.147 90.7838V78.651C156.147 76.9968 154.802 75.651 153.147 75.651H145.935V67.2998C145.935 65.6455 144.589 64.2998 142.935 64.2998H119.016C117.362 64.2998 116.016 65.6455 116.016 67.2998V75.651H108.804C107.149 75.651 105.804 76.9968 105.804 78.651V90.784L98.5639 92.6628C97.7409 92.8763 97.0446 93.4313 96.6534 94.186C96.2621 94.9408 96.2099 95.8295 96.5099 96.625L98.4746 101.835L98.4749 101.836L104.199 117.013C101.152 116.927 98.0861 117.643 95.3679 119.161L91.8854 121.105C91.4802 121.331 91.1815 121.709 91.055 122.156C90.9285 122.602 90.9846 123.081 91.2109 123.486C91.3229 123.687 91.4733 123.863 91.6536 124.006C91.8339 124.148 92.0405 124.254 92.2616 124.317C92.4827 124.379 92.714 124.398 92.9423 124.371C93.1705 124.344 93.3912 124.273 93.5919 124.161L97.0744 122.216C101.167 119.931 106.251 119.931 110.344 122.216C115.567 125.133 121.803 125.133 127.026 122.216C131.18 119.896 136.141 119.896 140.296 122.216C142.907 123.675 145.772 124.404 148.637 124.404C151.502 124.404 154.367 123.675 156.978 122.216C161.132 119.896 166.093 119.896 170.248 122.216C175.392 125.09 181.785 125.09 186.93 122.216C191.084 119.896 196.045 119.896 200.199 122.216L203.682 124.161C203.882 124.273 204.103 124.344 204.331 124.371C204.56 124.398 204.791 124.379 205.012 124.317C205.233 124.254 205.44 124.148 205.62 124.006C205.8 123.863 205.951 123.687 206.063 123.486C206.175 123.285 206.246 123.065 206.273 122.836C206.3 122.608 206.281 122.377 206.219 122.156C206.156 121.935 206.051 121.728 205.908 121.548C205.766 121.368 205.589 121.217 205.388 121.105L201.906 119.161C196.683 116.244 190.446 116.244 185.223 119.161C181.609 121.179 177.222 121.411 173.428 119.865V106.064H205.238C205.702 106.064 206.147 105.879 206.475 105.551C206.803 105.223 206.988 104.778 206.988 104.314C206.988 103.85 206.803 103.405 206.475 103.076C206.147 102.748 205.702 102.564 205.238 102.564H192.57V77.54H205.238C205.702 77.54 206.147 77.3556 206.475 77.0274C206.803 76.6993 206.988 76.2541 206.988 75.79C206.988 75.3259 206.803 74.8808 206.475 74.5526C206.147 74.2244 205.702 74.04 205.238 74.04H192.57V69.4123H205.238C205.702 69.4123 206.147 69.2279 206.475 68.8997C206.803 68.5715 206.988 68.1264 206.988 67.6623C206.988 67.1981 206.803 66.753 206.475 66.4248C206.147 66.0966 205.702 65.9123 205.238 65.9123H192.57V37.4003H203.988C204.747 37.4003 205.44 37.1143 205.969 36.6473C206.067 36.5682 206.156 36.4788 206.235 36.3805C206.72 35.8346 206.987 35.13 206.988 34.4V28.3015C206.988 26.773 207.173 26.0513 206.509 25.349ZM146.764 57.1515H143.614V48.1468H146.764V57.1515ZM160.757 99.1295L132.726 91.8555V88.3225L161.971 95.9118L160.757 99.1295ZM119.517 67.8005H142.435V75.6518H119.517V67.8005ZM129.226 117.568C127.864 117.937 126.552 118.473 125.32 119.161C121.166 121.481 116.205 121.481 112.051 119.161C110.823 118.477 109.515 117.949 108.157 117.589L102.437 102.423L129.226 95.4718V117.568H129.226ZM129.226 91.8555L101.195 99.1295L99.9813 95.9118L129.226 88.3228V91.8555H129.226ZM130.998 84.3943C130.99 84.3943 130.983 84.3933 130.976 84.3933C130.968 84.3933 130.961 84.3943 130.953 84.3945C130.601 84.3961 130.25 84.4416 129.909 84.5298L109.304 89.8768V79.152H152.648V89.8765L132.044 84.5295C131.702 84.4412 131.351 84.3958 130.998 84.3943ZM152.795 120.241C149.238 121.393 145.357 121.034 142.003 119.161C139.107 117.544 135.899 116.825 132.726 117.001V95.4713L159.515 102.423L152.795 120.241ZM201.173 24.8018H192.208L189.269 12.2158L201.173 24.8018ZM191.914 28.3018L187.041 33.175L182.168 28.3018H191.914ZM184.876 8.79426L188.614 24.8018H181.138L184.876 8.79426ZM181.296 8.73251L177.544 24.8018H119.382L181.296 8.73251ZM100.282 33.9003L105.156 29.0268L110.029 33.9003H100.282ZM109.381 28.3018H119.128L114.255 33.1753L109.381 28.3018ZM118.479 33.9003L123.352 29.0268L128.226 33.9003H118.479ZM127.578 28.3018H137.324L132.451 33.175L127.578 28.3018ZM136.676 33.9003L141.549 29.027L146.423 33.9003H136.676ZM145.774 28.3018H155.521L150.648 33.175L145.774 28.3018ZM160.435 57.1515H150.264V48.1468H160.435V57.1515ZM160.435 44.647H150.264V37.4003H160.435V44.647ZM167.085 48.147V57.1518H163.935V48.147H167.085ZM154.873 33.9003L159.746 29.0268L164.62 33.9003H154.873ZM163.971 28.3018H173.718L168.844 33.1753L163.971 28.3018ZM173.069 33.9003L177.943 29.027L182.816 33.9003H173.069ZM189.07 102.564H180.682V37.4003H189.07V102.564ZM191.266 33.9003L196.139 29.027L201.013 33.9003H191.266ZM203.488 31.4248L200.365 28.3018H203.488V31.4248ZM133.143 73.4763H128.809C128.345 73.4763 127.9 73.2919 127.572 72.9637C127.243 72.6355 127.059 72.1904 127.059 71.7263C127.059 71.2621 127.243 70.817 127.572 70.4888C127.9 70.1606 128.345 69.9763 128.809 69.9763H133.143C133.607 69.9763 134.052 70.1606 134.38 70.4888C134.708 70.817 134.893 71.2621 134.893 71.7263C134.893 72.1904 134.708 72.6355 134.38 72.9637C134.052 73.2919 133.607 73.4763 133.143 73.4763Z" fill="#334155"/>
<path d="M82.9558 152V140.64H87.2118C89.9798 140.64 91.4518 141.584 91.4518 143.712C91.4518 145.056 90.6358 145.952 89.2118 146.128C90.9558 146.304 91.9318 147.328 91.9318 148.88C91.9318 150.96 90.4438 152 87.7878 152H82.9558ZM85.0358 145.408H87.1478C88.5078 145.408 89.3238 144.88 89.3238 143.904C89.3238 142.88 88.5558 142.4 87.1478 142.4H85.0358V145.408ZM85.0358 150.24H87.6918C88.9878 150.24 89.8038 149.696 89.8038 148.656C89.8038 147.6 89.0038 147.04 87.6918 147.04H85.0358V150.24ZM96.2602 152.192C94.4682 152.192 93.2842 151.344 93.2842 149.856C93.2842 148.384 94.1962 147.6 96.0682 147.232L98.9002 146.672C98.9002 145.472 98.3402 144.848 97.2522 144.848C96.2602 144.848 95.7002 145.312 95.5082 146.176L93.4282 146.08C93.7642 144.288 95.1402 143.264 97.2522 143.264C99.6842 143.264 100.948 144.544 100.948 146.816V149.92C100.948 150.384 101.108 150.512 101.428 150.512H101.7V152C101.556 152.032 101.236 152.064 100.948 152.064C100.02 152.064 99.3322 151.728 99.1722 150.688C98.7402 151.6 97.6522 152.192 96.2602 152.192ZM96.6762 150.704C98.0362 150.704 98.9002 149.84 98.9002 148.544V148.064L96.6922 148.512C95.7802 148.688 95.4122 149.072 95.4122 149.664C95.4122 150.336 95.8602 150.704 96.6762 150.704ZM103.03 152V143.456H104.95L104.998 145.12C105.334 143.968 105.99 143.456 107.046 143.456H107.83V145.216H107.03C105.718 145.216 105.078 145.76 105.078 147.072V152H103.03ZM111.479 152.192C109.687 152.192 108.503 151.344 108.503 149.856C108.503 148.384 109.415 147.6 111.287 147.232L114.119 146.672C114.119 145.472 113.559 144.848 112.471 144.848C111.479 144.848 110.919 145.312 110.727 146.176L108.647 146.08C108.983 144.288 110.359 143.264 112.471 143.264C114.903 143.264 116.167 144.544 116.167 146.816V149.92C116.167 150.384 116.327 150.512 116.647 150.512H116.919V152C116.775 152.032 116.455 152.064 116.167 152.064C115.239 152.064 114.551 151.728 114.391 150.688C113.959 151.6 112.871 152.192 111.479 152.192ZM111.895 150.704C113.255 150.704 114.119 149.84 114.119 148.544V148.064L111.911 148.512C110.999 148.688 110.631 149.072 110.631 149.664C110.631 150.336 111.079 150.704 111.895 150.704ZM118.249 152V143.456H120.105L120.153 144.912C120.617 143.744 121.577 143.264 122.713 143.264C124.601 143.264 125.625 144.592 125.625 146.512V152H123.577V147.168C123.577 145.728 123.193 144.928 122.089 144.928C120.985 144.928 120.297 145.728 120.297 147.168V152H118.249ZM131.303 154.592C129.047 154.592 127.799 153.616 127.415 152.16L129.527 152.016C129.735 152.672 130.199 153.04 131.303 153.04C132.567 153.04 133.271 152.496 133.271 151.296V150.208C132.871 151.04 131.895 151.584 130.791 151.584C128.663 151.584 127.159 149.92 127.159 147.44C127.159 144.992 128.647 143.264 130.759 143.264C131.991 143.264 132.919 143.856 133.335 144.784V143.456H135.335V151.248C135.335 153.44 133.735 154.592 131.303 154.592ZM131.271 149.984C132.487 149.984 133.271 149.024 133.287 147.424C133.303 145.84 132.503 144.864 131.271 144.864C130.023 144.864 129.287 145.856 129.287 147.424C129.287 148.992 130.055 149.984 131.271 149.984ZM145.806 152.256C142.99 152.256 141.262 150.672 141.086 148.304L143.198 148.176C143.39 149.648 144.27 150.464 145.838 150.464C147.182 150.464 147.95 149.968 147.95 148.992C147.95 148.112 147.502 147.584 145.182 147.04C142.366 146.4 141.31 145.6 141.31 143.744C141.31 141.76 142.862 140.384 145.406 140.384C148.126 140.384 149.614 141.968 149.87 144.16L147.774 144.256C147.63 143.024 146.814 142.176 145.374 142.176C144.174 142.176 143.438 142.784 143.438 143.664C143.438 144.592 143.966 144.944 145.998 145.408C149.054 146.064 150.078 147.184 150.078 148.88C150.078 150.96 148.382 152.256 145.806 152.256ZM154.604 152.192C152.812 152.192 151.628 151.344 151.628 149.856C151.628 148.384 152.54 147.6 154.412 147.232L157.244 146.672C157.244 145.472 156.684 144.848 155.596 144.848C154.604 144.848 154.044 145.312 153.852 146.176L151.772 146.08C152.108 144.288 153.484 143.264 155.596 143.264C158.028 143.264 159.292 144.544 159.292 146.816V149.92C159.292 150.384 159.452 150.512 159.772 150.512H160.044V152C159.9 152.032 159.58 152.064 159.292 152.064C158.364 152.064 157.676 151.728 157.516 150.688C157.084 151.6 155.996 152.192 154.604 152.192ZM155.02 150.704C156.38 150.704 157.244 149.84 157.244 148.544V148.064L155.036 148.512C154.124 148.688 153.756 149.072 153.756 149.664C153.756 150.336 154.204 150.704 155.02 150.704ZM161.374 152V143.456H163.23L163.278 144.88C163.71 143.856 164.574 143.264 165.63 143.264C166.878 143.264 167.742 143.92 168.11 145.024C168.494 143.888 169.374 143.264 170.558 143.264C172.318 143.264 173.406 144.4 173.406 146.512V152H171.358V147.04C171.358 145.632 170.894 144.928 169.902 144.928C168.926 144.928 168.334 145.728 168.334 147.104V152H166.43V147.104C166.43 145.712 166.046 144.928 165.006 144.928C164.03 144.928 163.422 145.744 163.422 147.104V152H161.374ZM175.374 154.4V143.456H177.342L177.374 144.736C177.87 143.776 178.798 143.264 179.934 143.264C182.366 143.264 183.566 145.264 183.566 147.728C183.566 150.192 182.35 152.192 179.918 152.192C178.83 152.192 177.886 151.68 177.422 150.832V154.4H175.374ZM179.438 150.528C180.686 150.528 181.438 149.488 181.438 147.728C181.438 145.968 180.686 144.928 179.438 144.928C178.19 144.928 177.422 145.872 177.422 147.728C177.422 149.584 178.174 150.528 179.438 150.528ZM187.76 152.192C185.968 152.192 184.784 151.344 184.784 149.856C184.784 148.384 185.696 147.6 187.568 147.232L190.4 146.672C190.4 145.472 189.84 144.848 188.752 144.848C187.76 144.848 187.2 145.312 187.008 146.176L184.928 146.08C185.264 144.288 186.64 143.264 188.752 143.264C191.184 143.264 192.448 144.544 192.448 146.816V149.92C192.448 150.384 192.608 150.512 192.928 150.512H193.2V152C193.056 152.032 192.736 152.064 192.448 152.064C191.52 152.064 190.832 151.728 190.672 150.688C190.24 151.6 189.152 152.192 187.76 152.192ZM188.176 150.704C189.536 150.704 190.4 149.84 190.4 148.544V148.064L188.192 148.512C187.28 148.688 186.912 149.072 186.912 149.664C186.912 150.336 187.36 150.704 188.176 150.704ZM194.404 142.32V140.496H196.532V142.32H194.404ZM194.436 152V143.456H196.484V152H194.436ZM206.5 152.192C204.324 152.192 202.964 150.464 202.964 147.728C202.964 144.992 204.356 143.264 206.5 143.264C207.7 143.264 208.644 143.792 209.108 144.672V140.64H211.156V152H209.204L209.156 150.736C208.676 151.648 207.684 152.192 206.5 152.192ZM207.124 150.528C208.388 150.528 209.108 149.536 209.108 147.728C209.108 145.904 208.404 144.928 207.124 144.928C205.876 144.928 205.092 145.984 205.092 147.728C205.092 149.44 205.892 150.528 207.124 150.528ZM213.115 142.32V140.496H215.243V142.32H213.115ZM213.147 152V143.456H215.195V152H213.147ZM85.588 183V165.96H92.188C96.172 165.96 98.548 168 98.548 171.384C98.548 174.792 96.172 176.856 92.188 176.856H88.708V183H85.588ZM88.708 174.144H92.044C94.156 174.144 95.332 173.208 95.332 171.384C95.332 169.608 94.18 168.672 92.044 168.672H88.708V174.144ZM106.174 183.288C102.358 183.288 99.8618 180.648 99.8618 176.592C99.8618 172.536 102.358 169.896 106.174 169.896C109.966 169.896 112.462 172.536 112.462 176.592C112.462 180.648 109.966 183.288 106.174 183.288ZM106.174 180.792C108.142 180.792 109.27 179.256 109.27 176.592C109.27 173.952 108.142 172.392 106.174 172.392C104.182 172.392 103.054 173.952 103.054 176.592C103.054 179.256 104.182 180.792 106.174 180.792ZM114.832 183V170.184H117.712L117.784 172.68C118.288 170.952 119.272 170.184 120.856 170.184H122.032V172.824H120.832C118.864 172.824 117.904 173.64 117.904 175.608V183H114.832ZM128.875 183C126.331 183 125.155 181.872 125.155 179.328V172.56H123.139V170.184H125.155V167.184H128.227V170.184H131.611V172.56H128.227V179.04C128.227 180.24 128.731 180.624 129.811 180.624H131.611V183H128.875ZM143.421 183V168.672H138.237V165.96H151.701V168.672H146.541V183H143.421ZM156.509 183.288C153.893 183.288 152.285 181.488 152.285 178.44V170.184H155.357V177.672C155.357 179.832 156.053 180.792 157.541 180.792C159.197 180.792 160.157 179.664 160.157 177.552V170.184H163.229V183H160.421L160.373 180.912C159.701 182.472 158.381 183.288 156.509 183.288ZM167.33 168.48V165.744H170.522V168.48H167.33ZM164.69 186.6V184.224H165.962C166.874 184.224 167.378 183.912 167.378 182.808V170.184H170.45V182.904C170.45 185.544 169.37 186.6 166.514 186.6H164.69ZM177.627 183.288C175.011 183.288 173.403 181.488 173.403 178.44V170.184H176.475V177.672C176.475 179.832 177.171 180.792 178.659 180.792C180.315 180.792 181.275 179.664 181.275 177.552V170.184H184.347V183H181.539L181.491 180.912C180.819 182.472 179.499 183.288 177.627 183.288ZM191.443 183.288C188.755 183.288 186.979 182.016 186.979 179.784C186.979 177.576 188.347 176.4 191.155 175.848L195.403 175.008C195.403 173.208 194.563 172.272 192.931 172.272C191.443 172.272 190.603 172.968 190.315 174.264L187.195 174.12C187.699 171.432 189.763 169.896 192.931 169.896C196.579 169.896 198.475 171.816 198.475 175.224V179.88C198.475 180.576 198.715 180.768 199.195 180.768H199.603V183C199.387 183.048 198.907 183.096 198.475 183.096C197.083 183.096 196.051 182.592 195.811 181.032C195.163 182.4 193.531 183.288 191.443 183.288ZM192.067 181.056C194.107 181.056 195.403 179.76 195.403 177.816V177.096L192.091 177.768C190.723 178.032 190.171 178.608 190.171 179.496C190.171 180.504 190.843 181.056 192.067 181.056ZM201.598 183V170.184H204.382L204.454 172.368C205.15 170.616 206.59 169.896 208.294 169.896C211.126 169.896 212.662 171.888 212.662 174.768V183H209.59V175.752C209.59 173.592 209.014 172.392 207.358 172.392C205.702 172.392 204.67 173.592 204.67 175.752V183H201.598Z" fill="#334155"/>
<circle cx="31" cy="31" r="31" fill="#0891B2"/>
<path d="M30.9304 48.768C22.5784 48.768 18.1144 44.784 17.5864 38.592L24.9784 38.256C25.5064 41.184 27.6184 42.624 30.9304 42.624C34.6744 42.624 36.9304 40.416 36.9304 36.672C36.9304 33.072 34.6264 30.624 30.8824 30.624C28.0984 30.624 26.0824 32.016 25.2664 33.84H17.9704L20.3224 13.92H42.0664V20.064H26.5144L25.5544 27.936C27.2344 26.256 29.7784 25.248 32.9464 25.248C40.0024 25.248 44.4184 30.144 44.4184 36.672C44.4184 44.112 39.0904 48.768 30.9304 48.768Z" fill="white"/>
</svg>
