<svg width="109" height="109" viewBox="0 0 109 109" fill="none" xmlns="http://www.w3.org/2000/svg">
<path d="M101.067 46.8347C100.799 42.9934 100.316 39.1703 99.6187 35.3834C99.5355 34.9369 99.3496 34.5158 99.0757 34.1535C98.8018 33.7913 98.4473 33.4977 98.0404 33.296C97.6334 33.0943 97.1852 32.9901 96.731 32.9915C96.2768 32.993 95.8292 33.1001 95.4235 33.3044C92.4824 34.7524 90.1762 37.231 88.9435 40.2687C87.8246 43.1623 87.7648 46.3583 88.7748 49.2917C88.9952 49.9261 88.9796 50.6187 88.7309 51.2425L87.0805 55.225C85.7763 55.3826 84.5568 55.9539 83.6009 56.8551L76.8509 63.2558C76.6099 63.4868 76.2934 63.6228 75.9599 63.6389C73.8345 63.7283 71.7513 64.2617 69.8444 65.2049C68.1613 66.0433 66.6506 67.1904 65.3911 68.5866C62.845 71.3904 61.4353 75.0424 61.4373 78.8297V87.4529C60.5908 87.5149 59.799 87.8943 59.2202 88.515C58.6414 89.1358 58.3182 89.9521 58.3154 90.8009V98.1364C58.3163 99.0312 58.6722 99.8892 59.3049 100.522C59.9377 101.155 60.7956 101.511 61.6904 101.511H83.7528C84.6476 101.511 85.5056 101.155 86.1383 100.522C86.771 99.8892 87.1269 99.0312 87.1278 98.1364V90.8009C87.1269 89.906 86.771 89.0481 86.1383 88.4154C85.5056 87.7826 84.6476 87.4268 83.7528 87.4259H83.4322V87.3702C83.4524 86.6671 83.7446 85.9992 84.2472 85.5072L97.9531 72.0578C99.3323 70.6981 100.217 68.916 100.466 66.9953C101.328 60.3112 101.529 53.5583 101.067 46.8347ZM83.7528 98.1347H61.6904V90.8009H83.7528V98.1347ZM97.1178 66.565C96.9666 67.735 96.4284 68.8209 95.5889 69.6497L81.883 83.0991C80.7574 84.2012 80.104 85.6975 80.0605 87.2723L80.0555 87.4259H64.8106V78.8297C64.8094 75.8808 65.9074 73.0373 67.8903 70.8546C68.8664 69.7702 70.0376 68.879 71.3429 68.2272C72.8315 67.4937 74.4571 67.0798 76.1152 67.0122C77.2571 66.9565 78.3411 66.4923 79.1695 65.7044L85.9195 59.3037C86.3216 58.9236 86.8272 58.6711 87.3726 58.578C87.9179 58.4849 88.4787 58.5554 88.984 58.7805C89.2257 58.8888 89.429 59.0676 89.5673 59.2934C89.7055 59.5193 89.7722 59.7817 89.7586 60.0462C89.7581 60.8249 89.4723 61.5765 88.9554 62.1589L80.5347 71.6663C80.3843 71.8316 80.2682 72.0252 80.1932 72.2357C80.1182 72.4462 80.0858 72.6696 80.0978 72.8928C80.1098 73.1159 80.1661 73.3345 80.2633 73.5358C80.3604 73.737 80.4966 73.917 80.664 74.0652C80.8313 74.2134 81.0263 74.3269 81.2379 74.3991C81.4494 74.4713 81.6731 74.5007 81.8961 74.4857C82.1191 74.4707 82.337 74.4115 82.5369 74.3117C82.7368 74.2118 82.915 74.0732 83.0609 73.9039L91.4832 64.3965C92.5621 63.1701 93.1498 61.5884 93.1336 59.955C93.1309 59.082 92.8826 58.2274 92.417 57.4888C91.9515 56.7502 91.2876 56.1575 90.5011 55.7785L91.8477 52.5317C92.407 51.1578 92.4526 49.6283 91.976 48.2235C91.2092 46.0761 91.2342 43.7254 92.0466 41.5947C92.859 39.4641 94.4054 37.6935 96.4074 36.6017C97.0231 40.0655 97.454 43.5597 97.6983 47.0693C98.1452 53.5712 97.9519 60.1013 97.1178 66.565ZM47.5644 87.4512V79.3512C47.6157 75.1333 46.003 71.0651 43.0756 68.028C41.9311 66.8802 40.607 65.9266 39.1555 65.2049C37.2545 64.2657 35.1786 63.7329 33.0603 63.6405C32.7366 63.6319 32.4267 63.508 32.1862 63.2912L25.399 56.8551C24.4445 55.9534 23.225 55.3831 21.9211 55.2284L20.269 51.2442C20.0194 50.62 20.0032 49.9268 20.2235 49.2917C21.2345 46.3587 21.176 43.1627 20.0581 40.2687C18.8243 37.2297 16.5162 34.7504 13.573 33.3027C13.1674 33.0991 12.72 32.9926 12.2661 32.9915C11.8123 32.9905 11.3644 33.0951 10.9579 33.2968C10.5513 33.4986 10.1973 33.7922 9.92367 34.1543C9.65006 34.5164 9.46438 34.9372 9.38129 35.3834C7.45777 45.8132 7.17196 56.4791 8.53416 66.997C8.78349 68.9179 9.66864 70.7001 11.0485 72.0595L24.751 85.5089C25.2533 85.9998 25.5455 86.6664 25.5661 87.3685L25.5678 87.4259H25.2472C24.3523 87.4268 23.4944 87.7826 22.8617 88.4154C22.2289 89.0481 21.8731 89.906 21.8722 90.8009V98.1364C21.8731 99.0312 22.2289 99.8892 22.8617 100.522C23.4944 101.155 24.3523 101.511 25.2472 101.511H47.3095C48.2044 101.511 49.0623 101.155 49.695 100.522C50.3278 99.8892 50.6836 99.0312 50.6845 98.1364V90.8009C50.6821 89.9518 50.3592 89.135 49.7803 88.5139C49.2015 87.8928 48.4111 87.5133 47.5644 87.4512ZM28.9411 87.2706C28.8965 85.6959 28.2418 84.2002 27.1152 83.0991L13.4127 69.6497C12.5723 68.8213 12.0334 67.7353 11.8822 66.565C10.5911 56.5994 10.8301 46.4951 12.5909 36.6017C14.5553 37.6859 16.0836 39.4169 16.916 41.5005C17.7428 43.659 17.7804 46.0401 17.0223 48.2235C16.5454 49.6289 16.591 51.1589 17.1505 52.5334L18.4955 55.7768C17.6972 56.1656 17.026 56.7735 16.5601 57.5295C16.0943 58.2854 15.8531 59.1583 15.8647 60.0462C15.8646 61.6488 16.4518 63.1958 17.515 64.3949L25.9374 73.9039C26.0833 74.0732 26.2614 74.2118 26.4614 74.3117C26.6613 74.4115 26.8791 74.4707 27.1021 74.4857C27.3251 74.5007 27.5489 74.4713 27.7604 74.3991C27.9719 74.3269 28.167 74.2134 28.3343 74.0652C28.5016 73.917 28.6378 73.737 28.735 73.5358C28.8322 73.3345 28.8884 73.1159 28.9005 72.8928C28.9125 72.6696 28.8801 72.4462 28.805 72.2357C28.73 72.0252 28.614 71.8316 28.4635 71.6663L20.0429 62.1572C19.5101 61.5489 19.2237 60.7635 19.2397 59.955C19.2415 59.6988 19.3195 59.4489 19.4638 59.237C19.608 59.0252 19.8119 58.861 20.0497 58.7654C20.5517 58.5488 21.1062 58.4845 21.6445 58.5805C22.1827 58.6765 22.6809 58.9286 23.077 59.3054L29.8659 65.7432C30.693 66.5152 31.7694 66.9654 32.9 67.0122C34.5523 67.0826 36.1718 67.4964 37.6554 68.2272C38.7786 68.7869 39.8034 69.5255 40.6895 70.4142C42.9847 72.8177 44.2414 76.0282 44.1877 79.3512V87.4259H28.9445L28.9411 87.2706ZM47.3095 98.1364H25.2472V90.8009H47.3095V98.1364ZM54.5017 56.6408C54.1539 56.6414 53.8095 56.572 53.4892 56.4366C50.9096 55.3036 48.4692 53.8772 46.216 52.1858C32.4663 42.3595 32.7363 22.587 32.851 14.1411L32.8679 12.759C32.8715 12.2261 33.04 11.7073 33.3503 11.274C33.6607 10.8407 34.0976 10.5141 34.601 10.3392C41.0055 8.15062 47.7235 7.01871 54.4915 6.98779C61.2641 7.01664 67.9867 8.14801 74.3956 10.3375C74.9001 10.5119 75.3382 10.8384 75.6494 11.2721C75.9607 11.7058 76.1299 12.2252 76.1337 12.759L76.1506 14.1428C76.2637 22.5854 76.5337 42.3595 62.7856 52.1858C60.5314 53.8775 58.0898 55.3038 55.5091 56.4366C55.1904 56.5716 54.8478 56.641 54.5017 56.6408ZM36.2345 13.348L36.2244 14.1884C36.118 22.1027 35.8666 40.6416 48.1769 49.4402C50.1419 50.9188 52.2621 52.1789 54.5 53.1983C56.7376 52.1783 58.8577 50.9183 60.823 49.4402C73.1334 40.6416 72.8819 22.1027 72.7756 14.1884L72.7655 13.3497C66.8692 11.399 60.7021 10.3909 54.4915 10.3628C48.2867 10.3928 42.1254 11.3991 36.2345 13.348Z" fill="white"/>
<path d="M51.2802 36.4988C50.9572 36.498 50.6382 36.4269 50.3453 36.2906C50.0525 36.1542 49.7928 35.9558 49.5843 35.709L45.0533 30.4103C44.9093 30.2418 44.7998 30.0467 44.7312 29.836C44.6626 29.6252 44.6361 29.4031 44.6534 29.1821C44.6882 28.7359 44.8988 28.3218 45.239 28.0309C45.5791 27.74 46.0209 27.5961 46.4671 27.6309C46.9133 27.6657 47.3274 27.8764 47.6183 28.2165L51.2768 32.4943L61.3782 20.6042C61.668 20.2629 62.0815 20.0508 62.5277 20.0144C62.9739 19.978 63.4163 20.1203 63.7576 20.4101C64.0988 20.6999 64.311 21.1134 64.3474 21.5596C64.3838 22.0058 64.2414 22.4482 63.9517 22.7895L52.9812 35.7039C52.7732 35.9516 52.5137 36.151 52.2208 36.2883C51.928 36.4255 51.6087 36.4974 51.2853 36.4988H51.2802Z" fill="white"/>
</svg>
