<svg width="156" height="24" viewBox="0 0 156 24" fill="none" xmlns="http://www.w3.org/2000/svg">
<path d="M15 6V18C15 18.5933 15.1759 19.1734 15.5056 19.6667C15.8352 20.1601 16.3038 20.5446 16.852 20.7716C17.4001 20.9987 18.0033 21.0581 18.5853 20.9424C19.1672 20.8266 19.7018 20.5409 20.1213 20.1213C20.5409 19.7018 20.8266 19.1672 20.9424 18.5853C21.0581 18.0033 20.9987 17.4001 20.7716 16.852C20.5446 16.3038 20.1601 15.8352 19.6667 15.5056C19.1734 15.1759 18.5933 15 18 15H6C5.40666 15 4.82664 15.1759 4.33329 15.5056C3.83994 15.8352 3.45543 16.3038 3.22836 16.852C3.0013 17.4001 2.94189 18.0033 3.05765 18.5853C3.1734 19.1672 3.45912 19.7018 3.87868 20.1213C4.29824 20.5409 4.83279 20.8266 5.41473 20.9424C5.99667 21.0581 6.59987 20.9987 7.14805 20.7716C7.69623 20.5446 8.16477 20.1601 8.49441 19.6667C8.82405 19.1734 9 18.5933 9 18V6C9 5.40666 8.82405 4.82664 8.49441 4.33329C8.16477 3.83994 7.69623 3.45543 7.14805 3.22836C6.59987 3.0013 5.99667 2.94189 5.41473 3.05765C4.83279 3.1734 4.29824 3.45912 3.87868 3.87868C3.45912 4.29824 3.1734 4.83279 3.05765 5.41473C2.94189 5.99667 3.0013 6.59987 3.22836 7.14805C3.45543 7.69623 3.83994 8.16477 4.33329 8.49441C4.82664 8.82405 5.40666 9 6 9H18C18.5933 9 19.1734 8.82405 19.6667 8.49441C20.1601 8.16477 20.5446 7.69623 20.7716 7.14805C20.9987 6.59987 21.0581 5.99667 20.9424 5.41473C20.8266 4.83279 20.5409 4.29824 20.1213 3.87868C19.7018 3.45912 19.1672 3.1734 18.5853 3.05765C18.0033 2.94189 17.4001 3.0013 16.852 3.22836C16.3038 3.45543 15.8352 3.83994 15.5056 4.33329C15.1759 4.82664 15 5.40666 15 6Z" stroke="#334155" stroke-width="2" stroke-linecap="round" stroke-linejoin="round"/>
<path d="M35.632 17.5V7.948H32.176V6.14H41.152V7.948H37.712V17.5H35.632ZM40.1165 17.5L44.2125 6.14H46.7565L50.8525 17.5H48.6765L47.7325 14.812H43.2365L42.2925 17.5H40.1165ZM43.8445 13.036H47.1245L45.4925 8.236L43.8445 13.036ZM52.1706 17.5V6.14H54.2506V11.324L58.6986 6.14H61.1626L56.9066 11.132L61.4346 17.5H59.0506L55.5306 12.556L54.2506 14.012V17.5H52.1706ZM61.9446 17.5L66.0406 6.14H68.5846L72.6806 17.5H70.5046L69.5606 14.812H65.0646L64.1206 17.5H61.9446ZM65.6726 13.036H68.9526L67.3206 8.236L65.6726 13.036ZM73.8738 17.5V6.14H78.6258C81.0738 6.14 82.6418 7.468 82.6418 9.548C82.6418 10.908 81.7938 11.916 80.6737 12.252C81.7458 12.412 82.3538 13.052 82.4498 14.22L82.7378 17.5H80.6258L80.3858 14.524C80.3218 13.612 79.8578 13.212 78.6738 13.212H75.9538V17.5H73.8738ZM75.9538 11.388H78.4978C79.7458 11.388 80.4978 10.78 80.4978 9.676C80.4978 8.556 79.7458 7.948 78.4018 7.948H75.9538V11.388ZM89.2626 17.756C86.0146 17.756 84.0786 15.308 84.0786 11.836C84.0786 8.428 86.0466 5.884 89.3746 5.884C92.2546 5.884 93.7266 7.468 94.2066 9.788L92.0306 9.9C91.7906 8.572 91.0226 7.692 89.3906 7.692C87.2146 7.692 86.2226 9.532 86.2226 11.836C86.2226 14.204 87.2146 15.948 89.4066 15.948C91.0866 15.948 92.1266 14.78 92.2066 13.26H89.4066V11.644H94.2386V17.5H92.8946L92.7986 15.788C92.2226 16.972 90.8626 17.756 89.2626 17.756ZM101.096 17.756C97.72 17.756 95.688 15.5 95.688 11.836C95.688 8.172 97.72 5.884 101.096 5.884C104.488 5.884 106.52 8.172 106.52 11.836C106.52 15.5 104.488 17.756 101.096 17.756ZM101.096 15.948C103.16 15.948 104.376 14.428 104.376 11.836C104.376 9.244 103.16 7.692 101.096 7.692C99.064 7.692 97.832 9.244 97.832 11.836C97.832 14.428 99.064 15.948 101.096 15.948ZM112.264 17.5V6.14H114.344V15.692H119.736V17.5H112.264ZM125.721 17.756C122.345 17.756 120.313 15.5 120.313 11.836C120.313 8.172 122.345 5.884 125.721 5.884C129.113 5.884 131.145 8.172 131.145 11.836C131.145 15.5 129.113 17.756 125.721 17.756ZM125.721 15.948C127.785 15.948 129.001 14.428 129.001 11.836C129.001 9.244 127.785 7.692 125.721 7.692C123.689 7.692 122.457 9.244 122.457 11.836C122.457 14.428 123.689 15.948 125.721 15.948ZM137.7 17.756C134.452 17.756 132.516 15.308 132.516 11.836C132.516 8.428 134.484 5.884 137.812 5.884C140.692 5.884 142.164 7.468 142.644 9.788L140.468 9.9C140.228 8.572 139.46 7.692 137.828 7.692C135.652 7.692 134.66 9.532 134.66 11.836C134.66 14.204 135.652 15.948 137.844 15.948C139.524 15.948 140.564 14.78 140.644 13.26H137.844V11.644H142.676V17.5H141.332L141.236 15.788C140.66 16.972 139.3 17.756 137.7 17.756ZM149.534 17.756C146.158 17.756 144.126 15.5 144.126 11.836C144.126 8.172 146.158 5.884 149.534 5.884C152.926 5.884 154.958 8.172 154.958 11.836C154.958 15.5 152.926 17.756 149.534 17.756ZM149.534 15.948C151.598 15.948 152.814 14.428 152.814 11.836C152.814 9.244 151.598 7.692 149.534 7.692C147.502 7.692 146.27 9.244 146.27 11.836C146.27 14.428 147.502 15.948 149.534 15.948Z" fill="#334155"/>
</svg>
