<svg width="319" height="49" viewBox="0 0 319 49" fill="none" xmlns="http://www.w3.org/2000/svg">
<path d="M30.625 12.25V36.75C30.625 37.9614 30.9842 39.1456 31.6573 40.1529C32.3303 41.1601 33.2869 41.9452 34.4061 42.4088C35.5253 42.8724 36.7568 42.9937 37.9449 42.7573C39.1331 42.521 40.2244 41.9376 41.081 41.081C41.9376 40.2244 42.521 39.1331 42.7573 37.9449C42.9937 36.7568 42.8724 35.5253 42.4088 34.4061C41.9452 33.2869 41.1601 32.3303 40.1529 31.6573C39.1456 30.9842 37.9614 30.625 36.75 30.625H12.25C11.0386 30.625 9.85439 30.9842 8.84714 31.6573C7.83988 32.3303 7.05483 33.2869 6.59124 34.4061C6.12765 35.5253 6.00636 36.7568 6.24269 37.9449C6.47903 39.1331 7.06238 40.2244 7.91897 41.081C8.77557 41.9376 9.86694 42.521 11.0551 42.7573C12.2432 42.9937 13.4747 42.8724 14.5939 42.4088C15.7131 41.9452 16.6697 41.1601 17.3428 40.1529C18.0158 39.1456 18.375 37.9614 18.375 36.75V12.25C18.375 11.0386 18.0158 9.85439 17.3428 8.84714C16.6697 7.83988 15.7131 7.05483 14.5939 6.59124C13.4747 6.12765 12.2432 6.00636 11.0551 6.24269C9.86694 6.47903 8.77557 7.06238 7.91897 7.91897C7.06238 8.77557 6.47903 9.86694 6.24269 11.0551C6.00636 12.2432 6.12765 13.4747 6.59124 14.5939C7.05483 15.7131 7.83988 16.6697 8.84714 17.3428C9.85439 18.0158 11.0386 18.375 12.25 18.375H36.75C37.9614 18.375 39.1456 18.0158 40.1529 17.3428C41.1601 16.6697 41.9452 15.7131 42.4088 14.5939C42.8724 13.4747 42.9937 12.2432 42.7573 11.0551C42.521 9.86694 41.9376 8.77557 41.081 7.91897C40.2244 7.06238 39.1331 6.47903 37.9449 6.24269C36.7568 6.00636 35.5253 6.12765 34.4061 6.59124C33.2869 7.05483 32.3303 7.83988 31.6573 8.84714C30.9842 9.85439 30.625 11.0386 30.625 12.25Z" stroke="white" stroke-width="4.08333" stroke-linecap="round" stroke-linejoin="round"/>
<path d="M72.7487 36.5V16.998H65.6927V13.3067H84.0187V16.998H76.9953V36.5H72.7487ZM81.9045 36.5L90.2672 13.3067H95.4612L103.824 36.5H99.3812L97.4539 31.012H88.2745L86.3472 36.5H81.9045ZM89.5159 27.386H96.2125L92.8805 17.586L89.5159 27.386ZM106.515 36.5V13.3067H110.762V23.8907L119.843 13.3067H124.874L116.184 23.4987L125.429 36.5H120.562L113.375 26.406L110.762 29.3787V36.5H106.515ZM126.47 36.5L134.833 13.3067H140.027L148.39 36.5H143.947L142.02 31.012H132.84L130.913 36.5H126.47ZM134.082 27.386H140.778L137.446 17.586L134.082 27.386ZM150.826 36.5V13.3067H160.528C165.526 13.3067 168.727 16.018 168.727 20.2647C168.727 23.0413 166.996 25.0993 164.709 25.7853C166.898 26.112 168.139 27.4187 168.335 29.8033L168.923 36.5H164.611L164.121 30.424C163.99 28.562 163.043 27.7453 160.626 27.7453H155.072V36.5H150.826ZM155.072 24.0213H160.266C162.814 24.0213 164.35 22.78 164.35 20.526C164.35 18.2393 162.814 16.998 160.07 16.998H155.072V24.0213ZM182.245 37.0227C175.613 37.0227 171.661 32.0247 171.661 24.936C171.661 17.978 175.679 12.784 182.473 12.784C188.353 12.784 191.359 16.018 192.339 20.7547L187.896 20.9833C187.406 18.272 185.838 16.4753 182.506 16.4753C178.063 16.4753 176.038 20.232 176.038 24.936C176.038 29.7707 178.063 33.3313 182.539 33.3313C185.969 33.3313 188.092 30.9467 188.255 27.8433H182.539V24.544H192.404V36.5H189.66L189.464 33.0047C188.288 35.422 185.511 37.0227 182.245 37.0227ZM206.404 37.0227C199.512 37.0227 195.363 32.4167 195.363 24.936C195.363 17.4553 199.512 12.784 206.404 12.784C213.33 12.784 217.478 17.4553 217.478 24.936C217.478 32.4167 213.33 37.0227 206.404 37.0227ZM206.404 33.3313C210.618 33.3313 213.101 30.228 213.101 24.936C213.101 19.644 210.618 16.4753 206.404 16.4753C202.256 16.4753 199.74 19.644 199.74 24.936C199.74 30.228 202.256 33.3313 206.404 33.3313ZM229.206 36.5V13.3067H233.453V32.8087H244.462V36.5H229.206ZM256.68 37.0227C249.788 37.0227 245.639 32.4167 245.639 24.936C245.639 17.4553 249.788 12.784 256.68 12.784C263.606 12.784 267.754 17.4553 267.754 24.936C267.754 32.4167 263.606 37.0227 256.68 37.0227ZM256.68 33.3313C260.894 33.3313 263.377 30.228 263.377 24.936C263.377 19.644 260.894 16.4753 256.68 16.4753C252.532 16.4753 250.016 19.644 250.016 24.936C250.016 30.228 252.532 33.3313 256.68 33.3313ZM281.138 37.0227C274.506 37.0227 270.554 32.0247 270.554 24.936C270.554 17.978 274.572 12.784 281.366 12.784C287.246 12.784 290.252 16.018 291.232 20.7547L286.789 20.9833C286.299 18.272 284.731 16.4753 281.399 16.4753C276.956 16.4753 274.931 20.232 274.931 24.936C274.931 29.7707 276.956 33.3313 281.432 33.3313C284.862 33.3313 286.985 30.9467 287.148 27.8433H281.432V24.544H291.297V36.5H288.553L288.357 33.0047C287.181 35.422 284.404 37.0227 281.138 37.0227ZM305.298 37.0227C298.405 37.0227 294.256 32.4167 294.256 24.936C294.256 17.4553 298.405 12.784 305.298 12.784C312.223 12.784 316.372 17.4553 316.372 24.936C316.372 32.4167 312.223 37.0227 305.298 37.0227ZM305.298 33.3313C309.512 33.3313 311.994 30.228 311.994 24.936C311.994 19.644 309.512 16.4753 305.298 16.4753C301.149 16.4753 298.634 19.644 298.634 24.936C298.634 30.228 301.149 33.3313 305.298 33.3313Z" fill="white"/>
</svg>
