<svg width="110" height="111" viewBox="0 0 110 111" fill="none" xmlns="http://www.w3.org/2000/svg">
<path d="M109.716 63.6343L104.148 55.1152C101.689 51.3506 97.5119 49.1026 92.9711 49.1026H78.5714V40.8163C78.5714 35.7567 74.4569 31.6425 69.3976 31.6425H42.4411C40.9285 23.7429 33.975 17.7495 25.6406 17.7495C16.2033 17.7495 8.52623 25.4276 8.52623 34.8639C8.52623 40.7976 11.5645 46.0316 16.1642 49.1029H1.74688C0.781622 49.1029 0.000256066 49.8843 0.000256066 50.8493C0.000256066 51.8143 0.781622 52.5956 1.74663 52.5956H19.2068V56.0876H12.2218C11.9925 56.0876 11.7655 56.1328 11.5536 56.2206C11.3418 56.3083 11.1494 56.437 10.9873 56.5992C10.8252 56.7614 10.6967 56.9539 10.609 57.1658C10.5214 57.3776 10.4763 57.6047 10.4764 57.834C10.4763 58.0632 10.5214 58.2902 10.609 58.5021C10.6967 58.7139 10.8252 58.9063 10.9873 59.0684C11.1494 59.2305 11.3419 59.3591 11.5537 59.4468C11.7655 59.5344 11.9926 59.5795 12.2218 59.5793H19.2065V63.0711H1.74637C1.51703 63.071 1.28991 63.1161 1.078 63.2038C0.866096 63.2915 0.673549 63.4201 0.511367 63.5822C0.349184 63.7444 0.220546 63.9369 0.132803 64.1488C0.0450603 64.3607 -6.69292e-05 64.5878 2.99926e-07 64.8172C-0.000134161 65.0466 0.0449435 65.2737 0.132656 65.4857C0.220369 65.6976 0.348997 65.8902 0.511186 66.0524C0.673375 66.2146 0.865945 66.3433 1.07789 66.431C1.28983 66.5188 1.51699 66.5639 1.74637 66.5638H19.2065V74.2966C16.1284 75.6545 13.9684 78.7255 13.9684 82.3003V84.0237C13.9684 84.4868 14.1524 84.931 14.4798 85.2585C14.8073 85.586 15.2514 85.77 15.7145 85.7701H31.2004C32.1936 90.0421 36.0242 93.2392 40.5947 93.2392C45.1668 93.2392 48.9961 90.0421 49.9893 85.7701H83.5816C84.5758 90.0421 88.4062 93.2392 92.9759 93.2392C97.546 93.2392 101.377 90.0421 102.37 85.7701H108.254C108.483 85.7701 108.711 85.725 108.922 85.6372C109.134 85.5495 109.327 85.4208 109.489 85.2587C109.651 85.0965 109.779 84.9039 109.867 84.692C109.955 84.4801 110 84.253 109.999 84.0237V64.5895C110 64.2503 109.901 63.9184 109.716 63.6343H109.716ZM12.0182 34.8636C12.0182 27.3525 18.1295 21.241 25.6406 21.241C33.1527 21.241 39.2632 27.3525 39.2632 34.8636C39.2632 42.3747 33.1529 48.4862 25.6406 48.4862C18.1295 48.4862 12.0182 42.3747 12.0182 34.8636ZM22.6982 66.5638H26.19C26.4194 66.5639 26.6466 66.5189 26.8585 66.4311C27.0705 66.3434 27.2631 66.2147 27.4253 66.0525C27.5875 65.8903 27.7162 65.6977 27.8039 65.4857C27.8916 65.2738 27.9367 65.0466 27.9366 64.8172C27.9367 64.5878 27.8916 64.3606 27.8038 64.1487C27.7161 63.9367 27.5874 63.7442 27.4252 63.582C27.263 63.4198 27.0704 63.2912 26.8585 63.2035C26.6465 63.1157 26.4194 63.0707 26.19 63.0708H22.6982V59.5791H34.9213C35.1505 59.5792 35.3775 59.5341 35.5893 59.4464C35.8011 59.3587 35.9935 59.2302 36.1556 59.0681C36.3177 58.906 36.4462 58.7135 36.5338 58.5017C36.6215 58.2899 36.6665 58.0629 36.6664 57.8337C36.6665 57.6044 36.6215 57.3774 36.5338 57.1655C36.4462 56.9536 36.3177 56.7611 36.1556 56.5989C35.9935 56.4367 35.801 56.3081 35.5892 56.2203C35.3774 56.1325 35.1503 56.0874 34.9211 56.0874H22.6982V52.5951H45.3965C46.3607 52.5951 47.1429 51.814 47.1429 50.8487C47.1429 49.8835 46.3607 49.1024 45.3965 49.1024H35.117C39.6458 46.0782 42.6501 40.9549 42.7419 35.1342H69.3986C72.5307 35.1342 75.0792 37.6837 75.0792 40.8161V73.547H22.7205C22.7136 73.547 22.7064 73.549 22.6985 73.549L22.6982 66.5638ZM75.0792 82.2773H50.1481C49.8734 80.269 48.9823 78.4587 47.6664 77.0392H75.0794L75.0792 82.2773ZM22.7202 77.0392H33.5233C32.2087 78.4587 31.3163 80.269 31.0426 82.2773H17.4601C17.4719 79.3879 19.8278 77.0392 22.7202 77.0392ZM40.595 89.7475C37.1989 89.7475 34.4346 86.9839 34.4346 83.5871C34.4346 80.1913 37.1989 77.4267 40.595 77.4267C43.9918 77.4267 46.7554 80.1913 46.7554 83.5871C46.7554 86.9839 43.9918 89.7475 40.595 89.7475ZM92.9759 89.7475C89.5801 89.7475 86.8158 86.9839 86.8158 83.5871C86.8158 80.1913 89.5801 77.4267 92.9762 77.4267C96.3728 77.4267 99.1363 80.1913 99.1363 83.5871C99.1363 86.9839 96.3728 89.7475 92.9759 89.7475ZM106.508 82.2773H102.529C101.887 77.5745 97.8524 73.935 92.9759 73.935C88.0992 73.935 84.0661 77.5745 83.4225 82.2773H78.5709V52.5956H92.9711C96.327 52.5956 99.4133 54.251 101.225 57.0245L106.508 65.109V82.2773Z" fill="white"/>
<path d="M95.8326 83.5871C95.8326 85.1646 94.5538 86.4435 92.9762 86.4435C91.3986 86.4435 90.1198 85.1646 90.1198 83.5871C90.1198 82.0095 91.3986 80.7307 92.9762 80.7307C94.5538 80.7307 95.8326 82.0095 95.8326 83.5871ZM43.4514 83.5871C43.4514 85.1646 42.1725 86.4435 40.595 86.4435C39.0184 86.4435 37.7396 85.1646 37.7396 83.5871C37.7396 82.0095 39.0184 80.7307 40.595 80.7307C42.1725 80.7307 43.4514 82.0095 43.4514 83.5871ZM27.9366 34.8636V27.2246C27.9367 26.9953 27.8915 26.7682 27.8038 26.5563C27.716 26.3444 27.5873 26.1519 27.4251 25.9898C27.2629 25.8277 27.0703 25.6992 26.8584 25.6116C26.6464 25.524 26.4193 25.479 26.19 25.4792C25.9607 25.4791 25.7337 25.5242 25.5219 25.6118C25.3101 25.6995 25.1176 25.8281 24.9555 25.9901C24.7934 26.1522 24.6649 26.3447 24.5772 26.5565C24.4895 26.7683 24.4445 26.9954 24.4446 27.2246V34.294L20.881 39.1827C20.7458 39.3677 20.6485 39.5776 20.5945 39.8004C20.5405 40.0231 20.5309 40.2543 20.5664 40.4807C20.6018 40.7071 20.6816 40.9243 20.801 41.1199C20.9205 41.3154 21.0774 41.4855 21.2626 41.6204C21.5607 41.8394 21.9209 41.9574 22.2908 41.9573C22.5662 41.9576 22.8376 41.8926 23.083 41.7676C23.3284 41.6427 23.5406 41.4614 23.7024 41.2385L27.6018 35.8918C27.8194 35.5931 27.9366 35.2331 27.9366 34.8636ZM92.3877 54.3407H89.0476C88.8182 54.3406 88.5911 54.3857 88.3791 54.4734C88.1672 54.5612 87.9746 54.6898 87.8124 54.8521C87.6502 55.0143 87.5216 55.2069 87.4339 55.4188C87.3462 55.6308 87.3011 55.8579 87.3012 56.0873V68.3091C87.3011 68.5385 87.3462 68.7656 87.434 68.9775C87.5217 69.1895 87.6503 69.382 87.8125 69.5442C87.9747 69.7064 88.1673 69.835 88.3792 69.9228C88.5911 70.0105 88.8183 70.0556 89.0476 70.0555H100.799C101.894 70.0555 102.874 69.489 103.423 68.5429C103.973 67.5965 103.974 66.4635 103.432 65.5197L99.3553 58.3831C97.9317 55.8914 95.261 54.3407 92.3877 54.3407ZM90.7943 66.5638V57.8337H92.3877C93.1864 57.8343 93.9709 58.0457 94.6619 58.4465C95.3528 58.8473 95.9258 59.4233 96.3229 60.1164L100.007 66.5638H90.7943Z" fill="white"/>
</svg>
