<svg width="24" height="26" viewBox="0 0 24 26" fill="none" xmlns="http://www.w3.org/2000/svg">
<path fill-rule="evenodd" clip-rule="evenodd" d="M20.5033 4.44696C18.2472 2.18821 15.2467 0.943702 12.0502 0.942383C5.4635 0.942383 0.102867 6.30286 0.10023 12.8913C0.0993254 14.9974 0.649496 17.0534 1.69528 18.8656L0 25.0578L6.33486 23.396C8.08036 24.3482 10.0455 24.85 12.0453 24.8506H12.0504C18.6363 24.8506 23.9975 19.4897 24 12.9009C24.0014 9.70777 22.7595 6.70559 20.5033 4.44696ZM12.0502 22.8324H12.046C10.2639 22.8316 8.51602 22.3527 6.99083 21.4479L6.62835 21.2326L2.86913 22.2188L3.87248 18.5536L3.63623 18.1779C2.64199 16.5965 2.11696 14.7687 2.11786 12.892C2.11993 7.41586 6.57563 2.96062 12.0542 2.96062C14.7071 2.96148 17.2009 3.99592 19.0761 5.87331C20.9512 7.75069 21.9833 10.2461 21.9825 12.9001C21.9801 18.3767 17.5247 22.8324 12.0502 22.8324ZM17.4982 15.3936C17.1997 15.2441 15.7317 14.522 15.4579 14.4222C15.1844 14.3226 14.9851 14.2729 14.7863 14.5717C14.5871 14.8705 14.015 15.5432 13.8407 15.7423C13.6664 15.9416 13.4925 15.9666 13.1938 15.8171C12.8952 15.6677 11.9331 15.3523 10.7926 14.3351C9.90503 13.5433 9.30584 12.5656 9.13157 12.2668C8.9576 11.9677 9.13006 11.8217 9.26254 11.6574C9.58576 11.256 9.90944 10.8352 10.009 10.6361C10.1086 10.4367 10.0587 10.2624 9.98393 10.1129C9.90944 9.96354 9.31232 8.49386 9.06355 7.89584C8.821 7.31386 8.57503 7.39243 8.39164 7.38335C8.21767 7.37464 8.01853 7.37287 7.81939 7.37287C7.62036 7.37287 7.29683 7.44748 7.02309 7.74658C6.74945 8.04554 5.97821 8.7678 5.97821 10.2375C5.97821 11.7072 7.04811 13.1269 7.19736 13.3262C7.34657 13.5255 9.3029 16.5414 12.298 17.8346C13.0104 18.1426 13.5665 18.3261 14.0003 18.4637C14.7156 18.691 15.3663 18.6589 15.8809 18.582C16.4546 18.4962 17.6473 17.8596 17.8964 17.1622C18.1451 16.4648 18.1451 15.867 18.0703 15.7423C17.9959 15.6178 17.7967 15.5432 17.4982 15.3936Z" fill="white"/>
</svg>
