<svg width="56" height="56" viewBox="0 0 56 56" fill="none" xmlns="http://www.w3.org/2000/svg">
<rect x="0.5" y="0.5" width="55" height="55" rx="5.5" stroke="#CBD5E1"/>
<path fill-rule="evenodd" clip-rule="evenodd" d="M37.9205 18.0213C35.2883 15.3861 31.7878 13.9342 28.0585 13.9327C20.3741 13.9327 14.12 20.1866 14.1169 27.8731C14.1159 30.3303 14.7577 32.7288 15.9778 34.8431L14 42.0673L21.3907 40.1286C23.4271 41.2395 25.7198 41.8248 28.0529 41.8255H28.0588C35.7424 41.8255 41.9971 35.5712 42 27.8843C42.0016 24.159 40.5528 20.6564 37.9205 18.0213ZM28.0585 39.471H28.0537C25.9745 39.4701 23.9354 38.9114 22.156 37.8558L21.7331 37.6046L17.3473 38.7551L18.5179 34.4791L18.2423 34.0407C17.0823 32.1958 16.4698 30.0634 16.4708 27.8739C16.4733 21.4851 21.6716 16.2873 28.0632 16.2873C31.1583 16.2883 34.0677 17.4951 36.2554 19.6854C38.4431 21.8757 39.6472 24.7871 39.6462 27.8834C39.6435 34.2727 34.4455 39.471 28.0585 39.471ZM34.4146 30.7925C34.0663 30.618 32.3536 29.7756 32.0342 29.6592C31.7151 29.5429 31.4826 29.485 31.2506 29.8336C31.0183 30.1822 30.3508 30.9669 30.1475 31.1993C29.9442 31.4318 29.7412 31.461 29.3928 31.2865C29.0444 31.1122 27.922 30.7442 26.5914 29.5575C25.5559 28.6338 24.8568 27.4931 24.6535 27.1445C24.4505 26.7955 24.6517 26.6252 24.8063 26.4335C25.1834 25.9653 25.561 25.4743 25.6771 25.242C25.7933 25.0094 25.7351 24.806 25.6479 24.6317C25.561 24.4574 24.8644 22.7427 24.5741 22.045C24.2912 21.3661 24.0042 21.4577 23.7902 21.4471C23.5873 21.437 23.3549 21.4349 23.1226 21.4349C22.8904 21.4349 22.513 21.522 22.1936 21.8709C21.8744 22.2197 20.9746 23.0623 20.9746 24.777C20.9746 26.4916 22.2228 28.148 22.3969 28.3805C22.571 28.613 24.8534 32.1315 28.3477 33.6403C29.1788 33.9995 29.8276 34.2137 30.3337 34.3742C31.1682 34.6393 31.9274 34.6019 32.5277 34.5123C33.1971 34.4122 34.5885 33.6695 34.8791 32.8558C35.1693 32.0421 35.1693 31.3447 35.082 31.1993C34.9952 31.054 34.7628 30.9669 34.4146 30.7925Z" fill="#334155"/>
</svg>
