<svg width="24" height="25" viewBox="0 0 24 25" fill="none" xmlns="http://www.w3.org/2000/svg">
<g clip-path="url(#clip0_428_2834)">
<path d="M0.510664 24.5C0.432106 24.5 0.354608 24.4819 0.284198 24.447C0.213789 24.4122 0.152367 24.3616 0.104709 24.2991C0.0570519 24.2367 0.0244444 24.1641 0.00942307 24.087C-0.00559822 24.0098 -0.00262824 23.9303 0.018102 23.8545L1.57834 18.1571C0.606946 16.4005 0.0947895 14.4134 0.0955395 12.3964C0.0983051 5.83663 5.43652 0.5 11.9957 0.5C15.1772 0.501266 18.1666 1.74055 20.4135 3.98909C22.66 6.23778 23.8967 9.227 23.8958 12.4059C23.8929 18.9658 18.5546 24.3028 11.9957 24.3028H11.9906C10.0748 24.302 8.17543 23.8351 6.48427 22.9507L0.640086 24.4834C0.597243 24.4945 0.553696 24.5 0.510664 24.5Z" fill="#E5E5E5"/>
<path d="M0.510742 23.9893L2.12643 18.0892C1.12982 16.3623 0.60557 14.4034 0.606273 12.3966C0.608898 6.11843 5.71785 1.01074 11.9958 1.01074C15.0423 1.01201 17.9019 2.1978 20.0523 4.35002C22.2025 6.50224 23.3863 9.36307 23.3852 12.4057C23.3824 18.6837 18.2727 23.7921 11.9958 23.7921C11.9954 23.7921 11.996 23.7921 11.9958 23.7921H11.9909C10.0848 23.7914 8.21193 23.3134 6.54843 22.406L0.510742 23.9893ZM6.82809 20.3448L7.17393 20.5497C8.62705 21.4121 10.2931 21.8682 11.9922 21.8692H11.9958C17.2132 21.8692 21.4598 17.6233 21.462 12.405C21.4629 9.87612 20.4793 7.49815 18.692 5.7094C16.9045 3.92065 14.528 2.93496 11.9993 2.93388C6.77769 2.93388 2.53129 7.17916 2.52927 12.3973C2.52852 14.1855 3.02877 15.9268 3.97654 17.4338L4.20177 17.7919L3.2452 21.2841L6.82809 20.3448Z" fill="white"/>
<path d="M0.906738 23.5918L2.4666 17.8955C1.50421 16.2286 0.998285 14.3373 0.998848 12.4002C1.00119 6.3394 5.93352 1.40857 11.9938 1.40857C14.9352 1.40983 17.6959 2.55462 19.7713 4.6323C21.8474 6.70999 22.99 9.47177 22.9888 12.4088C22.9863 18.4698 18.0538 23.4012 11.9943 23.4012C11.9938 23.4012 11.9945 23.4012 11.9943 23.4012H11.9893C10.1494 23.4004 8.34116 22.9386 6.73536 22.0634L0.906738 23.5918Z" fill="#64B161"/>
<path d="M0.510742 23.9893L2.12643 18.0892C1.12982 16.3623 0.60557 14.4034 0.606273 12.3966C0.608898 6.11843 5.71785 1.01074 11.9958 1.01074C15.0423 1.01201 17.9019 2.1978 20.0523 4.35002C22.2025 6.50224 23.3863 9.36307 23.3852 12.4057C23.3824 18.6837 18.2727 23.7921 11.9958 23.7921C11.9954 23.7921 11.996 23.7921 11.9958 23.7921H11.9909C10.0848 23.7914 8.21193 23.3134 6.54843 22.406L0.510742 23.9893ZM6.82809 20.3448L7.17393 20.5497C8.62705 21.4121 10.2931 21.8682 11.9922 21.8692H11.9958C17.2132 21.8692 21.4598 17.6233 21.462 12.405C21.4629 9.87612 20.4793 7.49815 18.692 5.7094C16.9045 3.92065 14.528 2.93496 11.9993 2.93388C6.77769 2.93388 2.53129 7.17916 2.52927 12.3973C2.52852 14.1855 3.02877 15.9268 3.97654 17.4338L4.20177 17.7919L3.2452 21.2841L6.82809 20.3448Z" fill="white"/>
<path fill-rule="evenodd" clip-rule="evenodd" d="M9.14926 7.63649C8.93612 7.16258 8.71164 7.15311 8.50876 7.14486C8.34283 7.13769 8.15298 7.13806 7.96347 7.13806C7.77376 7.13806 7.46542 7.2095 7.20466 7.49422C6.94375 7.77894 6.20837 8.46744 6.20837 9.86764C6.20837 11.268 7.22828 12.621 7.37055 12.8111C7.51281 13.0009 9.3393 15.9661 12.2318 17.1069C14.6358 18.055 15.1249 17.8664 15.6467 17.819C16.1686 17.7716 17.3304 17.1305 17.5675 16.466C17.8048 15.8015 17.8048 15.2321 17.7336 15.1129C17.6623 14.9944 17.4727 14.9232 17.1881 14.7809C16.9036 14.6386 15.5045 13.95 15.2435 13.8551C14.9826 13.7601 14.7929 13.7128 14.6032 13.9978C14.4134 14.2823 13.8684 14.9232 13.7023 15.1129C13.5362 15.3031 13.3702 15.3269 13.0856 15.1845C12.8011 15.0418 11.8845 14.7415 10.7972 13.772C9.95125 13.0178 9.37994 12.0861 9.2139 11.8012C9.04797 11.5167 9.21109 11.3761 9.33892 11.2206C9.56908 10.9406 9.95528 10.4373 10.0501 10.2476C10.145 10.0575 10.0975 9.89146 10.0265 9.74896C9.95523 9.60669 9.40211 8.19936 9.14926 7.63649Z" fill="white"/>
</g>
<defs>
<clipPath id="clip0_428_2834">
<rect width="24" height="24" fill="white" transform="translate(0 0.5)"/>
</clipPath>
</defs>
</svg>
